<?xml version="1.0" standalone="no"?>
<!DOCTYPE svg PUBLIC "-//W3C//DTD SVG 1.1//EN" "http://www.w3.org/Graphics/SVG/1.1/DTD/svg11.dtd" >
<svg xmlns="http://www.w3.org/2000/svg">
<metadata></metadata>
<defs>
<font id="pf_beausans_prolight" horiz-adv-x="1193" >
<font-face units-per-em="2048" ascent="1536" descent="-512" />
<missing-glyph horiz-adv-x="540" />
<glyph unicode="&#xfb01;" horiz-adv-x="1093" d="M16 979v41q0 23 27 29l162 26v111q0 147 87 234t281 87q41 0 123 -7t174 -32q14 -4 16.5 -11t-1.5 -17l-17 -76q-2 -20 -26 -14q-70 14 -143.5 20t-112.5 6q-66 0 -110 -14t-70.5 -39t-38 -58.5t-11.5 -74.5v-115h576q16 0 20 -6t4 -20v-1022q0 -16 -6 -21.5t-22 -5.5 h-94q-16 0 -21.5 5t-5.5 22v927h-453v-927q0 -16 -5 -21.5t-21 -5.5h-95q-16 0 -22 5t-6 22v927h-162q-16 0 -21.5 7.5t-5.5 17.5z" />
<glyph unicode="&#xfb02;" horiz-adv-x="1177" d="M16 979v41q0 23 27 29l162 26v119q0 147 87 233t281 86q39 0 116 -6t159 -28l82 22q16 0 21 -5t5 -21v-1252q0 -59 15.5 -82.5t60.5 -23.5q20 0 40 2t36 4q10 2 15 -1t7 -16l11 -67q2 -16 0 -21.5t-17 -11.5q-35 -14 -74.5 -18t-70.5 -4q-98 0 -135 48t-37 146v1182 q-66 12 -126 18t-95 6q-66 0 -110 -14t-70.5 -38.5t-38 -59.5t-11.5 -74v-123h295q16 0 20.5 -7t4.5 -19v-70q0 -12 -4 -18.5t-21 -6.5h-297v-927q0 -16 -5 -21.5t-21 -5.5h-95q-16 0 -22 5t-6 22v927h-162q-16 0 -21.5 7.5t-5.5 17.5z" />
<glyph unicode="&#xfb03;" horiz-adv-x="1667" d="M16 979v41q0 23 27 29l162 26v84q0 147 90 235.5t287 88.5q41 2 126 -6.5t183 -32.5q88 70 260 69q41 0 124 -7t175 -31q14 -4 15 -10.5t-1 -16.5l-16 -76q-6 -20 -27 -16q-72 16 -145.5 22t-112.5 6q-66 0 -109.5 -14t-70.5 -38.5t-38 -58.5t-11 -75v-123h575 q16 0 20.5 -6t4.5 -20v-1022q0 -16 -5 -21.5t-22 -5.5h-96q-16 0 -21.5 5t-5.5 22v927h-450v-927q0 -16 -6 -21.5t-23 -5.5h-92q-16 0 -22.5 5t-6.5 22v927h-430v-927q0 -16 -5 -21.5t-21 -5.5h-95q-16 0 -22 5t-6 22v927h-162q-16 0 -21.5 7.5t-5.5 17.5zM356 1075h428v119 q0 80 25 139q-61 10 -120.5 16.5t-94.5 4.5q-133 0 -185.5 -55.5t-52.5 -135.5v-88z" />
<glyph unicode="&#xfb04;" horiz-adv-x="1755" d="M16 979v41q0 23 27 29l162 26v88q0 147 90 236.5t287 89.5q41 0 126 -7t183 -32q92 70 260 70q39 0 114.5 -6.5t159.5 -26.5l82 20q16 0 21.5 -5t5.5 -21v-1260q0 -59 15.5 -81.5t60.5 -22.5q41 0 76 6q10 0 15 -3t7 -16l10 -67q2 -14 0 -19.5t-16 -13.5q-35 -12 -75 -16 t-71 -4q-98 0 -136 48t-38 146v1188q-66 12 -125 18.5t-94 6.5q-66 0 -109.5 -14.5t-70.5 -39t-38 -59.5t-11 -74v-129h295q16 0 20 -7t4 -19v-70q0 -12 -4 -18.5t-20 -6.5h-295v-927q0 -16 -6 -21.5t-23 -5.5h-92q-16 0 -22.5 5t-6.5 22v927h-430v-927q0 -16 -5 -21.5 t-21 -5.5h-95q-16 0 -22 5t-6 22v927h-162q-16 0 -21.5 7.5t-5.5 17.5zM356 1075h428v125q0 80 25 139q-59 10 -119.5 15.5t-95.5 5.5q-133 -2 -185.5 -57.5t-52.5 -135.5v-92z" />
<glyph horiz-adv-x="0" />
<glyph horiz-adv-x="682" />
<glyph unicode=" "  horiz-adv-x="540" />
<glyph unicode="&#x09;" horiz-adv-x="540" />
<glyph unicode="&#xa0;" horiz-adv-x="540" />
<glyph unicode="!" horiz-adv-x="538" d="M154 96q0 47 33.5 81t82.5 34t82 -33t33 -82t-33 -82.5t-82 -33.5q-51 0 -83.5 33.5t-32.5 82.5zM182 1405q0 10 6.5 19.5t22.5 9.5h117q16 0 22 -9.5t4 -19.5l-32 -1006q0 -16 -7.5 -22t-29.5 -6h-35q-33 0 -33 24z" />
<glyph unicode="&#x22;" horiz-adv-x="688" d="M113 1411q0 10 6 19.5t22 9.5h131q16 0 22.5 -9.5t6.5 -19.5l-41 -463q-4 -16 -10 -22t-27 -6h-37q-31 0 -30 24zM387 1411q0 10 6 19.5t23 9.5h129q18 0 24 -9.5t4 -19.5l-41 -463q-2 -16 -8 -22t-28 -6h-37q-29 0 -31 24z" />
<glyph unicode="#" d="M100 336l11 49q4 12 8 19.5t18 7.5h174l78 395h-182q-23 0 -21 24l11 50q6 25 28 24h185l53 269q4 20 24 20h62q27 0 24 -20l-55 -269h322l55 269q2 20 23 20h61q27 0 25 -20l-56 -269h185q25 0 22 -24l-12 -50q-4 -14 -8.5 -19t-18.5 -5h-186l-80 -395h192q27 0 21 -27 l-8 -49q-4 -12 -8.5 -17.5t-20.5 -5.5h-195q-4 -14 -12 -56t-17 -89t-17.5 -89t-10.5 -56q-4 -14 -7 -18.5t-17 -4.5h-62q-27 0 -22 23l55 290h-320q-4 -14 -12 -56t-17.5 -89t-17.5 -89t-10 -56q-4 -14 -7 -18.5t-18 -4.5h-61q-27 0 -25 23l58 290h-172q-25 0 -19 23z M420 412h321l80 395h-321z" />
<glyph unicode="$" d="M98 115l39 86q8 20 31 10q68 -31 144.5 -50.5t148.5 -29.5v563q-154 63 -231.5 140t-77.5 206q0 131 78.5 224.5t230.5 124.5v174q0 16 7 21t24 5h30q16 0 22.5 -5t6.5 -21v-1762q0 -16 -6 -20t-23 -4h-30q-16 0 -23.5 4t-7.5 20v185q-96 10 -189.5 34.5t-165.5 59.5 q-23 10 -8 35zM307 1051q0 -70 41 -114t113 -79v379q-70 -23 -112 -68.5t-42 -117.5zM635 -199v1762q0 16 6 21t21 5h32q16 0 22.5 -5t6.5 -21v-168q131 -12 266 -68q20 -8 12 -31l-34 -92q-8 -18 -27 -10q-63 23 -115.5 36t-101.5 19v-497q76 -31 142.5 -66t115.5 -81 t76.5 -104.5t27.5 -138.5q0 -160 -99 -254t-263 -118v-189q0 -16 -6 -20t-23 -4h-32q-14 0 -20.5 4t-6.5 20zM723 133q86 20 146.5 73.5t60.5 147.5q0 82 -53.5 136.5t-153.5 101.5v-459z" />
<glyph unicode="%" horiz-adv-x="1802" d="M88 961q0 195 89 311.5t267 116.5q186 0 269.5 -114.5t83.5 -311.5t-87 -311.5t-270 -114.5q-178 0 -265 112.5t-87 311.5zM217 963q0 -57 9.5 -116t35 -105t69.5 -74.5t113 -28.5q68 0 111 29.5t67.5 76t35 104t10.5 112.5q0 57 -10.5 114.5t-36 103.5t-69.5 74.5 t-112 28.5q-66 0 -108.5 -28.5t-68 -74.5t-36 -102.5t-10.5 -113.5zM430.5 -42q-6.5 5 1.5 19l838 1430q10 14 15 19.5t20 5.5h61q10 0 16.5 -5.5t-2.5 -19.5l-841 -1430q-14 -25 -37 -24h-53q-12 0 -18.5 5zM1004 412q0 195 89 310.5t267 115.5q186 0 269 -113.5t83 -310.5 t-87 -311.5t-269 -114.5q-178 0 -265 112.5t-87 311.5zM1133 414q0 -57 9 -115.5t34.5 -105t69.5 -75t114 -28.5q68 0 110.5 30t67.5 76t35 103.5t10 112.5q0 57 -10 114.5t-36 103.5t-70 74.5t-111 28.5q-66 0 -109 -28.5t-68.5 -74.5t-35.5 -102.5t-10 -113.5z" />
<glyph unicode="&#x26;" horiz-adv-x="1464" d="M137 317q0 74 25.5 142.5t69.5 131t105.5 116t133.5 96.5q-74 86 -119 174t-45 166q0 72 26.5 130t72 99t105.5 63.5t128 22.5t127 -20.5t102 -59.5t68 -92t25 -119q0 -70 -23 -127t-62.5 -105t-92 -89t-111.5 -78q37 -49 67.5 -88t59 -75t57.5 -71.5t62 -76.5 q31 51 64.5 104t74.5 99.5t90 82t108 56.5q23 8 46.5 13t46.5 7q20 2 24 -16l14 -80q4 -14 -3 -19.5t-17 -7.5q-80 -12 -135 -47t-94 -82t-69 -104t-60 -115q6 -10 21 -28.5t35.5 -42t44.5 -52t48 -55.5q55 -66 123 -141q6 -8 4 -18.5t-14 -10.5h-109q-20 0 -31.5 4 t-21.5 19l-176 202q-86 -117 -189.5 -184.5t-242.5 -67.5q-174 0 -268.5 92.5t-94.5 251.5zM283 330q0 -61 18 -104.5t49 -70t73 -39t91 -12.5q86 0 174 59.5t156 172.5q-74 92 -144.5 180t-144.5 184q-53 -35 -102.5 -73.5t-87 -84.5t-60 -99.5t-22.5 -112.5zM455 1153 q0 -76 45 -150.5t96 -136.5q37 23 76 51.5t70.5 64.5t53 78t21.5 93q0 31 -10 63.5t-31.5 58t-55.5 42t-79 16.5q-86 0 -136 -50t-50 -130z" />
<glyph unicode="'" horiz-adv-x="428" d="M121 1411q-2 10 4 19.5t22 9.5h132q18 0 24 -9.5t4 -19.5l-41 -463q-2 -16 -8 -22t-29 -6h-36q-31 0 -33 24z" />
<glyph unicode="(" horiz-adv-x="579" d="M61 664q0 129 30 244.5t81 219t120.5 192.5t149.5 167q14 14 29 4l51 -37q10 -6 8 -11t-6 -11q-154 -170 -222.5 -357.5t-68.5 -402.5q0 -225 71 -412.5t220 -351.5q4 -6 6 -11.5t-6 -11.5l-53 -41q-14 -10 -27 2q-82 76 -151.5 166t-120.5 193.5t-81 217.5t-30 241z" />
<glyph unicode=")" horiz-adv-x="585" d="M59.5 -105.5q1.5 5.5 6.5 11.5q152 168 221 356.5t69 401.5q0 227 -71.5 413.5t-218.5 352.5q-4 6 -6.5 11t6.5 9l55 41q14 10 26 -2q80 -78 150 -167t121 -191.5t80.5 -217t29.5 -241.5q0 -129 -28.5 -245t-79.5 -219.5t-121 -193.5t-149 -166q-14 -14 -29 -4l-53 39 q-10 6 -8.5 11.5z" />
<glyph unicode="*" horiz-adv-x="958" d="M133 1122l23 74q8 31 37 16l249 -102l-20 276q-2 8 3 15.5t21 7.5h80q16 0 21.5 -7t3.5 -18l-23 -274l252 107q27 12 35 -13l25 -78q4 -16 -1 -23t-16 -9l-266 -72l180 -209q18 -23 -4 -37l-59 -45q-16 -14 -25.5 -12t-17.5 18l-144 234l-145 -242q-12 -25 -35 -8l-65 51 q-20 16 -6 39l176 211l-260 68q-27 6 -19 32z" />
<glyph unicode="+" d="M106 659v91q0 14 5.5 21t21.5 7h389v404q0 16 6.5 21t22.5 5h94q16 0 21.5 -5t5.5 -21v-404h387q16 0 21 -7t5 -21v-91q0 -16 -5 -22t-21 -6h-387v-406q0 -16 -5 -21t-22 -5h-94q-16 0 -22.5 5t-6.5 21v406h-389q-16 0 -21.5 6t-5.5 22z" />
<glyph unicode="," horiz-adv-x="456" d="M121 -223l31 418q2 14 10 24t26 10h142q18 0 26.5 -10t3.5 -22l-120 -418q-4 -16 -11.5 -23.5t-25.5 -7.5h-49q-37 0 -33 29z" />
<glyph unicode="-" horiz-adv-x="727" d="M102 522v119q0 14 5.5 20.5t21.5 6.5h471q16 0 20.5 -6.5t4.5 -20.5v-119q0 -16 -4.5 -21t-20.5 -5h-471q-16 0 -21.5 5t-5.5 21z" />
<glyph unicode="." horiz-adv-x="487" d="M119 100q0 53 35.5 88t89.5 35q53 0 89 -35t36 -88t-36 -89t-89 -36t-89 36t-36 89z" />
<glyph unicode="/" horiz-adv-x="862" d="M27 -172l665 1741q6 27 33 26h98q10 0 17.5 -6t3.5 -20l-668 -1741q-6 -25 -35 -25h-92q-12 0 -19 5.5t-3 19.5z" />
<glyph unicode="0" d="M63 686q0 164 34 296t100.5 224t167 142.5t233.5 50.5q141 0 240.5 -49.5t164 -141.5t94 -223t29.5 -295t-31.5 -295t-97 -224t-166 -143.5t-237.5 -50.5q-133 0 -232.5 49.5t-166 141.5t-99.5 223t-33 295zM217 690q0 -104 16.5 -208.5t59.5 -188.5t116.5 -136.5 t188.5 -52.5q111 0 183.5 53.5t115.5 136.5t60.5 186.5t17.5 205.5q0 104 -16.5 208.5t-59.5 187.5t-116.5 135.5t-188.5 52.5q-111 0 -183.5 -51.5t-115.5 -134.5t-60.5 -186t-17.5 -208z" />
<glyph unicode="1" d="M258 29v80q0 16 5 22t22 6h245v1086l-239 -39q-18 -4 -24.5 2t-6.5 22v60q0 16 6 25.5t25 15.5l280 82q43 12 76 0.5t33 -56.5v-1198h252q16 0 21 -6t5 -22v-80q0 -16 -5 -22.5t-21 -6.5h-647q-16 0 -21.5 6t-5.5 23z" />
<glyph unicode="2" d="M121 125q0 72 44 163t138 189q74 78 158 139.5t155 108.5q68 43 118 80t82 72.5t47.5 73.5t15.5 85q0 55 -24 96.5t-64.5 69t-97 41.5t-122.5 14q-80 0 -164.5 -26.5t-156.5 -79.5q-25 -18 -39 2l-53 70q-12 23 8 37q88 66 195.5 102.5t218.5 36.5q94 0 177 -22.5 t144.5 -66.5t97 -109.5t35.5 -153.5q0 -145 -88 -245t-250 -196q-59 -35 -125.5 -84t-126 -109.5t-104.5 -130t-59 -145.5h727q16 0 21 -6t5 -22v-80q0 -16 -5 -22.5t-21 -6.5h-760q-74 0 -100.5 29.5t-26.5 95.5z" />
<glyph unicode="3" d="M96 135l51 74q16 23 43 4q78 -51 165 -74.5t171 -23.5q174 0 263.5 79.5t89.5 215.5q0 55 -26 101t-69 80t-101 52.5t-124 18.5h-51q-23 0 -39 9t-16 36v49q0 25 14 37t35 12h37q133 0 217 61.5t84 175.5q0 63 -27 105.5t-70 68t-95 36t-103 10.5q-86 0 -172 -25 t-156 -72q-27 -18 -43 4l-47 68q-12 14 6 31q80 66 195.5 99.5t228.5 33.5q90 0 170 -21.5t139.5 -64.5t93 -107.5t33.5 -148.5q0 -106 -63.5 -195.5t-175.5 -124.5v-8q133 -25 207.5 -116t74.5 -216q0 -90 -33.5 -167.5t-97 -134t-155.5 -88.5t-209 -32q-115 0 -233 27 t-206 98q-18 14 -6 33z" />
<glyph unicode="4" d="M47 393v23q0 29 7 50t30 50l621 811q23 31 47 54.5t59 23.5h49q47 0 66.5 -20.5t19.5 -67.5v-871h156q29 0 28 -26v-76q0 -27 -28 -27h-156v-290q0 -16 -7 -21.5t-21 -5.5h-97q-16 0 -22 5t-6 22v288h-662q-31 0 -57.5 15.5t-26.5 62.5zM217 455l2 -9h574v756l-7 2z" />
<glyph unicode="5" d="M102 133l52 74q16 23 43 4q78 -51 171 -74.5t193 -23.5q166 0 268.5 84t102.5 237q0 76 -27.5 129t-73 87t-103.5 49.5t-118 15.5q-115 0 -192.5 -23.5t-159.5 -60.5q-20 -10 -36.5 -9t-37.5 9l-26 12q-20 8 -32.5 24.5t-8.5 49.5l55 555q4 59 38 82.5t71 23.5h677 q18 0 23.5 -6t5.5 -22v-80q0 -29 -29 -29h-641l-49 -459q98 43 191.5 56.5t167.5 13.5q96 0 180 -28.5t145.5 -83t97 -130.5t35.5 -170q0 -109 -36.5 -195.5t-104 -147t-164 -92.5t-215.5 -32q-129 0 -247.5 28t-208.5 99q-18 12 -7 33z" />
<glyph unicode="6" d="M78 618q0 172 37 316.5t115.5 249t203.5 163t301 58.5q47 0 107.5 -8t107.5 -25q27 -8 17 -35l-25 -77q-8 -25 -37 -17q-31 10 -80 18.5t-92 8.5q-217 0 -342 -130t-147 -368q102 37 207.5 53.5t191.5 16.5q98 0 186.5 -25.5t154 -78t103 -130.5t37.5 -184 q0 -115 -42 -199t-110.5 -139t-159.5 -82t-189 -27q-262 0 -403.5 166t-141.5 475zM231 567q0 -102 28 -186t79 -144.5t124 -94t163 -33.5q76 0 139 19t109.5 58t72 96.5t25.5 131.5q0 125 -82 208t-248 83q-100 0 -195.5 -16.5t-212.5 -51.5q-2 -25 -2 -39v-31z" />
<glyph unicode="7" d="M90 1272v78q0 16 5 22t22 6h854q31 0 54.5 -13t23.5 -50v-35q0 -29 -7.5 -50.5t-23.5 -53.5l-592 -1133q-10 -23 -22.5 -33t-36.5 -10h-101q-16 0 -21 10t3 27l631 1206h-762q-16 0 -21.5 6t-5.5 23z" />
<glyph unicode="8" d="M94 373q0 59 18.5 115.5t54.5 104.5t87 85t117 57v4q-66 23 -109 59t-68.5 78t-36 82.5t-10.5 71.5q0 86 34 154.5t93.5 117t140.5 74t177 25.5q100 0 181 -26.5t138.5 -75t89 -115t31.5 -144.5q0 -33 -11 -74.5t-38 -84.5t-69 -81t-103 -61v-2q74 -23 126 -59.5 t85 -84.5t48 -103.5t15 -112.5q0 -66 -27.5 -136.5t-87 -129t-152.5 -96.5t-226 -38q-131 0 -225.5 32t-154.5 86.5t-89 126t-29 151.5zM248 381q0 -53 19.5 -103.5t60.5 -89t105.5 -61.5t156.5 -23q94 0 159.5 26t106.5 67t58.5 92t17.5 100q0 70 -30 122t-77 87 t-109.5 51.5t-125.5 16.5q-59 0 -120.5 -18.5t-111 -53.5t-80 -89t-30.5 -124zM297 1020q0 -53 24.5 -96t65.5 -73t93 -45t108 -15q51 0 104 16t95 47t69 74t27 96q0 109 -80 176.5t-215 67.5q-141 0 -216 -72t-75 -176z" />
<glyph unicode="9" d="M63 958q0 115 42 199t112 139.5t161 82t189 26.5q262 0 402.5 -166t140.5 -475q0 -172 -37 -316.5t-115.5 -249t-203.5 -163t-301 -58.5q-47 0 -107.5 8.5t-107.5 24.5q-27 8 -19 35l29 80q4 25 33 16q14 -4 34.5 -9t45 -9t49 -7t45.5 -3q217 0 342 131t147 366 q-100 -37 -199.5 -52t-185.5 -15q-98 0 -188 25.5t-159 76.5t-109 129t-40 184zM217 969q0 -125 86 -208t244 -83q100 0 195.5 16.5t211.5 50.5q2 27 2 41.5v28.5q0 102 -29.5 186t-82.5 144.5t-125 94.5t-154 34q-68 0 -131 -19.5t-111.5 -58.5t-77 -95t-28.5 -132z" />
<glyph unicode=":" horiz-adv-x="534" d="M145 102q0 51 36 87t89 36t88 -34t35 -87t-34.5 -88.5t-88.5 -35.5q-53 0 -89 34.5t-36 87.5zM145 907q0 51 36 86t89 35t88 -34t35 -87t-34.5 -89t-88.5 -36q-53 0 -89 36t-36 89z" />
<glyph unicode=";" horiz-adv-x="522" d="M139 -223l31 418q2 14 10 24t27 10h141q18 0 26.5 -10t4.5 -22l-121 -418q-4 -16 -11 -23.5t-26 -7.5h-49q-37 0 -33 29zM162 905q0 51 34.5 87t88.5 36q53 0 88 -35t35 -88t-35 -88t-88 -35t-88 35t-35 88z" />
<glyph unicode="&#x3c;" d="M106 672v55q0 23 9.5 33t34.5 22l909 432q27 12 26 -20v-84q0 -16 -4 -25.5t-20 -15.5l-764 -360l754 -349q18 -10 24 -18t6 -27v-96q0 -27 -24 -16l-907 426q-18 10 -29.5 18t-14.5 25z" />
<glyph unicode="=" d="M143 471v84q0 14 4.5 20.5t20.5 6.5h858q16 0 20.5 -6.5t4.5 -20.5v-84q0 -16 -4.5 -22.5t-20.5 -6.5h-858q-16 0 -20.5 6.5t-4.5 22.5zM143 834v84q0 14 4.5 20t20.5 6h858q16 0 20.5 -6t4.5 -20v-84q0 -16 -4.5 -22.5t-20.5 -6.5h-858q-16 0 -20.5 6t-4.5 23z" />
<glyph unicode="&#x3e;" d="M106 1110v84q0 33 27 20l909 -432q25 -12 34 -22t9 -33v-55q-2 -16 -13 -24.5t-30 -18.5l-907 -426q-27 -10 -26 16v96q0 18 6 26.5t26 18.5l752 349l-762 360q-16 6 -20.5 15.5t-4.5 25.5z" />
<glyph unicode="?" horiz-adv-x="1060" d="M119 1276q-14 20 6 39q92 72 206 104.5t204 32.5q98 0 179 -23.5t139 -68.5t90 -111.5t32 -154.5q0 -57 -18.5 -107.5t-48 -93.5t-68.5 -81t-80 -71q-41 -35 -81 -68.5t-73 -69.5t-52 -77t-22 -88v-76q0 -25 -24 -24h-105q-23 0 -22 22v80q0 70 23.5 124t61.5 99.5t85 83 t92 74.5q70 57 123 121t53 150q0 92 -69.5 157.5t-214.5 65.5q-78 0 -168.5 -27.5t-161.5 -83.5q-25 -18 -39 0zM334 100q0 51 36 85t89 34q14 0 34.5 -5t38 -19.5t29.5 -37t12 -57.5q0 -51 -32.5 -85.5t-85.5 -34.5t-87 33.5t-34 86.5z" />
<glyph unicode="@" horiz-adv-x="1949" d="M143 662q0 174 65.5 323.5t181.5 260t275.5 173t348.5 62.5q174 0 320.5 -49.5t252 -146.5t164.5 -238.5t59 -325.5q0 -111 -29.5 -201t-82.5 -154.5t-128 -99.5t-165 -35q-102 0 -160.5 38t-77.5 91q-53 -41 -135 -69.5t-158 -28.5q-141 0 -211.5 68.5t-70.5 185.5 q0 61 21.5 113.5t65.5 91.5t109.5 61.5t153.5 22.5h205v37q0 39 -8.5 70.5t-30 55t-59 36t-99.5 12.5q-53 0 -114.5 -10.5t-108.5 -24.5q-14 -4 -22.5 -3t-12.5 17l-14 60q-4 10 -1 18t21 17q57 23 126 33t143 10q160 0 235.5 -70t75.5 -205v-354q0 -23 4 -50.5t19.5 -51 t45 -40t80.5 -16.5q123 0 193 101.5t70 267.5q0 156 -48.5 277.5t-137.5 205.5t-214 127t-278 43q-168 0 -305.5 -55.5t-235.5 -150.5t-151.5 -224t-53.5 -276q0 -158 54.5 -287t151.5 -220.5t231.5 -141.5t293.5 -50q39 0 104.5 7t137.5 30q16 4 24.5 3t12.5 -17l18 -52 q4 -16 -2 -23t-20 -13q-68 -25 -138.5 -36.5t-140.5 -11.5q-190 0 -347 58.5t-268.5 166t-173 256t-61.5 331.5zM723 516q0 -80 54 -112.5t124 -32.5q45 0 112.5 18.5t133.5 65.5v233h-201q-29 0 -66.5 -5t-72.5 -22.5t-59.5 -51.5t-24.5 -93z" />
<glyph unicode="A" horiz-adv-x="1239" d="M31 33l473 1333q16 43 32.5 56.5t57.5 15.5h53q47 0 63.5 -15.5t30.5 -56.5l467 -1333q2 -5 2 -11q0 -4 -2 -10q-4 -12 -20 -12h-115q-16 0 -25.5 3t-15.5 24l-108 315h-609q-6 -14 -21 -60t-32.5 -98.5t-33 -97.5t-21.5 -59q-8 -27 -37 -27h-117q-16 0 -21 10 q-3 6 -3 12q0 5 2 11zM358 483h521l-154 469l-100 312h-11l-98 -303z" />
<glyph unicode="B" horiz-adv-x="1296" d="M154 94v1245q0 47 20.5 72t75.5 25l459 2q88 0 164.5 -20.5t133 -62.5t88 -108.5t31.5 -159.5q0 -92 -47 -170.5t-141 -119.5v-13q70 -20 118 -59t77.5 -88t42 -104.5t12.5 -110.5q0 -94 -35 -172t-95.5 -133.5t-144.5 -86t-182 -30.5h-481q-51 0 -73.5 21.5t-22.5 72.5z M313 145h398q96 0 157.5 29t96 73t47 95t12.5 94q0 123 -81 200t-234 77h-396v-568zM313 844h392q37 0 81.5 10t82.5 35.5t65 71t27 116.5q0 94 -62.5 154.5t-173.5 60.5h-412v-448z" />
<glyph unicode="C" horiz-adv-x="1204" d="M113 696q0 174 44 314.5t124.5 239t193.5 151.5t250 53q88 0 182 -16.5t199 -69.5q10 -4 14 -13t-6 -28l-39 -78q-6 -10 -12 -14t-21 2q-78 37 -155.5 53.5t-155.5 16.5q-121 0 -207 -51.5t-141 -135.5t-82 -194.5t-27 -229.5q0 -123 24 -227t79 -181t144 -120t218 -43 q92 0 176 21.5t162 58.5q20 8 28.5 2t12.5 -17l33 -71q8 -15 8 -24q0 -3 -1 -5q-3 -8 -15 -16q-51 -31 -107.5 -49.5t-113 -29.5t-110.5 -14.5t-99 -3.5q-141 0 -252 43t-188.5 131.5t-118.5 223.5t-41 321z" />
<glyph unicode="D" horiz-adv-x="1366" d="M154 94v1245q0 47 20.5 72t75.5 25l360 2q160 0 280 -49.5t200.5 -142.5t121.5 -225t41 -294t-37.5 -296t-114.5 -229.5t-195 -148.5t-275 -53h-381q-51 0 -73.5 21.5t-22.5 72.5zM313 145h299q133 0 224.5 44t147.5 121t81 182.5t25 230.5q0 117 -25 220.5t-81 181 t-150.5 122.5t-231.5 45h-289v-1147z" />
<glyph unicode="E" horiz-adv-x="1161" d="M154 338v758q0 70 18 132t58 108t103.5 73t153.5 27h555q20 0 26.5 -9.5t6.5 -27.5v-72q0 -20 -6 -27.5t-27 -7.5h-553q-94 0 -136 -43t-42 -131v-287h666q18 0 24.5 -7t6.5 -27v-68q0 -16 -6.5 -25.5t-24.5 -9.5h-666v-377q0 -78 40 -125t138 -47h568q20 0 26.5 -8 t6.5 -28v-72q0 -18 -6.5 -27.5t-26.5 -9.5h-570q-96 0 -160.5 26.5t-102.5 72.5t-54 107.5t-16 131.5z" />
<glyph unicode="F" horiz-adv-x="1136" d="M154 33v1063q0 70 16 132t55 108t102.5 73t159.5 27h564q20 0 26 -9.5t6 -27.5v-72q0 -20 -6 -27.5t-26 -7.5h-562q-94 0 -136 -43t-42 -131v-305h658q20 0 25 -7t5 -28v-67q0 -18 -5 -27.5t-25 -9.5h-658v-641q0 -20 -7 -26.5t-28 -6.5h-86q-18 0 -27 6t-9 27z" />
<glyph unicode="G" horiz-adv-x="1318" d="M113 700q0 174 44 313.5t124.5 238t196.5 150.5t257 52q88 0 188.5 -16.5t204.5 -69.5q10 -6 13.5 -15.5t-4.5 -25.5l-39 -86q-8 -12 -14.5 -15t-20.5 3q-76 37 -161 53t-163 16q-125 0 -213 -49t-144 -132t-82 -192.5t-26 -228.5q0 -125 22.5 -230.5t76 -182 t141.5 -119.5t217 -43q23 0 58.5 2t77.5 8t87 18.5t86 30.5v490q-29 6 -61.5 8t-60.5 2q-72 0 -141.5 -16.5t-141.5 -51.5q-16 -6 -24.5 -8t-18.5 14l-33 72q-12 20 10 39q66 45 159 69.5t183 24.5q53 0 90 -3t78 -9q66 -12 91.5 -43t25.5 -98v-529q0 -23 -6 -38t-27 -25 q-55 -33 -119.5 -52.5t-126 -30.5t-114.5 -14.5t-88 -3.5q-139 0 -251 43t-189.5 132.5t-119.5 225.5t-42 322z" />
<glyph unicode="H" horiz-adv-x="1392" d="M154 27v1380q0 16 7 21.5t21 5.5h105q16 0 22 -5.5t6 -21.5v-580h766v580q0 16 6.5 21.5t22.5 5.5h100q16 0 22.5 -5.5t6.5 -21.5v-1380q0 -16 -6 -21.5t-23 -5.5h-100q-16 0 -22.5 5t-6.5 22v661h-766v-661q0 -16 -6 -21.5t-22 -5.5h-105q-14 0 -21 5t-7 22z" />
<glyph unicode="I" horiz-adv-x="530" d="M184 27v1380q0 16 6.5 21.5t22.5 5.5h102q16 0 22.5 -5.5t6.5 -21.5v-1380q0 -16 -6 -21.5t-23 -5.5h-102q-16 0 -22.5 5t-6.5 22z" />
<glyph unicode="J" horiz-adv-x="1155" d="M14 106q-1 2 -1 5q0 8 7 20l43 80q12 20 39 6q76 -47 172.5 -71.5t190.5 -24.5q199 0 281.5 109.5t82.5 324.5v852q0 16 7.5 21.5t21.5 5.5h100q16 0 22.5 -5.5t6.5 -21.5v-864q0 -272 -128 -419t-400 -147q-90 0 -208 23t-220 90q-12 8 -17 16z" />
<glyph unicode="K" horiz-adv-x="1271" d="M154 27v1380q0 16 7 21.5t21 5.5h99q16 0 22 -5.5t6 -21.5v-770l8 -2l199 252l424 524q18 23 57 23h127q14 0 18.5 -7.5t-5.5 -17.5l-387 -479l499 -895q5 -12 5 -19q0 -16 -21 -16h-111q-27 0 -39 5t-24 28l-420 764l-330 -410v-360q0 -16 -6 -21.5t-22 -5.5h-99 q-14 0 -21 5t-7 22z" />
<glyph unicode="L" horiz-adv-x="1114" d="M154 340v1069q0 29 28 29h101q29 0 28 -29v-1079q0 -92 44 -138.5t143 -46.5h569q16 0 21.5 -7t5.5 -21v-86q0 -16 -5.5 -23.5t-21.5 -7.5h-584q-94 0 -157.5 26.5t-101.5 72.5t-54 108.5t-16 132.5z" />
<glyph unicode="M" horiz-adv-x="1640" d="M154 27v1319q0 41 16 65.5t70 24.5h47q41 0 60.5 -13.5t37.5 -60.5q4 -10 26.5 -62.5t53.5 -127t66.5 -161.5t68.5 -167t57.5 -141.5t34.5 -84.5q8 -18 25.5 -61t37 -90t36 -90t24.5 -62h8q8 18 24.5 59.5t36 88.5t36 88t24.5 59q18 43 44 107.5t56.5 137.5t62.5 150.5 t59.5 146.5t51 124t35.5 86q18 47 39 60.5t60 13.5h47q53 0 70.5 -25t17.5 -65v-1319q0 -16 -7 -21.5t-22 -5.5h-96q-16 0 -22.5 5t-6.5 22v1132h-10l-102 -252q-23 -53 -61 -144t-79 -190.5t-79.5 -191.5t-61.5 -143q-16 -41 -33.5 -56.5t-58.5 -15.5h-55q-41 0 -59.5 15.5 t-35.5 56.5q-23 53 -61.5 145t-80.5 192.5t-81 192.5t-63 145l-95 230h-12v-1116q0 -16 -6 -21.5t-23 -5.5h-94q-16 0 -22 5t-6 22z" />
<glyph unicode="N" horiz-adv-x="1392" d="M154 27v1319q0 45 18 67.5t70 22.5h45q39 0 56 -16.5t42 -57.5l516 -844l174 -295h8v1186q0 16 6.5 21.5t22.5 5.5h98q14 0 21.5 -5.5t7.5 -21.5v-1319q0 -43 -17.5 -66.5t-68.5 -23.5h-47q-41 0 -58.5 17.5t-41.5 58.5l-535 872l-156 262h-6v-1183q0 -16 -6 -21.5 t-22 -5.5h-99q-14 0 -21 5t-7 22z" />
<glyph unicode="O" horiz-adv-x="1425" d="M113 715q0 178 44 316t122.5 232.5t189.5 143.5t244 49q297 0 448.5 -194.5t151.5 -540.5q0 -358 -152.5 -551t-451.5 -193q-152 0 -263.5 50.5t-185.5 145.5t-110.5 232.5t-36.5 309.5zM270 721q0 -129 21.5 -238.5t73 -190.5t135.5 -127t211 -46q125 0 210 49t136 132 t72.5 190.5t21.5 224.5t-19.5 225.5t-68.5 191t-133 133t-213 50.5q-117 0 -202 -48t-139 -129t-80 -189.5t-26 -227.5z" />
<glyph unicode="P" horiz-adv-x="1218" d="M154 25v1316q0 47 19.5 71t74.5 24h473q94 0 173 -31t136 -86t88 -132t31 -169q0 -57 -18.5 -131t-68.5 -140.5t-137 -111.5t-223 -45h-393v-565q0 -16 -6 -20.5t-22 -4.5h-101q-14 0 -20 4t-6 21zM309 729h375q141 0 221 72.5t80 208.5q0 45 -14.5 95t-49 91t-93 67.5 t-146.5 26.5h-373v-561z" />
<glyph unicode="Q" horiz-adv-x="1425" d="M113 715q0 178 44 315t122.5 232.5t189.5 144.5t244 49q147 0 259.5 -50t187.5 -144.5t114 -231.5t39 -309q0 -358 -152.5 -551t-451.5 -193q-152 0 -263.5 50.5t-185.5 145.5t-110.5 232.5t-36.5 309.5zM270 721q0 -129 21.5 -239.5t73 -190.5t135.5 -126t209 -46 t210 49t137 132t73.5 190.5t21.5 224.5t-19.5 225.5t-68.5 191t-133 132t-213 49.5q-117 0 -202 -47t-139 -129t-80 -189.5t-26 -226.5zM655 -156q0 16 4.5 21.5t20.5 5.5h217q158 0 283 -36t190 -83q10 -8 14 -15q2 -2 2 -6q0 -6 -6 -16l-41 -65q-10 -18 -25 -18 q-8 0 -18 6q-78 45 -189.5 71.5t-242.5 26.5h-184q-16 0 -20.5 7t-4.5 21v80z" />
<glyph unicode="R" horiz-adv-x="1263" d="M154 27v1314q0 47 20.5 72t75.5 25h465q98 0 176 -30t133 -83t85 -126t30 -159q0 -123 -61.5 -219t-178.5 -137v-6q86 -29 124 -82t60 -131l121 -434q2 -5 2 -10t-2 -11q-4 -10 -22 -10h-113q-8 0 -18.5 3t-14.5 20l-110 397q-18 63 -46 103t-65 63.5t-82 33t-96 9.5 h-322v-602q0 -16 -6 -21.5t-22 -5.5h-105q-16 0 -22 5t-6 22zM317 768h367q152 0 222.5 73.5t70.5 190.5q0 49 -15.5 96.5t-49 83t-87 57t-129.5 21.5h-379v-522z" />
<glyph unicode="S" horiz-adv-x="1150" d="M72 123l41 90q8 20 30 10q51 -25 110.5 -44t119 -31.5t116 -19.5t103.5 -7q68 0 130 14.5t108.5 45t74 77.5t27.5 111q0 113 -91 181t-274 130q-113 37 -195.5 75t-137 84t-81 104t-26.5 138q0 82 30.5 152t90 120t144.5 77.5t196 27.5q100 0 204.5 -18.5t204.5 -65.5 q20 -8 13 -31l-39 -96q-10 -16 -25 -10q-104 43 -193 60.5t-169 17.5q-131 0 -213 -61.5t-82 -161.5q0 -57 22.5 -96.5t67.5 -71t112.5 -58t157.5 -59.5q94 -33 175 -70t140.5 -86t94.5 -115.5t35 -158.5q0 -98 -37 -172t-103.5 -125t-159 -77t-204.5 -26q-53 0 -117.5 5.5 t-131.5 18.5t-134.5 34.5t-126.5 52.5q-12 6 -12 18q0 8 4 17z" />
<glyph unicode="T" horiz-adv-x="1101" d="M29 1321v84q0 16 4 22.5t20 6.5h996q16 0 21 -6.5t5 -22.5v-84q0 -16 -5 -21.5t-21 -5.5h-424v-1267q0 -16 -5.5 -21.5t-19.5 -5.5h-108q-16 0 -22.5 5t-6.5 22v1267h-410q-16 0 -20 5.5t-4 21.5z" />
<glyph unicode="U" horiz-adv-x="1384" d="M154 612v795q0 16 4 21.5t14 5.5h121q10 0 15 -5.5t5 -21.5v-782q0 -133 16.5 -229.5t65.5 -158t140.5 -91t240.5 -29.5q35 0 119 5t180 23v1262q0 16 4 21.5t15 5.5h120q10 0 13.5 -5.5t3.5 -21.5v-1247q0 -63 -27.5 -103.5t-103.5 -54.5q-78 -14 -171 -20.5t-159 -6.5 q-170 0 -287.5 31t-190.5 104.5t-105.5 195.5t-32.5 306z" />
<glyph unicode="V" horiz-adv-x="1261" d="M35 1413q-4 7 -4 12q0 11 18 11h123q23 0 31 -21q2 -8 20.5 -62.5t45 -136t60 -181t67.5 -199t66 -188.5t54 -150q4 -14 19.5 -61.5t34 -101.5t36 -103.5t23.5 -67.5h10l106 330l314 921q6 16 13 18.5t24 2.5h118q15 0 15 -13q0 -4 -2 -10l-471 -1345 q-12 -37 -28.5 -51.5t-51.5 -16.5h-74q-39 0 -57.5 13.5t-34.5 54.5z" />
<glyph unicode="W" horiz-adv-x="1693" d="M33 1413q-2 6 -2 11q0 12 16 12h121q29 0 31 -21l174 -889l63 -338h10l80 340l201 832q6 31 24.5 53.5t65.5 22.5h70q39 0 56.5 -20.5t25.5 -55.5l198 -825l78 -347h10l68 349l176 878q2 20 29 21h119q17 0 17 -12q0 -5 -3 -11l-289 -1345q-10 -41 -31.5 -54.5 t-58.5 -13.5h-74q-35 0 -51 19.5t-27 58.5l-215 880l-65 299h-6l-68 -303l-217 -876q-8 -37 -25.5 -57.5t-52.5 -20.5h-73q-37 0 -58.5 13.5t-32.5 54.5z" />
<glyph unicode="X" horiz-adv-x="1122" d="M22 7q-1 2 -2 5q0 6 5 13l444 718l-410 670q-4 6 -1 14.5t16 8.5h119q23 0 30.5 -4.5t16.5 -20.5l323 -537l322 537q14 25 49 25h110q27 0 13 -27l-406 -661l447 -723q2 -5 2 -9t-1 -8q-3 -8 -16 -8h-122q-20 0 -29.5 6t-18.5 19l-354 593l-354 -593q-14 -25 -47 -25 h-119q-13 0 -17 7z" />
<glyph unicode="Y" horiz-adv-x="1118" d="M24 1428q3 8 15 8h127q25 0 35 -23l202 -379l158 -307h8l164 317l197 369q10 23 35 23h118q10 0 13 -8q1 -5 1 -9q0 -2 -1 -4l-455 -833v-555q0 -16 -5 -21.5t-22 -5.5h-98q-16 0 -22.5 5t-6.5 22v553l-462 835q-2 3 -2 7q0 3 1 6z" />
<glyph unicode="Z" horiz-adv-x="1220" d="M55 76v26q0 31 8.5 51.5t26.5 43.5q39 49 108.5 136t155.5 191.5t178.5 219t178.5 219t155.5 191.5t108.5 136l-2 6h-783q-16 0 -21 6.5t-5 22.5v82q0 16 5 22.5t21 6.5h861q47 0 69.5 -17.5t22.5 -64.5v-35q0 -33 -14.5 -58.5t-34.5 -50.5q-37 -45 -104.5 -129 t-150.5 -187t-174.5 -215t-175 -215.5t-151.5 -187t-102 -129.5q4 -4 4 -10h886q16 0 20.5 -6t4.5 -22v-80q0 -16 -4 -22.5t-21 -6.5h-985q-86 0 -86 76z" />
<glyph unicode="[" horiz-adv-x="616" d="M139 -135v1581q0 16 4 22.5t21 6.5h371q16 0 21 -6.5t5 -22.5v-64q0 -14 -5 -20t-21 -6h-246v-1401h246q16 0 21 -5t5 -22v-63q0 -16 -5 -22.5t-21 -6.5h-371q-16 0 -20.5 6t-4.5 23z" />
<glyph unicode="\" horiz-adv-x="862" d="M27 1569q-4 14 4 20t16 6h96q16 0 22.5 -6t12.5 -20l666 -1741q4 -14 -3 -19.5t-20 -5.5h-94q-27 0 -35 25z" />
<glyph unicode="]" horiz-adv-x="616" d="M102 -70q0 14 5.5 20.5t21.5 6.5h246v1401h-246q-16 0 -21.5 5t-5.5 21v64q0 14 5.5 21.5t21.5 7.5h371q16 0 20 -7.5t4 -21.5v-1581q0 -16 -4 -22.5t-20 -6.5h-371q-16 0 -21.5 6t-5.5 23v63z" />
<glyph unicode="^" horiz-adv-x="1060" d="M66.5 783.5q-3.5 9.5 5.5 21.5l374 635q12 20 23.5 33.5t32.5 13.5h33q25 0 35 -9.5t24 -33.5l377 -641q8 -12 2 -19.5t-19 -7.5h-100q-31 0 -41 25l-289 504h-4q-20 -35 -59 -105t-82 -144.5t-82 -144t-57 -104.5q-10 -18 -18.5 -25.5t-28.5 -7.5h-107q-16 0 -19.5 9.5z " />
<glyph unicode="_" horiz-adv-x="1024" d="M-23 -180q0 14 4.5 20t20.5 6h1020q16 0 20.5 -6t4.5 -20v-43q0 -16 -4.5 -21.5t-20.5 -5.5h-1020q-16 0 -20.5 5t-4.5 22v43z" />
<glyph unicode="`" horiz-adv-x="974" d="M342 1522q-18 23 12 28l123 31q16 2 23.5 -4t11.5 -16l133 -306q8 -16 5 -20t-13 -8l-51 -19q-20 -8 -37 13z" />
<glyph unicode="a" horiz-adv-x="1085" d="M90 313q0 76 26.5 142.5t81 116t136.5 77t194 27.5h273v55q0 51 -10.5 95t-39 75t-79.5 48.5t-133 17.5q-68 0 -149 -13.5t-138 -31.5q-14 -4 -22.5 -3t-12.5 15l-20 74q-6 23 16 30q37 14 80 25.5t89 20t93 11.5t88 3q199 0 294 -88t95 -258v-658q0 -37 -28 -49 q-92 -39 -196.5 -53.5t-201.5 -14.5q-131 0 -215 29t-133 75t-68.5 106.5t-19.5 125.5zM240 313q0 -61 23.5 -102t63.5 -65.5t91 -34t106 -9.5q18 0 50 2t71 6.5t79 13.5t75 21v400h-264q-37 0 -88.5 -6.5t-97.5 -30t-77.5 -69.5t-31.5 -126z" />
<glyph unicode="b" horiz-adv-x="1130" d="M133 80v1390q0 16 7 21.5t22 5.5h94q16 0 21.5 -5t5.5 -22v-421q66 23 149.5 36t147.5 13q119 0 205.5 -41t143 -114t83 -173t26.5 -219q0 -123 -28.5 -228.5t-89 -182.5t-152.5 -120t-219 -43q-92 0 -195.5 14.5t-197.5 53.5q-23 8 -23 35zM283 145q66 -23 138.5 -31 t125.5 -8q74 0 135 25t106.5 77t71 135t25.5 198q0 211 -86 318.5t-236 107.5q-41 0 -121 -10.5t-159 -38.5v-773z" />
<glyph unicode="c" horiz-adv-x="968" d="M92 526q0 133 34 238.5t96.5 179.5t152.5 114t200 40q80 0 154 -16.5t145 -55.5q25 -14 11 -37l-37 -69q-4 -10 -11.5 -14.5t-23.5 3.5q-51 23 -109.5 39.5t-128.5 16.5q-90 0 -152.5 -36t-103 -97.5t-59 -140.5t-18.5 -165q0 -88 16 -164.5t55 -133t104 -89.5t161 -33 q72 0 140 18.5t116 45.5q16 8 23 4t13 -14l33 -72q7 -9 7 -15q0 -3 -1 -5q-4 -8 -14 -17q-78 -41 -166 -57.5t-172 -16.5q-229 0 -347 137.5t-118 411.5z" />
<glyph unicode="d" horiz-adv-x="1128" d="M92 522q0 115 29 219.5t89 183.5t152.5 126t219.5 47q53 0 121.5 -7.5t140.5 -29.5v409q0 16 6 21.5t22 5.5h97q14 0 20 -5t6 -22v-1388q0 -25 -20 -33q-104 -45 -214 -58.5t-202 -13.5q-125 0 -214 38t-145.5 109t-82 171t-25.5 227zM248 522q0 -117 24.5 -196.5 t68.5 -129t106.5 -70t138.5 -20.5q27 0 60.5 3.5t68.5 8.5t68.5 13t60.5 19v776q-84 29 -144.5 36t-107.5 7q-76 0 -138.5 -27t-108.5 -82t-71.5 -139t-25.5 -199z" />
<glyph unicode="e" horiz-adv-x="1091" d="M92 532q0 137 35 243t97.5 177.5t147.5 108.5t187 37q117 0 201 -34t138 -95.5t81 -145.5t27 -184q0 -86 -40 -113.5t-98 -27.5h-624q0 -106 26.5 -181t72.5 -121t108.5 -66.5t134.5 -20.5q68 0 132 16t109 41q25 12 35 -8l37 -72q12 -25 -10 -35q-72 -43 -154 -58.5 t-160 -15.5q-225 0 -354 132.5t-129 422.5zM250 621h612q0 70 -14 133t-48 111t-93.5 77t-147.5 29q-72 0 -128 -28t-95 -75t-60.5 -110.5t-25.5 -136.5z" />
<glyph unicode="f" horiz-adv-x="679" d="M16 979v39q0 25 27 31q10 2 32.5 6t48.5 8t48.5 8t32.5 4v150q0 133 67.5 209.5t223.5 76.5q35 0 88 -4t108 -20q14 -4 16 -11v-7q0 -5 -1 -11l-17 -80q-6 -16 -26 -14q-37 8 -75 11t-67 3q-100 0 -134 -42t-34 -107v-154h277q16 0 20 -6t4 -20v-70q0 -10 -4 -17.5 t-20 -7.5h-277v-929q0 -16 -5 -20.5t-21 -4.5h-95q-16 0 -22 4t-6 21v929h-162q-16 0 -21.5 7.5t-5.5 17.5z" />
<glyph unicode="g" horiz-adv-x="1128" d="M92 524q0 123 29 228.5t88 181.5t152.5 119t220.5 43q92 0 195.5 -13.5t197.5 -52.5q23 -12 22 -35v-919q0 -137 -33.5 -230.5t-98 -155t-160 -95t-216.5 -50.5h-4q-21 0 -26 19l-13 94q0 20 21 23q88 14 157.5 35.5t119 58.5t75 94t25.5 145v13q-66 -23 -149 -36.5 t-144 -13.5q-121 0 -207 41t-142.5 114t-83 173.5t-26.5 218.5zM246 532q0 -211 85 -318.5t236 -107.5q41 0 120 10.5t159 39.5v772q-66 23 -137.5 32t-124.5 9q-74 0 -136.5 -25.5t-106.5 -78t-69.5 -135.5t-25.5 -198z" />
<glyph unicode="h" horiz-adv-x="1136" d="M133 27v1443q0 16 7 21.5t22 5.5h92q16 0 22.5 -5t6.5 -22v-423q74 29 155.5 40t141.5 11q117 0 197.5 -33t130.5 -94.5t74 -149.5t24 -198l-2 -596q0 -16 -6.5 -21.5t-20.5 -5.5h-96q-16 0 -22.5 5t-6.5 22v600q0 174 -71.5 257t-225.5 83q-59 0 -137 -11.5t-135 -37.5 v-891q0 -16 -6.5 -21.5t-22.5 -5.5h-92q-14 0 -21.5 5t-7.5 22z" />
<glyph unicode="i" horiz-adv-x="503" d="M150 1370q0 43 30.5 74t71.5 31q43 0 72.5 -31t29.5 -74t-29.5 -71.5t-72.5 -28.5q-41 0 -71.5 28.5t-30.5 71.5zM176 27v1022q0 16 7 21t22 5h92q16 0 22.5 -5t6.5 -21v-1022q0 -16 -6.5 -21.5t-22.5 -5.5h-92q-14 0 -21.5 5t-7.5 22z" />
<glyph unicode="j" horiz-adv-x="532" d="M-55 -346q-2 4 -2 9q0 12 18 20q76 33 122 77.5t71.5 99t35 116t9.5 128.5v945q0 16 7 21t21 5h97q16 0 21 -5t5 -21v-924q0 -137 -27.5 -234.5t-74.5 -165t-110.5 -108.5t-133.5 -68q-6 -2 -10 -2q-6 0 -10 3q-7 4 -9 14zM172 1370q0 43 29.5 74t72.5 31q41 0 72 -31 t31 -74t-31 -71.5t-72 -28.5q-43 0 -72.5 28.5t-29.5 71.5z" />
<glyph unicode="k" horiz-adv-x="987" d="M131 27v1443q0 16 7 21.5t22 5.5h94q16 0 21.5 -5t5.5 -22v-944l8 -4l450 537q6 8 12.5 12t20.5 4h131q10 0 12.5 -8t-4.5 -14l-276 -332l321 -701q2 -3 2 -7q0 -3 -1 -6q-3 -7 -15 -7h-111q-29 0 -36 20l-263 580l-251 -293v-280q0 -16 -5.5 -21.5t-21.5 -5.5h-94 q-14 0 -21.5 5t-7.5 22z" />
<glyph unicode="l" horiz-adv-x="524" d="M154 174v1296q0 16 6 21.5t22 5.5h94q16 0 22.5 -5t6.5 -22v-1251q0 -59 15.5 -82.5t60.5 -23.5q20 0 38.5 2t35.5 4q23 4 24 -17l10 -67q1 -6 1 -11q0 -6 -2 -10q-3 -6 -17 -12q-35 -14 -74 -18t-69 -4q-98 0 -136 48t-38 146z" />
<glyph unicode="m" horiz-adv-x="1804" d="M137 27v915q0 117 111 135q25 4 55.5 8.5t63 7.5t63.5 4t53 1q125 0 208 -28t147 -89h2q78 53 179 85t212 32q125 0 209 -36t135 -101.5t72.5 -156.5t21.5 -204v-575q0 -16 -5 -20.5t-22 -4.5h-92q-16 0 -22 4t-6 21v544q0 203 -68 299.5t-242 96.5q-31 0 -69.5 -6.5 t-78.5 -17.5t-78 -25.5t-68 -32.5q29 -57 39 -130t10 -171v-557q0 -16 -6.5 -20.5t-22.5 -4.5h-92q-14 0 -20.5 4t-6.5 21v561q0 92 -15.5 162.5t-52 118.5t-100 73t-162.5 25q-25 0 -78 -3.5t-124 -17.5v-917q0 -16 -6.5 -21.5t-22.5 -5.5h-92q-14 0 -21.5 5t-7.5 22z" />
<glyph unicode="n" horiz-adv-x="1136" d="M133 27v915q0 117 111 135q25 4 60.5 8.5t73.5 7.5t73.5 4t60.5 1q131 0 224 -29t152.5 -90t87.5 -159.5t28 -237.5v-555q0 -16 -6.5 -21.5t-22.5 -5.5h-94q-14 0 -21.5 5t-7.5 22v546q0 98 -15.5 172t-54.5 122t-107.5 73t-172.5 25q-25 0 -86.5 -3.5t-132.5 -17.5v-917 q0 -16 -6.5 -21.5t-22.5 -5.5h-92q-14 0 -21.5 5t-7.5 22z" />
<glyph unicode="o" horiz-adv-x="1126" d="M92 537q0 135 35 240.5t98.5 176t149.5 107.5t190 37q229 0 349 -146.5t120 -408.5q0 -274 -123 -420t-352 -146q-227 0 -347 142.5t-120 417.5zM242 543q0 -96 16 -176t53 -139.5t98.5 -92.5t151.5 -33q92 0 154.5 38t99.5 99.5t52.5 139.5t15.5 158q0 84 -14.5 162.5 t-49.5 139t-97.5 96.5t-156.5 36q-86 0 -147.5 -35t-100 -93.5t-57 -136t-18.5 -163.5z" />
<glyph unicode="p" horiz-adv-x="1128" d="M133 -391v1382q0 25 23 33q98 43 205.5 58.5t205.5 15.5q121 0 210 -41t146.5 -115t85 -176t27.5 -225q0 -119 -28.5 -221.5t-88 -178t-148.5 -120t-208 -44.5q-59 0 -131 8.5t-149 30.5v-407q0 -16 -5.5 -20.5t-21.5 -4.5h-94q-14 0 -21.5 4t-7.5 21zM283 150 q86 -29 148.5 -36.5t109.5 -7.5q74 0 136 24t107 76t71 135t26 200q0 121 -25 202.5t-70 132t-106.5 72t-136.5 21.5q-55 0 -130 -11.5t-130 -33.5v-774z" />
<glyph unicode="q" horiz-adv-x="1130" d="M92 524q0 123 29 228.5t89 182.5t152.5 120t219.5 43q92 0 195.5 -14.5t197.5 -53.5q23 -8 22 -35v-1390q0 -16 -6 -21.5t-22 -5.5h-95q-16 0 -22 5t-6 22v422q-33 -10 -71 -19.5t-78 -15.5t-77.5 -10.5t-68.5 -4.5q-121 0 -207 41t-142.5 114t-83 173t-26.5 219z M246 535q0 -211 85 -318.5t238 -107.5q41 0 119 10t158 39v772q-66 23 -136.5 31t-123.5 8q-74 0 -136.5 -24.5t-107.5 -77t-70.5 -135.5t-25.5 -197z" />
<glyph unicode="r" horiz-adv-x="835" d="M152 27v923q0 63 21.5 94t86.5 41q92 12 170 13q240 0 401 -142q8 -8 8 -16q0 -6 -5 -12l-64 -82q-10 -10 -16 -9t-15 7q-57 53 -132 86t-167 33q-29 0 -64.5 -2.5t-76.5 -12.5v-921q0 -16 -6 -21.5t-23 -5.5h-92q-14 0 -20 5t-6 22z" />
<glyph unicode="s" horiz-adv-x="929" d="M71 70q-2 4 -2 8q0 7 5 16l32 70q10 25 39 14q82 -39 169 -56.5t159 -17.5q104 0 170 43t66 129q0 82 -70 129.5t-197 94.5q-88 31 -149.5 61.5t-100 66.5t-56 79t-17.5 102q0 125 92 207t266 82q84 0 162 -13.5t156 -46.5q23 -10 14 -34l-33 -80q-6 -10 -12 -11.5 t-16 2.5q-78 31 -141.5 43.5t-133.5 12.5q-94 0 -150.5 -43t-56.5 -111q0 -39 14.5 -66.5t45 -50t80 -44t118.5 -46.5q68 -25 127.5 -53.5t104.5 -66t71.5 -87.5t26.5 -120q0 -76 -28.5 -133.5t-80 -95.5t-121 -57.5t-151.5 -19.5q-94 0 -199.5 18.5t-187.5 61.5 q-10 3 -15 13z" />
<glyph unicode="t" horiz-adv-x="739" d="M41 979v49q0 14 4 20.5t21 10.5l161 26l29 199q2 18 8 24.5t23 12.5l55 20q5 1 9 1q20 0 20 -23v-244h239q16 0 20.5 -7t4.5 -19v-70q0 -12 -4 -18.5t-21 -6.5h-239v-690q0 -76 30.5 -113.5t118.5 -37.5q25 0 72 4t86 12q16 2 20 -1t7 -13l16 -78q1 -7 1 -12v-5 q-1 -8 -15 -14q-57 -16 -119 -21t-90 -5q-78 0 -131.5 16t-86 50t-47 85t-14.5 121v702h-153q-16 0 -20.5 7.5t-4.5 17.5z" />
<glyph unicode="u" horiz-adv-x="1124" d="M133 481v570q0 16 6 21t23 5h92q16 0 22.5 -5t6.5 -21v-557q0 -100 12 -172t49 -118t103.5 -68.5t175.5 -22.5q25 0 85 3t132 17v918q0 16 6 21t22 5h95q14 0 21 -5t7 -21v-918q0 -115 -112 -135q-29 -4 -65 -8t-72.5 -6t-70.5 -3t-59 -1q-133 0 -224 26.5t-147.5 86 t-82 154.5t-25.5 234z" />
<glyph unicode="v" horiz-adv-x="976" d="M23 1057q-2 5 -2 8q0 10 16 10h115q12 0 16 -4t8 -12l215 -615l98 -311h11l94 307l209 619q4 16 24 16h113q15 0 15 -12q0 -3 -1 -6l-340 -985q-16 -43 -31.5 -61.5t-56.5 -18.5h-67q-35 0 -54.5 15.5t-35.5 62.5z" />
<glyph unicode="w" horiz-adv-x="1443" d="M23 1059q-1 5 -1 8q0 12 15 12h115q12 0 16 -4t8 -14l133 -643l53 -262h11l73 245l166 560q8 27 25.5 48t60.5 21h54q39 0 52 -20.5t23 -53.5l162 -528l84 -285h10l56 285l131 633q4 10 8 14t16 4h113q15 0 15 -12q0 -4 -1 -8l-223 -985q-10 -51 -34.5 -66.5t-55.5 -15.5 h-59q-41 0 -58.5 15.5t-29.5 60.5l-150 483l-86 303h-6l-86 -309l-152 -477q-10 -35 -27.5 -55.5t-58.5 -20.5h-65q-33 0 -53.5 15.5t-30.5 66.5z" />
<glyph unicode="x" horiz-adv-x="929" d="M20 27l359 544l-309 478q-4 6 -4 16t16 10h115q16 0 24 -5t15 -15l233 -377l236 377q6 10 13 15t23 5h111q16 0 17 -9t-3 -13l-315 -475l360 -553q4 -6 4 -15.5t-16 -9.5h-125q-20 0 -26.5 5t-12.5 15l-272 445l-281 -442q-6 -10 -14 -16.5t-25 -6.5h-110q-18 0 -18 12 q0 6 5 15z" />
<glyph unicode="y" horiz-adv-x="980" d="M25 1055q-1 5 -1 8q0 12 15 12h113q14 0 18 -4t8 -14q14 -45 42 -129t58.5 -175t57 -175t43.5 -129q6 -16 19.5 -64.5t29.5 -104t30.5 -104.5t20.5 -65h10q12 37 30 92t35 109.5t30.5 97.5t17.5 53q6 14 25.5 72.5t48.5 142.5t63.5 182t69.5 195q4 10 8 15t19 5h106 q18 0 18 -12q0 -3 -2 -8l-421 -1235q-47 -139 -116 -193.5t-177 -54.5q-29 0 -71 3t-93 19q-29 8 -23 31l21 76q4 14 11 16t20 -2q43 -10 64.5 -13t45.5 -3q33 0 59.5 5t48 20.5t40 43t32.5 72.5l62 168h-35q-23 0 -41 8.5t-33 51.5z" />
<glyph unicode="z" horiz-adv-x="925" d="M35 61v25q0 23 6 45.5t27 44.5l649 770v6h-600q-16 0 -21.5 5.5t-5.5 19.5v72q0 12 5 19t22 7h696q76 0 76 -69v-25q0 -18 -6 -38.5t-23 -39.5l-655 -776l2 -4h655q18 0 23.5 -7t5.5 -18v-71q0 -27 -29 -27h-758q-39 0 -54 17.5t-15 43.5z" />
<glyph unicode="{" horiz-adv-x="710" d="M117 649v68q0 20 22 26q66 16 93.5 67.5t27.5 150.5v202q0 170 83 249t230 83q12 0 15.5 -4t3.5 -12v-82q0 -10 -3 -15.5t-16 -5.5q-86 -4 -123.5 -52t-37.5 -112v-245q0 -98 -34 -172t-108 -109v-6q66 -29 104 -96.5t38 -167.5v-328q0 -66 40 -113t121 -53q12 0 15.5 -4 t3.5 -14v-88q0 -16 -17 -17q-63 2 -120.5 20.5t-100.5 56.5t-68.5 96.5t-25.5 142.5v291q0 100 -28.5 151t-94.5 68q-10 4 -15 8t-5 16z" />
<glyph unicode="|" horiz-adv-x="421" d="M137 -252v1819q0 16 7.5 21t21.5 5h92q16 0 22.5 -5t6.5 -21v-1819q0 -16 -6.5 -21.5t-22.5 -5.5h-92q-14 0 -21.5 5.5t-7.5 21.5z" />
<glyph unicode="}" horiz-adv-x="710" d="M115 -96q0 16 20 18q88 10 124 61.5t36 122.5v310q0 100 38 167.5t103 96.5v6q-66 35 -103.5 99.5t-37.5 162.5v250q0 68 -38 120t-124 58q-18 0 -18 21v82q0 16 20 16q72 -2 130.5 -20.5t98 -58.5t61 -102.5t21.5 -150.5v-202q0 -100 29 -150.5t92 -67.5q25 -6 25 -26 v-68q0 -12 -5 -16t-16 -8q-66 -16 -95.5 -68.5t-29.5 -150.5v-269q0 -168 -86 -251t-227 -87q-18 0 -18 17v88z" />
<glyph unicode="~" d="M135 586q63 86 128 119.5t132 33.5q51 0 106.5 -22.5t110 -48t105.5 -48t94 -22.5q53 0 85 29.5t67 83.5q12 18 34 4l52 -33q20 -12 8 -35q-51 -86 -111.5 -126t-144.5 -40q-51 0 -104.5 21.5t-105.5 47t-102.5 47t-95.5 21.5q-57 0 -98 -26.5t-76 -67.5q-16 -20 -33 -6 l-45 37q-18 14 -6 31z" />
<glyph unicode="&#xa1;" horiz-adv-x="538" d="M158 958q0 49 33.5 84t82.5 35q51 0 84 -33.5t33 -85.5q0 -47 -33.5 -80.5t-83.5 -33.5q-49 0 -82.5 32.5t-33.5 81.5zM188 -350l35 1005q2 29 37 29h37q31 0 31 -25l32 -1009q2 -10 -4 -19.5t-22 -9.5h-117q-16 0 -22.5 9.5t-6.5 19.5z" />
<glyph unicode="&#xa2;" d="M186 524q0 250 114 397.5t312 170.5v200q0 23 21 23h37q23 0 22 -23v-194q74 -4 142.5 -20.5t134.5 -51.5q16 -10 16 -20q0 -8 -6 -17l-35 -71q-8 -14 -18 -15q-4 0 -17 4q-47 23 -101 37t-116 19v-857q63 4 127 20.5t111 41.5q8 6 16 6q12 0 19 -16l32 -72q6 -10 7 -16 q0 -10 -15 -19q-68 -37 -143.5 -53t-153.5 -18v-199q0 -23 -22 -23h-37q-20 0 -21 23v199q-426 25 -426 544zM338 526q0 -82 13.5 -152.5t45 -125.5t83.5 -91t132 -46v845q-74 -12 -126 -52t-84.5 -97t-48 -130t-15.5 -151z" />
<glyph unicode="&#xa3;" d="M147 686v55q0 16 5.5 22.5t21.5 6.5h158q-4 25 -11.5 56.5t-16.5 66.5t-15 68.5t-6 62.5q0 96 32.5 164.5t90 114t136.5 66t171 20.5q80 0 164 -15.5t149 -50.5q10 -4 14 -13.5t-4 -23.5l-32 -65q-10 -20 -37 -11q-49 23 -121 36.5t-131 13.5t-110.5 -13.5t-89.5 -41 t-59.5 -70.5t-21.5 -101q0 -25 6 -59.5t13.5 -71.5t15.5 -71.5t12 -61.5h408q16 0 20 -6t4 -23v-55q0 -16 -4 -23.5t-20 -7.5h-393q4 -25 5 -53.5t1 -56.5q0 -49 -6.5 -103.5t-20.5 -108.5t-40.5 -104.5t-69.5 -91.5h684q16 0 20 -7t4 -21v-80q0 -16 -4 -22.5t-20 -6.5h-836 q-35 0 -48 12.5t-13 34.5v29q0 33 12 48t37 38q94 86 122.5 182t28.5 191v51.5t-4 68.5h-174q-16 0 -21.5 7.5t-5.5 23.5z" />
<glyph unicode="&#xa4;" horiz-adv-x="1067" d="M111 211q-14 18 6 39l106 106q-84 103 -84 246q0 135 80 238l-100 100q-16 16 -2 35l51 51q18 18 33 0l102 -104q47 35 105.5 54t121.5 19q66 0 124.5 -19.5t105.5 -53.5l110 108q18 18 37 2l49 -51q10 -10 10.5 -18.5t-10.5 -18.5l-110 -108q37 -49 58.5 -108.5 t21.5 -125.5q0 -68 -21.5 -128t-58.5 -109l106 -105q25 -20 4 -39l-47 -51q-20 -14 -39 6l-108 107q-49 -35 -107.5 -53.5t-124.5 -18.5q-127 0 -221 65l-108 -110q-10 -10 -19.5 -12t-19.5 10zM279 600q0 -53 19 -99t54 -80t80 -53.5t98 -19.5t99.5 19.5t81 53.5t55 80 t20.5 99q0 51 -19 97t-54 81t-81 54.5t-100 19.5q-53 0 -99 -19.5t-81 -54.5t-54 -81t-19 -97z" />
<glyph unicode="&#xa5;" d="M116 1369q3 7 15 7h117q12 0 19 -3t14 -17l182 -375l129 -283h6l125 283l176 375q8 20 33 20h117q10 0 12 -7t0 -13l-316 -635h277q27 0 27 -29v-49q0 -29 -27 -29h-838q-27 0 -26 29v49q0 14 5 21.5t21 7.5h250l-317 635q-4 6 -1 13zM158 418v49q0 14 5 21.5t21 7.5h838 q27 0 27 -29v-49q0 -29 -27 -29h-354v-364q0 -16 -5.5 -20.5t-21.5 -4.5h-96q-14 0 -20.5 4t-6.5 21v364h-334q-27 0 -26 29z" />
<glyph unicode="&#xa6;" horiz-adv-x="421" d="M137 -252v830q0 16 7.5 21t21.5 5h92q16 0 22.5 -5t6.5 -21v-830q0 -16 -6.5 -21.5t-22.5 -5.5h-92q-14 0 -21.5 5.5t-7.5 21.5zM137 729v832q0 16 7.5 20t21.5 4h92q16 0 22.5 -4t6.5 -20v-832q0 -16 -6.5 -20t-22.5 -4h-92q-14 0 -21.5 4t-7.5 20z" />
<glyph unicode="&#xa7;" horiz-adv-x="1120" d="M135 762q0 74 46 149.5t124 124.5q-35 39 -55.5 85t-20.5 93q0 59 22.5 113.5t69 94.5t118 63.5t169.5 23.5q68 0 147 -12t138 -39q10 -6 13 -13t-3 -20l-31 -65q-8 -20 -32 -10q-45 16 -105.5 28.5t-113.5 12.5q-133 0 -190.5 -45.5t-57.5 -114.5q0 -72 70.5 -136.5 t179.5 -148.5q78 -61 145.5 -116.5t116.5 -110.5t77.5 -112.5t28.5 -123.5q0 -72 -46 -144.5t-124 -121.5q37 -45 60.5 -95t23.5 -99q0 -57 -25.5 -109.5t-75.5 -92.5t-125 -63.5t-173 -23.5q-66 0 -144.5 13t-140.5 42q-23 12 -12 35l33 63q8 20 30 11q47 -18 110.5 -31.5 t117.5 -13.5q133 0 190.5 50t57.5 117q0 66 -68 135.5t-162 143.5q-72 55 -140.5 109.5t-122.5 112t-87 116.5t-33 125zM281 768q0 -41 20.5 -78t59 -78t95 -88t130.5 -106q37 -31 82 -67t73 -58q45 31 74 77t29 93q0 49 -20.5 92t-58.5 86t-94 89.5t-126 103.5 q-45 37 -84 66.5t-62 51.5q-53 -33 -85.5 -82t-32.5 -102z" />
<glyph unicode="&#xa8;" horiz-adv-x="1124" d="M262 1372q0 37 30 65.5t68 28.5q37 0 67 -28.5t30 -65.5q0 -41 -30 -69.5t-67 -28.5q-39 0 -68.5 28.5t-29.5 69.5zM623 1372q0 37 28.5 65.5t69.5 28.5q37 0 66.5 -27.5t29.5 -66.5q0 -41 -29.5 -69.5t-66.5 -28.5q-41 0 -69.5 28.5t-28.5 69.5z" />
<glyph unicode="&#xa9;" horiz-adv-x="1665" d="M94 713q0 158 56.5 294t156 235t235.5 155.5t294 56.5t293 -56.5t234 -155.5t155.5 -235t56.5 -294t-56.5 -293t-155.5 -233.5t-234.5 -155t-292.5 -56.5q-158 0 -294 56.5t-235.5 155t-156 233.5t-56.5 293zM180 713q0 -141 50.5 -262t138.5 -208t207.5 -137.5 t259.5 -50.5q139 0 258.5 50.5t207 137.5t137.5 208t50 262t-50 263t-137.5 210t-207 138t-258.5 50t-259 -50t-208 -138t-138.5 -210t-50.5 -263zM483 692q0 100 26 182t73 140.5t114.5 89.5t151.5 31q78 0 142.5 -24t111.5 -73q12 -14 0 -26l-45 -43q-10 -10 -15.5 -6 t-15.5 12q-39 31 -82 49t-96 18q-68 0 -118 -26.5t-83 -73.5t-48 -111.5t-15 -138.5t16 -137t49 -110.5t82 -74t117 -26.5q72 0 110.5 23.5t67.5 46.5q16 16 31 2l43 -37q18 -16 4 -31q-96 -98 -256 -98q-86 0 -153.5 31.5t-115 90t-72 140.5t-24.5 180z" />
<glyph unicode="&#xaa;" horiz-adv-x="749" d="M53 760q0 104 77 174t232 70h175v28q0 59 -33 96t-133 37q-45 0 -98.5 -8t-92.5 -18q-10 -4 -21.5 -5t-15.5 15l-16 55q-4 14 -1 19.5t19 13.5q47 18 115 27.5t127 9.5q141 0 208 -58.5t67 -173.5v-421q0 -31 -27 -41q-61 -25 -135 -35t-140 -10q-92 0 -151 19t-94 50 t-48.5 72t-13.5 84zM180 760q0 -37 15.5 -59.5t40 -37t57.5 -19.5t67 -5q23 0 75 4t100 19v233h-168q-23 0 -55.5 -3t-61.5 -17.5t-49.5 -41t-20.5 -73.5z" />
<glyph unicode="&#xab;" horiz-adv-x="964" d="M131 500q0 23 9.5 41t19.5 34l202 328q10 14 20.5 22.5t37.5 8.5h86q16 0 22.5 -10.5t-2.5 -24.5l-245 -401l254 -394q10 -16 2.5 -24t-23.5 -8h-88q-29 0 -39 7t-18 23l-213 330q-8 14 -16.5 33.5t-8.5 34.5zM451 500q0 23 9 41t19 34l203 328q10 14 20.5 22.5t34.5 8.5 h86q16 0 22.5 -10.5t-1.5 -24.5l-244 -401l252 -394q10 -16 3 -24t-24 -8h-88q-27 0 -37 7t-18 23l-213 330q-8 14 -16 33.5t-8 34.5z" />
<glyph unicode="&#xac;" d="M106 659v91q0 14 5.5 21t21.5 7h926q16 0 21 -7t5 -21v-525q0 -16 -6 -21t-22 -5h-94q-16 0 -22.5 5t-6.5 21v406h-801q-16 0 -21.5 6t-5.5 22z" />
<glyph unicode="&#xad;" horiz-adv-x="727" d="M102 522v119q0 14 5.5 20.5t21.5 6.5h471q16 0 20.5 -6.5t4.5 -20.5v-119q0 -16 -4.5 -21t-20.5 -5h-471q-16 0 -21.5 5t-5.5 21z" />
<glyph unicode="&#xae;" horiz-adv-x="1126" d="M109 989q0 98 34.5 182t96 146.5t144.5 98.5t181 36q96 0 179 -36t143.5 -98.5t95.5 -146.5t35 -182q0 -96 -36 -180t-97.5 -145.5t-144.5 -97.5t-175 -36q-98 0 -181 36t-144.5 97.5t-96 145.5t-34.5 180zM182 989q0 -82 29 -152.5t80 -122.5t121.5 -83t152.5 -31 q80 0 149.5 31t120 83t80 122.5t29.5 152.5t-28.5 155t-80 125t-121 82.5t-149.5 30.5q-82 0 -152.5 -30.5t-121.5 -82.5t-80 -125t-29 -155zM371 729v504q0 23 9 34t34 11h184q80 0 127 -45t47 -117q0 -43 -23.5 -81t-62.5 -60q31 -12 44 -33.5t20 -50.5l47 -158 q4 -6 1 -14t-18 -8h-43q-16 0 -18 16l-45 152q-12 45 -40 60t-67 15h-118v-225q0 -18 -21 -18h-41q-16 0 -16 18zM449 1020h137q55 0 81.5 26.5t26.5 67.5q0 35 -24.5 63.5t-79.5 28.5h-141v-186z" />
<glyph unicode="&#xaf;" horiz-adv-x="661" d="M63 1227v65q0 16 5.5 22.5t21.5 6.5h485q16 0 20.5 -6t4.5 -23v-65q0 -16 -4 -22.5t-21 -6.5h-485q-16 0 -21.5 6t-5.5 23z" />
<glyph unicode="&#xb0;" horiz-adv-x="755" d="M94 1149q0 61 21.5 112.5t60.5 88t91 57t112 20.5q59 0 110.5 -20.5t89 -57t59 -88t21.5 -112.5q0 -63 -21.5 -114.5t-59 -88.5t-90 -57.5t-111.5 -20.5t-111.5 20.5t-90.5 57.5t-59.5 88t-21.5 115zM193 1149q0 -84 53 -138.5t131 -54.5q80 0 134 54.5t54 138.5 q0 80 -54 134t-132 54q-80 0 -133 -54t-53 -134z" />
<glyph unicode="&#xb1;" d="M109 23v98q0 12 5 17t21 5h926q16 0 20 -5t4 -17v-98q0 -12 -4 -18.5t-20 -6.5h-926q-16 0 -21 6t-5 19zM115 715v88q0 16 5 22t21 6h389v406q0 16 6.5 21.5t20.5 5.5h96q16 0 21.5 -5.5t5.5 -21.5v-406h387q16 0 20.5 -6t4.5 -22v-88q0 -16 -4.5 -22.5t-20.5 -6.5h-387 v-405q0 -16 -5 -20.5t-22 -4.5h-96q-14 0 -20.5 4t-6.5 21v405h-389q-16 0 -21 6t-5 23z" />
<glyph unicode="&#xb2;" horiz-adv-x="776" d="M70 819q0 41 26.5 95.5t85.5 111.5q51 49 107.5 88t103.5 68q82 47 121 80.5t39 83.5q0 59 -51 86.5t-129 27.5q-49 0 -99.5 -16.5t-97.5 -44.5q-12 -8 -24.5 -11.5t-20.5 13.5q-4 4 -16.5 25.5t-14.5 25.5q-12 20 13 39q55 35 124.5 57.5t139.5 22.5q63 0 118.5 -13.5 t96.5 -41t65.5 -68.5t24.5 -96q0 -88 -60.5 -149.5t-162.5 -119.5q-33 -18 -72 -43.5t-75 -56.5t-63.5 -66.5t-39.5 -74.5h444q23 0 26 -6.5t3 -20.5v-53q0 -10 -3 -19.5t-26 -9.5h-471q-53 0 -82.5 15.5t-29.5 70.5z" />
<glyph unicode="&#xb3;" horiz-adv-x="776" d="M55 834l33 49q10 10 18.5 10t24.5 -8q43 -27 102.5 -41.5t112.5 -14.5q104 0 154.5 43t50.5 109q0 57 -48 96t-141 39h-38q-20 0 -32.5 8.5t-12.5 32.5v29q0 23 12 32t31 9h28q78 0 127 31.5t49 93.5q0 33 -16 53t-41 32.5t-54.5 17.5t-58.5 5q-53 0 -104 -13t-98 -36 q-16 -10 -25.5 -12t-17.5 12l-29 51q-6 10 -6 18.5t14 18.5q59 37 135 55.5t150 18.5q57 0 108.5 -13.5t90 -40t60 -66.5t21.5 -91q0 -59 -30.5 -107.5t-87.5 -74.5v-6q72 -23 107.5 -77.5t35.5 -119.5q0 -111 -86 -183.5t-244 -72.5q-78 0 -154.5 16.5t-132.5 57.5 q-23 18 -8 39z" />
<glyph unicode="&#xb4;" horiz-adv-x="905" d="M402.5 1235q-3.5 4 5.5 20l133 306q4 10 11 16t23 4l121 -31q31 -6 13 -28l-207 -301q-14 -20 -37 -13l-49 19q-10 4 -13.5 8z" />
<glyph unicode="&#xb6;" horiz-adv-x="991" d="M106 1069q0 76 28 142.5t77 116.5t115.5 79t146.5 29h176q18 0 19 -17v-694q0 -18 -19 -18h-176q-80 0 -147.5 27.5t-116.5 76.5t-76 114.5t-27 143.5zM481 -209q-4 20 15 25q88 10 141 33.5t80.5 58.5t37 81t9.5 105v1325q0 16 20 17h78q18 0 19 -17v-1323 q0 -90 -15.5 -159.5t-56.5 -118.5t-113.5 -80t-187.5 -39q-18 0 -21 16z" />
<glyph unicode="&#xb7;" horiz-adv-x="526" d="M139 606q0 51 35 86t88 35t88 -34t35 -87t-35 -89t-88 -36t-88 35t-35 90z" />
<glyph unicode="&#xb8;" horiz-adv-x="989" d="M375 -367l14 37q6 14 13.5 14.5t17.5 -3.5q31 -12 64.5 -18.5t62.5 -6.5q59 0 85.5 21.5t26.5 56.5q0 41 -37.5 61.5t-91.5 20.5h-27.5t-17.5 4q-16 4 -16 17t4 28l53 149q4 10 7.5 13.5t15.5 3.5h53q10 0 10 -5.5t-2 -9.5l-43 -127q113 -6 158 -54t45 -103 q0 -29 -12.5 -57.5t-37 -51t-63.5 -38t-94 -15.5q-53 0 -100 10t-76 25q-20 8 -12 28z" />
<glyph unicode="&#xb9;" horiz-adv-x="776" d="M158 762v53q0 16 5 21.5t25 5.5h142v598l-142 -25q-12 -2 -20 2t-8 23v45q0 16 4 23.5t22 11.5l187 47q31 8 57.5 -1.5t26.5 -45.5v-678h143q23 0 28 -5.5t5 -21.5v-53q0 -16 -5 -22.5t-28 -6.5h-412q-20 0 -25 6t-5 23z" />
<glyph unicode="&#xba;" horiz-adv-x="776" d="M55 903q0 180 94.5 276.5t241.5 96.5q160 0 245 -97.5t85 -271.5q0 -180 -86 -277.5t-248 -97.5q-160 0 -246 95.5t-86 275.5zM182 907q0 -57 10.5 -105t35 -84t63.5 -56.5t96 -20.5q59 0 98 22.5t62.5 59.5t34 84t10.5 96q0 51 -9.5 99.5t-32 85t-61 58t-100.5 21.5 q-55 0 -94 -20.5t-64.5 -56t-37 -82.5t-11.5 -101z" />
<glyph unicode="&#xbb;" horiz-adv-x="964" d="M107.5 80q-7.5 8 3.5 24l254 394l-246 401q-8 14 -2 24.5t22 10.5h88q27 0 36 -8t20 -23l204 -328q8 -16 17.5 -34.5t9.5 -40.5q0 -14 -8 -34t-17 -34l-210 -330q-10 -16 -20.5 -23t-37.5 -7h-90q-16 0 -23.5 8zM427.5 80q-7.5 8 2.5 24l254 394l-246 401q-8 14 -2 24.5 t23 10.5h86q27 0 36 -8t19 -23l205 -328q8 -16 17 -34.5t9 -40.5q0 -14 -8 -34t-16 -34l-211 -330q-10 -16 -20.5 -23t-36.5 -7h-88q-16 0 -23.5 8z" />
<glyph unicode="&#xbc;" horiz-adv-x="1802" d="M199 578v53q0 16 5 21t25 5h142v598l-142 -24q-12 -2 -20 2t-8 22v45q0 16 4 23.5t22 11.5l187 47q31 8 57.5 -1t26.5 -46v-678h143q23 0 28 -5t5 -21v-53q0 -16 -5 -22.5t-28 -6.5h-412q-20 0 -25 6t-5 23zM418 -42q-6 5 2 19l837 1430q10 14 15.5 19.5t19.5 5.5h62 q10 0 16 -5.5t-2 -19.5l-842 -1430q-14 -25 -37 -24h-53q-12 0 -18 5zM885 236v20q0 20 5 33.5t21 32.5l404 475q16 20 33.5 31.5t42.5 11.5h39q31 0 44 -13.5t13 -48.5v-491h90q18 0 22.5 -7.5t4.5 -23.5v-43q0 -16 -4.5 -23.5t-22.5 -7.5h-90v-155q0 -18 -8.5 -22.5 t-26.5 -4.5h-59q-16 0 -24.5 4t-8.5 23v153h-418q-23 2 -40 11.5t-17 44.5zM1049 287h311l2 379l-4 2l-309 -373v-8z" />
<glyph unicode="&#xbd;" horiz-adv-x="1802" d="M180 578v53q0 16 5 21t26 5h141v598l-141 -24q-12 -2 -20.5 2t-8.5 22v45q0 16 4 23.5t23 11.5l186 47q31 8 57.5 -1t26.5 -46v-678h144q23 0 27.5 -5t4.5 -21v-53q0 -16 -5 -22.5t-27 -6.5h-412q-20 0 -25.5 6t-5.5 23zM375 -42q-6 5 2 19l837 1430q10 14 15.5 19.5 t19.5 5.5h62q10 0 16 -5.5t-2 -19.5l-842 -1430q-14 -25 -37 -24h-53q-12 0 -18 5zM1008 84q0 41 26.5 95t85.5 112q51 49 107.5 88t103.5 67q82 47 121 81t39 85q0 57 -51 85t-129 28q-49 0 -99.5 -16.5t-97.5 -42.5q-12 -10 -24.5 -12.5t-20.5 14.5q-4 4 -16.5 24.5 t-14.5 24.5q-8 14 -4 22.5t17 18.5q55 35 124.5 56.5t139.5 21.5q63 0 118.5 -13.5t96.5 -41t65.5 -68.5t24.5 -97q0 -88 -60.5 -148t-162.5 -118q-33 -18 -72 -43.5t-75 -56.5t-63.5 -67t-39.5 -74h444q23 0 26 -7.5t3 -21.5v-53q0 -10 -3 -18.5t-26 -8.5h-471 q-53 0 -82.5 15.5t-29.5 68.5z" />
<glyph unicode="&#xbe;" horiz-adv-x="1802" d="M137 649l33 49q10 10 18.5 10.5t24.5 -8.5q43 -27 102.5 -41t112.5 -14q104 0 154.5 43t50.5 109q0 57 -48 96t-141 39h-38q-20 0 -33 8t-13 33v28q0 23 12.5 32t30.5 9h29q78 0 127 32t49 93q0 33 -16.5 53.5t-41 33t-54 17.5t-58.5 5q-53 0 -104 -13.5t-98 -35.5 q-16 -10 -25.5 -12.5t-17.5 12.5l-29 51q-6 10 -6 18.5t14 18.5q59 37 135 55.5t150 18.5q57 0 108 -13.5t90 -40t60.5 -66.5t21.5 -91q0 -59 -30.5 -107.5t-88.5 -75.5v-6q72 -23 108 -77t36 -119q0 -111 -86 -183.5t-244 -72.5q-78 0 -154.5 16t-132.5 57q-23 18 -8 39z M463 -42q-6 5 2 19l838 1430q10 14 15 19.5t19 5.5h62q10 0 16 -5.5t-2 -19.5l-842 -1430q-14 -25 -36 -24h-54q-12 0 -18 5zM954 236v20q0 20 5.5 33.5t21.5 32.5l403 475q16 20 34 31.5t42 11.5h39q31 0 44 -13.5t13 -48.5v-491h91q18 0 22 -7.5t4 -23.5v-43 q0 -16 -4 -23.5t-22 -7.5h-91v-155q0 -18 -8 -22.5t-26 -4.5h-60q-16 0 -24 4t-8 23v153h-418q-23 2 -40.5 11.5t-17.5 44.5zM1118 287h312l2 379l-5 2l-309 -373v-8z" />
<glyph unicode="&#xbf;" horiz-adv-x="1056" d="M106 -35q0 61 20.5 112.5t54.5 96.5t76 84t85 74q39 33 76 64.5t65.5 66.5t46 73.5t19.5 84.5v75q0 10 5 17.5t19 7.5h105q23 0 22 -23v-82q0 -70 -24.5 -124t-62.5 -99t-86 -84t-93 -76q-70 -55 -121 -119.5t-51 -148.5q0 -45 17.5 -85t52.5 -70.5t89 -48t128 -17.5 q78 0 167 26.5t161 84.5q25 16 41 -2l47 -72q12 -18 -9 -37q-90 -72 -203.5 -105.5t-203.5 -33.5q-98 0 -179 23.5t-139.5 68.5t-91.5 112.5t-33 155.5zM506 958q0 51 33.5 85t87.5 34q53 0 87 -33.5t34 -85.5q0 -51 -36 -85.5t-89 -34.5q-16 0 -36 6t-38.5 19.5t-30.5 36.5 t-12 58z" />
<glyph unicode="&#xc0;" horiz-adv-x="1239" d="M31 33l473 1333q16 43 32.5 56.5t57.5 15.5h53q47 0 63.5 -15.5t30.5 -56.5l467 -1333q4 -10 0 -21.5t-20 -11.5h-115q-16 0 -25.5 3t-15.5 24l-108 315h-609q-6 -14 -21 -60t-32.5 -98.5t-33 -97.5t-21.5 -59q-8 -27 -37 -27h-117q-16 0 -21 10t-1 23zM305 1714l72 98 q12 14 21.5 12.5t19.5 -9.5l280 -199q20 -14 7 -31l-31 -47q-14 -16 -39 -6l-326 151q-23 12 -4 31zM358 483h521l-154 469l-100 312h-11l-98 -303z" />
<glyph unicode="&#xc1;" horiz-adv-x="1239" d="M31 33l473 1333q16 43 32.5 56.5t57.5 15.5h53q47 0 63.5 -15.5t30.5 -56.5l467 -1333q4 -10 0 -21.5t-20 -11.5h-115q-16 0 -25.5 3t-15.5 24l-108 315h-609q-6 -14 -21 -60t-32.5 -98.5t-33 -97.5t-21.5 -59q-8 -27 -37 -27h-117q-16 0 -21 10t-1 23zM358 483h521 l-154 469l-100 312h-11l-98 -303zM545 1585q-12 18 6 31l280 199q10 8 19.5 10t19.5 -13l74 -98q16 -20 -4 -31l-326 -151q-16 -6 -23 -5t-16 11z" />
<glyph unicode="&#xc2;" horiz-adv-x="1239" d="M31 33l473 1333q16 43 32.5 56.5t57.5 15.5h53q47 0 63.5 -15.5t30.5 -56.5l467 -1333q4 -10 0 -21.5t-20 -11.5h-115q-16 0 -25.5 3t-15.5 24l-108 315h-609q-6 -14 -21 -60t-32.5 -98.5t-33 -97.5t-21.5 -59q-8 -27 -37 -27h-117q-16 0 -21 10t-1 23zM295 1563 q-12 16 2 28l246 199q41 33 73 33q16 0 36 -5.5t44 -27.5l240 -201q18 -16 2 -35l-25 -28q-8 -10 -16 -7t-20 9l-261 143l-258 -145q-20 -10 -34 4zM358 483h521l-154 469l-100 312h-11l-98 -303z" />
<glyph unicode="&#xc3;" horiz-adv-x="1239" d="M31 33l473 1333q16 43 32.5 56.5t57.5 15.5h53q47 0 63.5 -15.5t30.5 -56.5l467 -1333q4 -10 0 -21.5t-20 -11.5h-115q-16 0 -25.5 3t-15.5 24l-108 315h-609q-6 -14 -21 -60t-32.5 -98.5t-33 -97.5t-21.5 -59q-8 -27 -37 -27h-117q-16 0 -21 10t-1 23zM274.5 1585 q-4.5 6 1.5 19q37 61 90.5 96t118.5 35q35 0 71 -13.5t69.5 -29t64.5 -27.5t60 -12q70 0 102 61q6 14 11 16.5t20 -1.5l59 -19q29 -10 19 -27q-37 -72 -85 -107.5t-118 -35.5q-39 0 -75 12.5t-69.5 27.5t-66.5 27.5t-66 12.5q-31 0 -58.5 -16.5t-43.5 -44.5 q-6 -10 -13.5 -13.5t-21.5 4.5l-51 23q-14 6 -18.5 12zM358 483h521l-154 469l-100 312h-11l-98 -303z" />
<glyph unicode="&#xc4;" horiz-adv-x="1239" d="M31 33l473 1333q16 43 32.5 56.5t57.5 15.5h53q47 0 63.5 -15.5t30.5 -56.5l467 -1333q4 -10 0 -21.5t-20 -11.5h-115q-16 0 -25.5 3t-15.5 24l-108 315h-609q-6 -14 -21 -60t-32.5 -98.5t-33 -97.5t-21.5 -59q-8 -27 -37 -27h-117q-16 0 -21 10t-1 23zM340 1634 q0 37 29.5 66t68.5 29q37 0 67 -29t30 -66q0 -41 -30 -69.5t-67 -28.5q-39 0 -68.5 28.5t-29.5 69.5zM358 483h521l-154 469l-100 312h-11l-98 -303zM700 1634q0 37 29 66t70 29q37 0 66.5 -28t29.5 -67q0 -41 -29.5 -69.5t-66.5 -28.5q-41 0 -70 28.5t-29 69.5z" />
<glyph unicode="&#xc5;" horiz-adv-x="1239" d="M31 33l473 1333q16 43 32.5 56.5t57.5 15.5h53q47 0 63.5 -15.5t30.5 -56.5l467 -1333q4 -10 0 -21.5t-20 -11.5h-115q-16 0 -25.5 3t-15.5 24l-108 315h-609q-6 -14 -21 -60t-32.5 -98.5t-33 -97.5t-21.5 -59q-8 -27 -37 -27h-117q-16 0 -21 10t-1 23zM358 483h521 l-154 469l-100 312h-11l-98 -303zM432 1663q0 39 14.5 71.5t40 57.5t60.5 38t74 13q80 0 134 -51t54 -129t-54.5 -129t-133.5 -51q-78 0 -133.5 50t-55.5 130zM512 1663q0 -47 31.5 -77t77.5 -30q47 0 77.5 30t30.5 77t-30.5 76.5t-77.5 29.5t-78 -29.5t-31 -76.5z" />
<glyph unicode="&#xc6;" horiz-adv-x="1722" d="M31 18l401 1172q41 123 117 184.5t215 61.5h840q16 0 21 -7.5t5 -21.5v-86q0 -16 -5 -22.5t-21 -6.5h-504q-98 0 -142.5 -45t-44.5 -137v-281h629q16 0 21.5 -6t5.5 -22v-80q0 -14 -5 -21.5t-22 -7.5h-629v-368q0 -80 41 -130.5t146 -50.5h522q16 0 21.5 -6t5.5 -22v-88 q0 -14 -5.5 -20.5t-21.5 -6.5h-537q-92 0 -155.5 25.5t-102.5 71.5t-55 108.5t-14 138.5h-453l-106 -324q-8 -20 -31 -20h-121q-25 0 -16 18zM344 473h414v625q0 63 12 117.5t41 82.5q-109 0 -162 -28.5t-78 -102.5l-51 -149z" />
<glyph unicode="&#xc7;" horiz-adv-x="1204" d="M113 696q0 174 44 314.5t124.5 239t193.5 151.5t250 53q88 0 182 -16.5t199 -69.5q10 -4 14 -13t-6 -28l-39 -78q-6 -10 -12 -14t-21 2q-78 37 -155.5 53.5t-155.5 16.5q-121 0 -207 -51.5t-141 -135.5t-82 -194.5t-27 -229.5q0 -123 24 -227t79 -181t144 -120t218 -43 q92 0 176 21.5t162 58.5q20 8 28.5 2t12.5 -17l33 -71q10 -20 7 -28.5t-15 -16.5q-98 -57 -208 -75.5t-202 -21.5l-28 -88q113 -6 157.5 -54t44.5 -103q0 -29 -12 -57.5t-36.5 -51t-63.5 -38t-95 -15.5q-53 0 -100 10t-76 25q-20 8 -12 28l14 37q6 14 13.5 14.5t17.5 -3.5 q31 -12 64.5 -18.5t62.5 -6.5q59 0 86 21.5t27 56.5q0 41 -38 61.5t-91 20.5h-27.5t-17.5 4q-16 4 -16.5 17t3.5 28l41 115q-254 16 -396 190t-142 526z" />
<glyph unicode="&#xc8;" horiz-adv-x="1161" d="M154 338v758q0 70 18 132t58 108t103.5 73t153.5 27h555q20 0 26.5 -9.5t6.5 -27.5v-72q0 -20 -6 -27.5t-27 -7.5h-553q-94 0 -136 -43t-42 -131v-287h666q18 0 24.5 -7t6.5 -27v-68q0 -16 -6.5 -25.5t-24.5 -9.5h-666v-377q0 -78 40 -125t138 -47h568q20 0 26.5 -8 t6.5 -28v-72q0 -18 -6.5 -27.5t-26.5 -9.5h-570q-96 0 -160.5 26.5t-102.5 72.5t-54 107.5t-16 131.5zM381 1714l72 98q12 14 21 12.5t20 -9.5l280 -199q20 -14 6 -31l-30 -47q-14 -16 -39 -6l-326 151q-23 12 -4 31z" />
<glyph unicode="&#xc9;" horiz-adv-x="1161" d="M154 338v758q0 70 18 132t58 108t103.5 73t153.5 27h555q20 0 26.5 -9.5t6.5 -27.5v-72q0 -20 -6 -27.5t-27 -7.5h-553q-94 0 -136 -43t-42 -131v-287h666q18 0 24.5 -7t6.5 -27v-68q0 -16 -6.5 -25.5t-24.5 -9.5h-666v-377q0 -78 40 -125t138 -47h568q20 0 26.5 -8 t6.5 -28v-72q0 -18 -6.5 -27.5t-26.5 -9.5h-570q-96 0 -160.5 26.5t-102.5 72.5t-54 107.5t-16 131.5zM532 1585q-12 18 7 31l280 199q10 8 19.5 10t19.5 -13l74 -98q16 -20 -4 -31l-326 -151q-16 -6 -23.5 -5t-15.5 11z" />
<glyph unicode="&#xca;" horiz-adv-x="1161" d="M154 338v758q0 70 18 132t58 108t103.5 73t153.5 27h555q20 0 26.5 -9.5t6.5 -27.5v-72q0 -20 -6 -27.5t-27 -7.5h-553q-94 0 -136 -43t-42 -131v-287h666q18 0 24.5 -7t6.5 -27v-68q0 -16 -6.5 -25.5t-24.5 -9.5h-666v-377q0 -78 40 -125t138 -47h568q20 0 26.5 -8 t6.5 -28v-72q0 -18 -6.5 -27.5t-26.5 -9.5h-570q-96 0 -160.5 26.5t-102.5 72.5t-54 107.5t-16 131.5zM324 1563q-12 16 2 28l245 199q41 33 74 33q16 0 35.5 -5.5t44.5 -27.5l240 -201q18 -16 2 -35l-25 -28q-8 -10 -16 -7t-21 9l-260 143l-258 -145q-20 -10 -35 4z" />
<glyph unicode="&#xcb;" horiz-adv-x="1161" d="M154 338v758q0 70 18 132t58 108t103.5 73t153.5 27h555q20 0 26.5 -9.5t6.5 -27.5v-72q0 -20 -6 -27.5t-27 -7.5h-553q-94 0 -136 -43t-42 -131v-287h666q18 0 24.5 -7t6.5 -27v-68q0 -16 -6.5 -25.5t-24.5 -9.5h-666v-377q0 -78 40 -125t138 -47h568q20 0 26.5 -8 t6.5 -28v-72q0 -18 -6.5 -27.5t-26.5 -9.5h-570q-96 0 -160.5 26.5t-102.5 72.5t-54 107.5t-16 131.5zM375 1636q0 37 29.5 66t68.5 29q37 0 66.5 -29t29.5 -66q0 -41 -29.5 -69.5t-66.5 -28.5q-39 0 -68.5 28.5t-29.5 69.5zM735 1636q0 37 29 66t70 29q37 0 66.5 -28 t29.5 -67q0 -41 -30 -69.5t-66 -28.5q-41 0 -70 28.5t-29 69.5z" />
<glyph unicode="&#xcc;" horiz-adv-x="530" d="M-68 1714l72 98q12 14 21.5 12.5t19.5 -9.5l281 -199q20 -14 6 -31l-31 -47q-14 -16 -39 -6l-325 151q-23 12 -5 31zM184 27v1380q0 16 6.5 21.5t22.5 5.5h102q16 0 22.5 -5.5t6.5 -21.5v-1380q0 -16 -6 -21.5t-23 -5.5h-102q-16 0 -22.5 5t-6.5 22z" />
<glyph unicode="&#xcd;" horiz-adv-x="530" d="M184 27v1380q0 16 6.5 21.5t22.5 5.5h102q16 0 22.5 -5.5t6.5 -21.5v-1380q0 -16 -6 -21.5t-23 -5.5h-102q-16 0 -22.5 5t-6.5 22zM217 1585q-12 18 6 31l281 199q10 8 19 10t20 -13l73 -98q16 -20 -4 -31l-325 -151q-16 -6 -23.5 -5t-15.5 11z" />
<glyph unicode="&#xce;" horiz-adv-x="530" d="M-53 1563q-12 16 2 28l246 199q41 33 73 33q16 0 36 -5.5t44 -27.5l240 -201q18 -16 2 -35l-25 -28q-8 -10 -16 -7t-21 9l-260 143l-258 -145q-20 -10 -35 4zM184 27v1380q0 16 6.5 21.5t22.5 5.5h102q16 0 22.5 -5.5t6.5 -21.5v-1380q0 -16 -6 -21.5t-23 -5.5h-102 q-16 0 -22.5 5t-6.5 22z" />
<glyph unicode="&#xcf;" horiz-adv-x="530" d="M-6 1636q0 37 29.5 66t68.5 29q37 0 66.5 -29t29.5 -66q0 -41 -29.5 -69.5t-66.5 -28.5q-39 0 -68.5 28.5t-29.5 69.5zM184 27v1380q0 16 6.5 21.5t22.5 5.5h102q16 0 22.5 -5.5t6.5 -21.5v-1380q0 -16 -6 -21.5t-23 -5.5h-102q-16 0 -22.5 5t-6.5 22zM354 1636 q0 37 29 66t70 29q37 0 66.5 -28t29.5 -67q0 -41 -30 -69.5t-66 -28.5q-41 0 -70 28.5t-29 69.5z" />
<glyph unicode="&#xd0;" horiz-adv-x="1366" d="M16 698v74q0 14 5.5 20.5t21.5 6.5h111v540q0 47 20.5 72t75.5 25l360 2q160 0 280 -49.5t200.5 -142.5t121.5 -225t41 -294t-37.5 -296t-114.5 -229.5t-195 -148.5t-275 -53h-381q-51 0 -73.5 21.5t-22.5 72.5v576h-111q-16 0 -21.5 6t-5.5 22zM315 145h295 q135 0 226.5 44t146.5 121t79.5 182.5t24.5 230.5q0 117 -24.5 220.5t-80.5 181t-150.5 122.5t-231.5 45h-285v-493h371q16 0 21.5 -6.5t5.5 -20.5v-74q0 -16 -5.5 -22t-21.5 -6h-371v-525z" />
<glyph unicode="&#xd1;" horiz-adv-x="1392" d="M154 27v1319q0 45 18 67.5t70 22.5h45q39 0 56 -16.5t42 -57.5l516 -844l174 -295h8v1186q0 16 6.5 21.5t22.5 5.5h98q14 0 21.5 -5.5t7.5 -21.5v-1319q0 -43 -17.5 -66.5t-68.5 -23.5h-47q-41 0 -58.5 17.5t-41.5 58.5l-535 872l-156 262h-6v-1183q0 -16 -6 -21.5 t-22 -5.5h-99q-14 0 -21 5t-7 22zM387.5 1603.5q-4.5 6.5 1.5 18.5q37 61 90 96t119 35q35 0 71 -13.5t69.5 -28.5t64.5 -27.5t59 -12.5q70 0 103 62q6 14 11 16t19 -2l60 -18q29 -10 18 -27q-37 -72 -85 -107.5t-118 -35.5q-39 0 -74.5 12t-69.5 27.5t-66.5 27.5t-65.5 12 q-31 0 -58.5 -16t-43.5 -45q-6 -10 -13.5 -13t-21.5 5l-51 22q-14 6 -18.5 12.5z" />
<glyph unicode="&#xd2;" horiz-adv-x="1425" d="M113 715q0 178 44 316t122.5 232.5t189.5 143.5t244 49q297 0 448.5 -194.5t151.5 -540.5q0 -358 -152.5 -551t-451.5 -193q-152 0 -263.5 50.5t-185.5 145.5t-110.5 232.5t-36.5 309.5zM270 721q0 -129 21.5 -238.5t73 -190.5t135.5 -127t211 -46q125 0 210 49t136 132 t72.5 190.5t21.5 224.5t-19.5 225.5t-68.5 191t-133 133t-213 50.5q-117 0 -202 -48t-139 -129t-80 -189.5t-26 -227.5zM442 1714l72 98q12 14 21.5 12.5t19.5 -9.5l281 -199q20 -14 6 -31l-31 -47q-14 -16 -39 -6l-326 151q-23 12 -4 31z" />
<glyph unicode="&#xd3;" horiz-adv-x="1425" d="M113 715q0 178 44 316t122.5 232.5t189.5 143.5t244 49q297 0 448.5 -194.5t151.5 -540.5q0 -358 -152.5 -551t-451.5 -193q-152 0 -263.5 50.5t-185.5 145.5t-110.5 232.5t-36.5 309.5zM270 721q0 -129 21.5 -238.5t73 -190.5t135.5 -127t211 -46q125 0 210 49t136 132 t72.5 190.5t21.5 224.5t-19.5 225.5t-68.5 191t-133 133t-213 50.5q-117 0 -202 -48t-139 -129t-80 -189.5t-26 -227.5zM616 1585q-12 18 7 31l280 199q10 8 19.5 10t19.5 -13l74 -98q16 -20 -4 -31l-326 -151q-16 -6 -23.5 -5t-15.5 11z" />
<glyph unicode="&#xd4;" horiz-adv-x="1425" d="M113 715q0 178 44 316t122.5 232.5t189.5 143.5t244 49q297 0 448.5 -194.5t151.5 -540.5q0 -358 -152.5 -551t-451.5 -193q-152 0 -263.5 50.5t-185.5 145.5t-110.5 232.5t-36.5 309.5zM270 721q0 -129 21.5 -238.5t73 -190.5t135.5 -127t211 -46q125 0 210 49t136 132 t72.5 190.5t21.5 224.5t-19.5 225.5t-68.5 191t-133 133t-213 50.5q-117 0 -202 -48t-139 -129t-80 -189.5t-26 -227.5zM391 1563q-12 16 2 28l246 199q41 33 74 33q16 0 35.5 -5.5t44.5 -27.5l239 -201q18 -16 2 -35l-24 -28q-8 -10 -16.5 -7t-20.5 9l-260 143l-258 -145 q-20 -10 -35 4z" />
<glyph unicode="&#xd5;" horiz-adv-x="1425" d="M113 715q0 178 44 316t122.5 232.5t189.5 143.5t244 49q297 0 448.5 -194.5t151.5 -540.5q0 -358 -152.5 -551t-451.5 -193q-152 0 -263.5 50.5t-185.5 145.5t-110.5 232.5t-36.5 309.5zM270 721q0 -129 21.5 -238.5t73 -190.5t135.5 -127t211 -46q125 0 210 49t136 132 t72.5 190.5t21.5 224.5t-19.5 225.5t-68.5 191t-133 133t-213 50.5q-117 0 -202 -48t-139 -129t-80 -189.5t-26 -227.5zM373 1605.5q-4 6.5 2 18.5q37 61 90 96t119 35q35 0 70.5 -13t69.5 -28.5t64.5 -28t59.5 -12.5q70 0 102 62q6 14 11.5 16t19.5 -2l59 -18 q29 -10 19 -27q-37 -72 -85 -107.5t-118 -35.5q-39 0 -75 12t-69.5 27.5t-66.5 27.5t-65 12q-31 0 -58.5 -16t-44.5 -45q-6 -10 -13 -13t-22 5l-51 22q-14 6 -18 12.5z" />
<glyph unicode="&#xd6;" horiz-adv-x="1425" d="M113 715q0 178 44 316t122.5 232.5t189.5 143.5t244 49q297 0 448.5 -194.5t151.5 -540.5q0 -358 -152.5 -551t-451.5 -193q-152 0 -263.5 50.5t-185.5 145.5t-110.5 232.5t-36.5 309.5zM270 721q0 -129 21.5 -238.5t73 -190.5t135.5 -127t211 -46q125 0 210 49t136 132 t72.5 190.5t21.5 224.5t-19.5 225.5t-68.5 191t-133 133t-213 50.5q-117 0 -202 -48t-139 -129t-80 -189.5t-26 -227.5zM440 1642q0 37 30 66t69 29q37 0 66.5 -29t29.5 -66q0 -41 -30 -69.5t-66 -28.5q-39 0 -69 29t-30 69zM801 1642q0 37 28.5 66t69.5 29q37 0 66.5 -28 t29.5 -67q0 -41 -29.5 -69.5t-66.5 -28.5q-41 0 -69.5 29t-28.5 69z" />
<glyph unicode="&#xd7;" d="M136 340q-1 8 11 20l345 345l-340 339q-10 10 -9.5 18.5t11.5 18.5l63 66q10 10 18.5 11t20.5 -9l340 -342l344 346q10 10 19.5 9t19.5 -11l65 -68q10 -10 11.5 -18t-8.5 -18l-347 -345l340 -340q20 -18 -2 -36l-61 -66q-20 -20 -39 -2l-340 340l-344 -344q-20 -20 -39 0 l-68 68q-10 10 -11 18z" />
<glyph unicode="&#xd8;" horiz-adv-x="1425" d="M113 715q0 178 44 316t122.5 232.5t189.5 143.5t244 49q127 0 225 -37t172 -106l107 141q14 20 34 4l33 -24q10 -10 10 -15.5t-8 -17.5l-117 -152q72 -94 108 -227t36 -301q0 -358 -152.5 -551t-451.5 -193q-129 0 -227.5 36t-170.5 104l-92 -121q-10 -12 -16 -11t-17 9 l-32 20q-16 10 -2 33l100 135q-70 94 -104.5 228.5t-34.5 304.5zM270 721q0 -121 19.5 -224.5t66.5 -183.5l662 877q-49 59 -123 92t-178 33q-117 0 -202 -48t-139 -129t-80 -189.5t-26 -227.5zM403 242q53 -59 130 -91t182 -32q125 0 209 49t135 132t71.5 190.5t20.5 224.5 q0 113 -17.5 217t-62.5 186z" />
<glyph unicode="&#xd9;" horiz-adv-x="1384" d="M154 612v795q0 16 4 21.5t14 5.5h121q10 0 15 -5.5t5 -21.5v-782q0 -133 16.5 -229.5t65.5 -158t140.5 -91t240.5 -29.5q35 0 119 5t180 23v1262q0 16 4 21.5t15 5.5h120q10 0 13.5 -5.5t3.5 -21.5v-1247q0 -63 -27.5 -103.5t-103.5 -54.5q-78 -14 -171 -20.5t-159 -6.5 q-170 0 -287.5 31t-190.5 104.5t-105.5 195.5t-32.5 306zM434 1714l72 98q12 14 21.5 12.5t19.5 -9.5l280 -199q20 -14 7 -31l-31 -47q-14 -16 -39 -6l-326 151q-23 12 -4 31z" />
<glyph unicode="&#xda;" horiz-adv-x="1384" d="M154 612v795q0 16 4 21.5t14 5.5h121q10 0 15 -5.5t5 -21.5v-782q0 -133 16.5 -229.5t65.5 -158t140.5 -91t240.5 -29.5q35 0 119 5t180 23v1262q0 16 4 21.5t15 5.5h120q10 0 13.5 -5.5t3.5 -21.5v-1247q0 -63 -27.5 -103.5t-103.5 -54.5q-78 -14 -171 -20.5t-159 -6.5 q-170 0 -287.5 31t-190.5 104.5t-105.5 195.5t-32.5 306zM575 1585q-12 18 7 31l280 199q10 8 19.5 10t19.5 -13l74 -98q16 -20 -4 -31l-326 -151q-16 -6 -23.5 -5t-15.5 11z" />
<glyph unicode="&#xdb;" horiz-adv-x="1384" d="M154 612v795q0 16 4 21.5t14 5.5h121q10 0 15 -5.5t5 -21.5v-782q0 -133 16.5 -229.5t65.5 -158t140.5 -91t240.5 -29.5q35 0 119 5t180 23v1262q0 16 4 21.5t15 5.5h120q10 0 13.5 -5.5t3.5 -21.5v-1247q0 -63 -27.5 -103.5t-103.5 -54.5q-78 -14 -171 -20.5t-159 -6.5 q-170 0 -287.5 31t-190.5 104.5t-105.5 195.5t-32.5 306zM377 1563q-12 16 2 28l246 199q41 33 73 33q16 0 36 -5.5t44 -27.5l240 -201q18 -16 2 -35l-25 -28q-8 -10 -16 -7t-21 9l-260 143l-258 -145q-20 -10 -34 4z" />
<glyph unicode="&#xdc;" horiz-adv-x="1384" d="M154 612v795q0 16 4 21.5t14 5.5h121q10 0 15 -5.5t5 -21.5v-782q0 -133 16.5 -229.5t65.5 -158t140.5 -91t240.5 -29.5q35 0 119 5t180 23v1262q0 16 4 21.5t15 5.5h120q10 0 13.5 -5.5t3.5 -21.5v-1247q0 -63 -27.5 -103.5t-103.5 -54.5q-78 -14 -171 -20.5t-159 -6.5 q-170 0 -287.5 31t-190.5 104.5t-105.5 195.5t-32.5 306zM422 1626q0 37 29.5 65.5t68.5 28.5q37 0 66.5 -28.5t29.5 -65.5q0 -41 -29.5 -69.5t-66.5 -28.5q-39 0 -68.5 28.5t-29.5 69.5zM782 1626q0 37 29 65.5t70 28.5q37 0 66.5 -27.5t29.5 -66.5q0 -41 -29.5 -69.5 t-66.5 -28.5q-41 0 -70 28.5t-29 69.5z" />
<glyph unicode="&#xdd;" horiz-adv-x="1118" d="M24 1428.5q3 7.5 15 7.5h127q25 0 35 -23l202 -379l158 -307h8l164 317l197 369q10 23 35 23h118q10 0 12.5 -8.5t0.5 -12.5l-455 -833v-555q0 -16 -5 -21.5t-22 -5.5h-98q-16 0 -22.5 5t-6.5 22v553l-462 835q-4 6 -1 13.5zM487 1585q-12 18 7 31l280 199q10 8 19.5 10 t19.5 -13l74 -98q16 -20 -4 -31l-326 -151q-16 -6 -23.5 -5t-15.5 11z" />
<glyph unicode="&#xde;" horiz-adv-x="1218" d="M154 20v1387q0 16 6 21.5t20 5.5h105q16 0 22 -5.5t6 -21.5v-223h408q94 0 173 -31t136 -86t88 -132t31 -169q0 -51 -17.5 -125t-66.5 -141.5t-136 -114.5t-227 -47h-387q0 -78 -1 -156t-1 -155q0 -27 -22 -27h-115q-16 0 -19 7t-3 13zM315 477h369q141 0 221 73t80 208 q0 45 -14.5 95t-49 91t-93 67.5t-146.5 26.5h-367v-561z" />
<glyph unicode="&#xdf;" horiz-adv-x="1122" d="M135 1028q0 109 29 193t82 142t130 88t169 30q106 0 182 -32t124 -83t70.5 -115.5t22.5 -128.5q0 -31 -8 -72.5t-27.5 -82.5t-54.5 -78t-86 -58v-4q61 -16 109.5 -55t82 -93t52 -118.5t18.5 -128.5q0 -117 -38 -206t-104.5 -149.5t-155.5 -91t-193 -30.5q-14 0 -19.5 3 t-5.5 15v76q0 23 23 23q74 0 136 22.5t108 67.5t72 109.5t26 150.5q0 61 -17.5 120.5t-54.5 105.5t-94.5 75t-139.5 29q-55 0 -55 47v28q0 53 51 54q59 0 101.5 18.5t70 51t41 73.5t13.5 88q0 43 -14.5 86t-44 79t-77 58.5t-114.5 22.5q-78 0 -128 -30t-79 -75t-41 -99 t-12 -103v-1024q0 -16 -5.5 -21.5t-21.5 -5.5h-94q-14 0 -20.5 5t-6.5 22z" />
<glyph unicode="&#xe0;" horiz-adv-x="1085" d="M90 313q0 76 26.5 142.5t81 116t136.5 77t194 27.5h273v55q0 51 -10.5 95t-39 75t-79.5 48.5t-133 17.5q-68 0 -149 -13.5t-138 -31.5q-14 -4 -22.5 -3t-12.5 15l-20 74q-6 23 16 30q37 14 80 25.5t89 20t93 11.5t88 3q199 0 294 -88t95 -258v-658q0 -37 -28 -49 q-92 -39 -196.5 -53.5t-201.5 -14.5q-131 0 -215 29t-133 75t-68.5 106.5t-19.5 125.5zM240 313q0 -61 23.5 -102t63.5 -65.5t91 -34t106 -9.5q18 0 50 2t71 6.5t79 13.5t75 21v400h-264q-37 0 -88.5 -6.5t-97.5 -30t-77.5 -69.5t-31.5 -126zM342 1522q-18 23 12 28l123 31 q16 2 23.5 -4t11.5 -16l133 -306q8 -16 5 -20t-13 -8l-51 -19q-20 -8 -37 13z" />
<glyph unicode="&#xe1;" horiz-adv-x="1085" d="M90 313q0 76 26.5 142.5t81 116t136.5 77t194 27.5h273v55q0 51 -10.5 95t-39 75t-79.5 48.5t-133 17.5q-68 0 -149 -13.5t-138 -31.5q-14 -4 -22.5 -3t-12.5 15l-20 74q-6 23 16 30q37 14 80 25.5t89 20t93 11.5t88 3q199 0 294 -88t95 -258v-658q0 -37 -28 -49 q-92 -39 -196.5 -53.5t-201.5 -14.5q-131 0 -215 29t-133 75t-68.5 106.5t-19.5 125.5zM240 313q0 -61 23.5 -102t63.5 -65.5t91 -34t106 -9.5q18 0 50 2t71 6.5t79 13.5t75 21v400h-264q-37 0 -88.5 -6.5t-97.5 -30t-77.5 -69.5t-31.5 -126zM466 1235q-3 4 5 20l133 306 q4 10 11.5 16t23.5 4l121 -31q31 -6 12 -28l-207 -301q-14 -20 -37 -13l-49 19q-10 4 -13 8z" />
<glyph unicode="&#xe2;" horiz-adv-x="1085" d="M90 313q0 76 26.5 142.5t81 116t136.5 77t194 27.5h273v55q0 51 -10.5 95t-39 75t-79.5 48.5t-133 17.5q-68 0 -149 -13.5t-138 -31.5q-14 -4 -22.5 -3t-12.5 15l-20 74q-6 23 16 30q37 14 80 25.5t89 20t93 11.5t88 3q199 0 294 -88t95 -258v-658q0 -37 -28 -49 q-92 -39 -196.5 -53.5t-201.5 -14.5q-131 0 -215 29t-133 75t-68.5 106.5t-19.5 125.5zM236 1266l256 258q37 37 73 37q25 0 41.5 -7.5t38.5 -29.5l244 -256q20 -20 2 -39l-29 -27q-16 -10 -37 2l-260 203l-260 -205q-18 -12 -37 4l-30 33q-14 12 -2 27zM240 313 q0 -61 23.5 -102t63.5 -65.5t91 -34t106 -9.5q18 0 50 2t71 6.5t79 13.5t75 21v400h-264q-37 0 -88.5 -6.5t-97.5 -30t-77.5 -69.5t-31.5 -126z" />
<glyph unicode="&#xe3;" horiz-adv-x="1085" d="M90 313q0 76 26.5 142.5t81 116t136.5 77t194 27.5h273v55q0 51 -10.5 95t-39 75t-79.5 48.5t-133 17.5q-68 0 -149 -13.5t-138 -31.5q-14 -4 -22.5 -3t-12.5 15l-20 74q-6 23 16 30q37 14 80 25.5t89 20t93 11.5t88 3q199 0 294 -88t95 -258v-658q0 -37 -28 -49 q-92 -39 -196.5 -53.5t-201.5 -14.5q-131 0 -215 29t-133 75t-68.5 106.5t-19.5 125.5zM213 1329q-4 6 2 19q37 61 90 96t119 35q35 0 70.5 -13.5t69.5 -29t64.5 -27.5t59.5 -12q70 0 103 61q6 14 11 16.5t19 -1.5l60 -19q29 -10 18 -27q-37 -72 -85 -107.5t-118 -35.5 q-39 0 -74.5 12.5t-69.5 27.5t-66.5 27.5t-65.5 12.5q-31 0 -58.5 -16.5t-44.5 -44.5q-6 -10 -13 -13.5t-21 4.5l-52 23q-14 6 -18 12zM240 313q0 -61 23.5 -102t63.5 -65.5t91 -34t106 -9.5q18 0 50 2t71 6.5t79 13.5t75 21v400h-264q-37 0 -88.5 -6.5t-97.5 -30 t-77.5 -69.5t-31.5 -126z" />
<glyph unicode="&#xe4;" horiz-adv-x="1085" d="M90 313q0 76 26.5 142.5t81 116t136.5 77t194 27.5h273v55q0 51 -10.5 95t-39 75t-79.5 48.5t-133 17.5q-68 0 -149 -13.5t-138 -31.5q-14 -4 -22.5 -3t-12.5 15l-20 74q-6 23 16 30q37 14 80 25.5t89 20t93 11.5t88 3q199 0 294 -88t95 -258v-658q0 -37 -28 -49 q-92 -39 -196.5 -53.5t-201.5 -14.5q-131 0 -215 29t-133 75t-68.5 106.5t-19.5 125.5zM240 313q0 -61 23.5 -102t63.5 -65.5t91 -34t106 -9.5q18 0 50 2t71 6.5t79 13.5t75 21v400h-264q-37 0 -88.5 -6.5t-97.5 -30t-77.5 -69.5t-31.5 -126zM293 1378q0 37 29.5 66t68.5 29 q37 0 66.5 -29t29.5 -66q0 -41 -29.5 -69.5t-66.5 -28.5q-39 0 -68.5 28.5t-29.5 69.5zM653 1378q0 37 29 66t70 29q37 0 66.5 -28t29.5 -67q0 -41 -30 -69.5t-66 -28.5q-41 0 -70 28.5t-29 69.5z" />
<glyph unicode="&#xe5;" horiz-adv-x="1085" d="M90 313q0 76 26.5 142.5t81 116t136.5 77t194 27.5h273v55q0 51 -10.5 95t-39 75t-79.5 48.5t-133 17.5q-68 0 -149 -13.5t-138 -31.5q-14 -4 -22.5 -3t-12.5 15l-20 74q-6 23 16 30q37 14 80 25.5t89 20t93 11.5t88 3q199 0 294 -88t95 -258v-658q0 -37 -28 -49 q-92 -39 -196.5 -53.5t-201.5 -14.5q-131 0 -215 29t-133 75t-68.5 106.5t-19.5 125.5zM240 313q0 -61 23.5 -102t63.5 -65.5t91 -34t106 -9.5q18 0 50 2t71 6.5t79 13.5t75 21v400h-264q-37 0 -88.5 -6.5t-97.5 -30t-77.5 -69.5t-31.5 -126zM393 1393q0 39 14.5 71.5t40 57 t60.5 38t74 13.5q80 0 134 -51t54 -129t-54 -129.5t-134 -51.5q-78 0 -133.5 50.5t-55.5 130.5zM473 1393q0 -47 32 -77t77 -30q47 0 77.5 30t30.5 77t-30.5 76.5t-77.5 29.5t-78 -29.5t-31 -76.5z" />
<glyph unicode="&#xe6;" horiz-adv-x="1767" d="M90 297q0 70 21.5 132.5t69.5 109.5t125 74.5t188 27.5h278q25 174 -38.5 250t-217.5 76q-70 0 -147.5 -13.5t-135.5 -31.5q-16 -4 -23 -3t-11 15l-21 74q-6 23 15 30q72 31 167 45.5t179 14.5q143 0 226 -46t116 -143q59 94 151 141.5t205 47.5q111 0 192.5 -32t136 -90 t82 -138t29.5 -179q2 -43 -8 -70.5t-28.5 -43t-44 -21.5t-52.5 -6h-626q2 -121 28.5 -200.5t71.5 -126t107.5 -64.5t134.5 -18q68 0 132 16t109 41q25 12 35 -8l37 -72q12 -27 -8 -35q-72 -43 -155 -58.5t-163 -15.5q-96 0 -177 30t-142 79q-49 -29 -105.5 -49.5t-115 -33.5 t-114.5 -19.5t-108 -6.5q-131 0 -208.5 30t-119.5 76t-54.5 102.5t-12.5 111.5zM240 295q0 -104 69.5 -150.5t179.5 -46.5q25 0 67 4t90 13.5t99.5 25.5t96.5 43q-37 61 -56.5 140t-19.5 194h-258q-41 0 -88 -8t-87 -31.5t-66.5 -67.5t-26.5 -116zM924 641h612 q0 61 -13.5 120.5t-47 105.5t-92 75t-150.5 29q-135 0 -217 -90t-92 -240z" />
<glyph unicode="&#xe7;" horiz-adv-x="968" d="M92 526q0 133 34 238.5t96.5 179.5t152.5 114t200 40q80 0 154 -16.5t145 -55.5q25 -14 11 -37l-37 -69q-4 -10 -11.5 -14.5t-23.5 3.5q-51 23 -109.5 39.5t-128.5 16.5q-90 0 -152.5 -36t-103 -97.5t-59 -140.5t-18.5 -165q0 -88 16 -164.5t55 -133t103.5 -89.5 t161.5 -33q72 0 140 18.5t116 45.5q16 8 23 4t13 -14l33 -72q10 -12 6 -20.5t-14 -16.5q-70 -37 -147.5 -53t-155.5 -21l-29 -88q113 -6 158 -54t45 -103q0 -29 -12.5 -57.5t-37 -51t-63.5 -38t-94 -15.5q-53 0 -100 10t-76 25q-20 8 -12 28l14 37q6 14 13.5 14.5t17.5 -3.5 q31 -12 64.5 -18.5t62.5 -6.5q59 0 85.5 21.5t26.5 56.5q0 41 -37.5 61.5t-91.5 20.5h-27.5t-17.5 4q-16 4 -16 17t4 28l41 115q-205 14 -311.5 150t-106.5 396z" />
<glyph unicode="&#xe8;" horiz-adv-x="1091" d="M92 532q0 137 35 243t97.5 177.5t147.5 108.5t187 37q117 0 201 -34t138 -95.5t81 -145.5t27 -184q0 -86 -40 -113.5t-98 -27.5h-624q0 -106 26.5 -181t72.5 -121t108.5 -66.5t134.5 -20.5q68 0 132 16t109 41q25 12 35 -8l37 -72q12 -25 -10 -35q-72 -43 -154 -58.5 t-160 -15.5q-225 0 -354 132.5t-129 422.5zM250 621h612q0 70 -14 133t-48 111t-93.5 77t-147.5 29q-72 0 -128 -28t-95 -75t-60.5 -110.5t-25.5 -136.5zM342 1522q-18 23 12 28l123 31q16 2 23.5 -4t11.5 -16l133 -306q8 -16 5 -20t-13 -8l-51 -19q-20 -8 -37 13z" />
<glyph unicode="&#xe9;" horiz-adv-x="1091" d="M92 532q0 137 35 243t97.5 177.5t147.5 108.5t187 37q117 0 201 -34t138 -95.5t81 -145.5t27 -184q0 -86 -40 -113.5t-98 -27.5h-624q0 -106 26.5 -181t72.5 -121t108.5 -66.5t134.5 -20.5q68 0 132 16t109 41q25 12 35 -8l37 -72q12 -25 -10 -35q-72 -43 -154 -58.5 t-160 -15.5q-225 0 -354 132.5t-129 422.5zM250 621h612q0 70 -14 133t-48 111t-93.5 77t-147.5 29q-72 0 -128 -28t-95 -75t-60.5 -110.5t-25.5 -136.5zM468 1235q-3 4 5 20l133 306q4 10 11.5 16t23.5 4l121 -31q31 -6 12 -28l-207 -301q-14 -20 -37 -13l-49 19 q-10 4 -13 8z" />
<glyph unicode="&#xea;" horiz-adv-x="1091" d="M92 532q0 137 35 243t97.5 177.5t147.5 108.5t187 37q117 0 201 -34t138 -95.5t81 -145.5t27 -184q0 -86 -40 -113.5t-98 -27.5h-624q0 -106 26.5 -181t72.5 -121t108.5 -66.5t134.5 -20.5q68 0 132 16t109 41q25 12 35 -8l37 -72q12 -25 -10 -35q-72 -43 -154 -58.5 t-160 -15.5q-225 0 -354 132.5t-129 422.5zM236 1266l256 258q37 37 73 37q25 0 41.5 -7.5t38.5 -29.5l244 -256q20 -20 2 -39l-29 -27q-16 -10 -37 2l-260 203l-260 -205q-18 -12 -37 4l-30 33q-14 12 -2 27zM250 621h612q0 70 -14 133t-48 111t-93.5 77t-147.5 29 q-72 0 -128 -28t-95 -75t-60.5 -110.5t-25.5 -136.5z" />
<glyph unicode="&#xeb;" horiz-adv-x="1091" d="M92 532q0 137 35 243t97.5 177.5t147.5 108.5t187 37q117 0 201 -34t138 -95.5t81 -145.5t27 -184q0 -86 -40 -113.5t-98 -27.5h-624q0 -106 26.5 -181t72.5 -121t108.5 -66.5t134.5 -20.5q68 0 132 16t109 41q25 12 35 -8l37 -72q12 -25 -10 -35q-72 -43 -154 -58.5 t-160 -15.5q-225 0 -354 132.5t-129 422.5zM250 621h612q0 70 -14 133t-48 111t-93.5 77t-147.5 29q-72 0 -128 -28t-95 -75t-60.5 -110.5t-25.5 -136.5zM289 1376q0 37 29.5 65.5t68.5 28.5q37 0 66.5 -28.5t29.5 -65.5q0 -41 -29.5 -69.5t-66.5 -28.5q-39 0 -68.5 28.5 t-29.5 69.5zM649 1376q0 37 29 65.5t70 28.5q37 0 66.5 -27.5t29.5 -66.5q0 -41 -30 -69.5t-66 -28.5q-41 0 -70 28.5t-29 69.5z" />
<glyph unicode="&#xec;" horiz-adv-x="528" d="M35 1522q-18 23 12 28l123 31q16 2 23.5 -4t11.5 -16l133 -306q8 -16 5 -20t-13 -8l-51 -19q-20 -8 -37 13zM188 27v1022q0 16 6.5 21t22.5 5h94q14 0 20.5 -5t6.5 -21v-1022q0 -16 -6 -21.5t-21 -5.5h-94q-16 0 -22.5 5t-6.5 22z" />
<glyph unicode="&#xed;" horiz-adv-x="528" d="M188 27v1022q0 16 6.5 21t22.5 5h94q14 0 20.5 -5t6.5 -21v-1022q0 -16 -6 -21.5t-21 -5.5h-94q-16 0 -22.5 5t-6.5 22zM196 1235q-3 4 5 20l133 306q4 10 11 16t24 4l120 -31q31 -6 13 -28l-207 -301q-14 -20 -37 -13l-49 19q-10 4 -13 8z" />
<glyph unicode="&#xee;" horiz-adv-x="528" d="M-61 1257l256 259q37 37 73 36q25 0 41.5 -7t38.5 -29l244 -256q20 -20 2 -39l-29 -27q-16 -10 -37 2l-260 203l-260 -205q-18 -12 -37 4l-30 33q-14 12 -2 26zM188 27v1022q0 16 6.5 21t22.5 5h94q14 0 20.5 -5t6.5 -21v-1022q0 -16 -6 -21.5t-21 -5.5h-94 q-16 0 -22.5 5t-6.5 22z" />
<glyph unicode="&#xef;" horiz-adv-x="528" d="M-12 1372q0 37 29.5 65.5t68.5 28.5q37 0 66.5 -28.5t29.5 -65.5q0 -41 -29.5 -69.5t-66.5 -28.5q-39 0 -68.5 28.5t-29.5 69.5zM188 27v1022q0 16 6.5 21t22.5 5h94q14 0 20.5 -5t6.5 -21v-1022q0 -16 -6 -21.5t-21 -5.5h-94q-16 0 -22.5 5t-6.5 22zM348 1372 q0 37 29 65.5t69 28.5q37 0 67 -27.5t30 -66.5q0 -41 -30 -69.5t-67 -28.5q-41 0 -69.5 28.5t-28.5 69.5z" />
<glyph unicode="&#xf0;" horiz-adv-x="1110" d="M92 473q0 84 24.5 173t79 162t142.5 120t215 47q70 0 137.5 -17.5t124.5 -46.5l8 7q-29 92 -81 172.5t-117 144.5l-133 -115q-18 -18 -37 4l-23 23q-10 10 -11 18.5t11 18.5l127 110q-45 35 -92 67t-100 60q-18 10 -16.5 20.5t5.5 18.5l25 39q14 25 26.5 23t24.5 -6 q127 -63 221 -138l146 121q10 12 18 9t19 -13l20 -25q10 -12 11 -18t-9 -16l-139 -119q147 -139 223 -327.5t76 -403.5q0 -59 -7 -127t-25.5 -135.5t-51.5 -129t-85 -108.5t-127 -75.5t-175 -28.5q-139 0 -227.5 46t-139.5 117.5t-69.5 158.5t-18.5 169zM242 479 q0 -59 10 -125.5t43 -122t93.5 -92.5t158.5 -37t161.5 40t100.5 103.5t51 141.5t14 156q0 61 -5 117.5t-15 93.5q-72 55 -150 76.5t-137 21.5q-94 0 -156.5 -35t-100.5 -89t-53 -120.5t-15 -128.5z" />
<glyph unicode="&#xf1;" horiz-adv-x="1136" d="M133 27v915q0 117 111 135q25 4 60.5 8.5t73.5 7.5t73.5 4t60.5 1q131 0 224 -29t152.5 -90t87.5 -159.5t28 -237.5v-555q0 -16 -6.5 -21.5t-22.5 -5.5h-94q-14 0 -21.5 5t-7.5 22v546q0 98 -15.5 172t-54.5 122t-107.5 73t-172.5 25q-25 0 -86.5 -3.5t-132.5 -17.5v-917 q0 -16 -6.5 -21.5t-22.5 -5.5h-92q-14 0 -21.5 5t-7.5 22zM180.5 1329q-4.5 6 1.5 19q37 61 90.5 96t118.5 35q35 0 71 -13.5t69.5 -29t64.5 -27.5t59 -12q70 0 103 61q6 14 11 16.5t19 -1.5l60 -19q29 -10 18 -27q-37 -72 -84.5 -107.5t-117.5 -35.5q-39 0 -75 12.5 t-70 27.5t-66.5 27.5t-65.5 12.5q-31 0 -58.5 -16.5t-43.5 -44.5q-6 -10 -13.5 -13.5t-21.5 4.5l-51 23q-14 6 -18.5 12z" />
<glyph unicode="&#xf2;" horiz-adv-x="1126" d="M92 537q0 135 35 240.5t98.5 176t149.5 107.5t190 37q229 0 349 -146.5t120 -408.5q0 -274 -123 -420t-352 -146q-227 0 -347 142.5t-120 417.5zM242 543q0 -96 16 -176t53 -139.5t98.5 -92.5t151.5 -33q92 0 154.5 38t99.5 99.5t52.5 139.5t15.5 158q0 84 -14.5 162.5 t-49.5 139t-97.5 96.5t-156.5 36q-86 0 -147.5 -35t-100 -93.5t-57 -136t-18.5 -163.5zM358 1522q-18 23 13 28l123 31q16 2 23 -4t11 -16l134 -306q8 -16 5 -20t-14 -8l-51 -19q-20 -8 -37 13z" />
<glyph unicode="&#xf3;" horiz-adv-x="1126" d="M92 537q0 135 35 240.5t98.5 176t149.5 107.5t190 37q229 0 349 -146.5t120 -408.5q0 -274 -123 -420t-352 -146q-227 0 -347 142.5t-120 417.5zM242 543q0 -96 16 -176t53 -139.5t98.5 -92.5t151.5 -33q92 0 154.5 38t99.5 99.5t52.5 139.5t15.5 158q0 84 -14.5 162.5 t-49.5 139t-97.5 96.5t-156.5 36q-86 0 -147.5 -35t-100 -93.5t-57 -136t-18.5 -163.5zM484.5 1235q-3.5 4 4.5 20l134 306q4 10 11 16t23 4l121 -31q31 -6 13 -28l-207 -301q-14 -20 -37 -13l-49 19q-10 4 -13.5 8z" />
<glyph unicode="&#xf4;" horiz-adv-x="1126" d="M92 537q0 135 35 240.5t98.5 176t149.5 107.5t190 37q229 0 349 -146.5t120 -408.5q0 -274 -123 -420t-352 -146q-227 0 -347 142.5t-120 417.5zM242 543q0 -96 16 -176t53 -139.5t98.5 -92.5t151.5 -33q92 0 154.5 38t99.5 99.5t52.5 139.5t15.5 158q0 84 -14.5 162.5 t-49.5 139t-97.5 96.5t-156.5 36q-86 0 -147.5 -35t-100 -93.5t-57 -136t-18.5 -163.5zM242 1266l256 258q37 37 73 37q25 0 41.5 -7.5t38.5 -29.5l244 -256q20 -20 2 -39l-29 -27q-16 -10 -37 2l-260 203l-260 -205q-18 -12 -37 4l-30 33q-14 12 -2 27z" />
<glyph unicode="&#xf5;" horiz-adv-x="1126" d="M92 537q0 135 35 240.5t98.5 176t149.5 107.5t190 37q229 0 349 -146.5t120 -408.5q0 -274 -123 -420t-352 -146q-227 0 -347 142.5t-120 417.5zM227.5 1323q-4.5 6 1.5 18q37 61 90.5 96.5t118.5 35.5q35 0 71 -13.5t69.5 -29t64.5 -27.5t59 -12q70 0 103 61q6 14 11 16 t20 -2l59 -18q29 -10 18 -27q-37 -72 -84.5 -107.5t-117.5 -35.5q-39 0 -75 12.5t-70 27.5t-66.5 27.5t-65.5 12.5q-31 0 -58.5 -16.5t-43.5 -45.5q-6 -10 -13.5 -13t-21.5 5l-51 23q-14 6 -18.5 12zM242 543q0 -96 16 -176t53 -139.5t98.5 -92.5t151.5 -33q92 0 154.5 38 t99.5 99.5t52.5 139.5t15.5 158q0 84 -14.5 162.5t-49.5 139t-97.5 96.5t-156.5 36q-86 0 -147.5 -35t-100 -93.5t-57 -136t-18.5 -163.5z" />
<glyph unicode="&#xf6;" horiz-adv-x="1126" d="M92 537q0 135 35 240.5t98.5 176t149.5 107.5t190 37q229 0 349 -146.5t120 -408.5q0 -274 -123 -420t-352 -146q-227 0 -347 142.5t-120 417.5zM242 543q0 -96 16 -176t53 -139.5t98.5 -92.5t151.5 -33q92 0 154.5 38t99.5 99.5t52.5 139.5t15.5 158q0 84 -14.5 162.5 t-49.5 139t-97.5 96.5t-156.5 36q-86 0 -147.5 -35t-100 -93.5t-57 -136t-18.5 -163.5zM281 1372q0 37 29.5 65.5t68.5 28.5q37 0 66.5 -28.5t29.5 -65.5q0 -41 -29.5 -69.5t-66.5 -28.5q-39 0 -68.5 28.5t-29.5 69.5zM641 1372q0 37 28.5 65.5t69.5 28.5q37 0 67 -27.5 t30 -66.5q0 -41 -30 -69.5t-67 -28.5q-41 0 -69.5 28.5t-28.5 69.5z" />
<glyph unicode="&#xf7;" d="M106 659v91q0 14 5.5 21t21.5 7h926q16 0 21 -7t5 -21v-91q0 -16 -5 -22t-21 -6h-926q-16 0 -21.5 6t-5.5 22zM477 315q0 53 36 89t89 36t88 -35t35 -88t-36 -87.5t-87 -34.5q-53 0 -89 33.5t-36 86.5zM477 1077q0 53 36 88t89 35t88 -35t35 -88t-36 -89t-87 -36 q-53 0 -89 36t-36 89z" />
<glyph unicode="&#xf8;" horiz-adv-x="1126" d="M92 537q0 135 35 240.5t98.5 176t149.5 107.5t190 37q199 0 320 -117l86 98q12 14 28 2l31 -28q8 -6 8 -11.5t-8 -15.5l-92 -108q96 -143 96 -375q0 -274 -123 -420t-352 -146q-207 0 -319 113l-76 -88q-14 -16 -27 -2l-31 27q-18 12 0 28l80 99q-94 137 -94 383z M242 543q0 -78 11 -147.5t38 -123.5l502 602q-37 45 -92.5 71t-135.5 26q-86 0 -147.5 -35t-100 -93.5t-57 -136t-18.5 -163.5zM332 199q39 -47 95 -72t134 -25q92 0 154.5 38t99.5 99.5t52.5 139.5t15.5 158q0 72 -10.5 139t-36.5 125z" />
<glyph unicode="&#xf9;" horiz-adv-x="1124" d="M133 481v570q0 16 6 21t23 5h92q16 0 22.5 -5t6.5 -21v-557q0 -100 12 -172t49 -118t103.5 -68.5t175.5 -22.5q25 0 85 3t132 17v918q0 16 6 21t22 5h95q14 0 21 -5t7 -21v-918q0 -115 -112 -135q-29 -4 -65 -8t-72.5 -6t-70.5 -3t-59 -1q-133 0 -224 26.5t-147.5 86 t-82 154.5t-25.5 234zM350 1522q-18 23 12 28l123 31q16 2 23.5 -4t11.5 -16l133 -306q8 -16 5 -20t-13 -8l-51 -19q-20 -8 -37 13z" />
<glyph unicode="&#xfa;" horiz-adv-x="1124" d="M133 481v570q0 16 6 21t23 5h92q16 0 22.5 -5t6.5 -21v-557q0 -100 12 -172t49 -118t103.5 -68.5t175.5 -22.5q25 0 85 3t132 17v918q0 16 6 21t22 5h95q14 0 21 -5t7 -21v-918q0 -115 -112 -135q-29 -4 -65 -8t-72.5 -6t-70.5 -3t-59 -1q-133 0 -224 26.5t-147.5 86 t-82 154.5t-25.5 234zM497 1235q-3 4 5 20l133 306q4 10 11 16t24 4l121 -31q31 -6 12 -28l-207 -301q-14 -20 -37 -13l-49 19q-10 4 -13 8z" />
<glyph unicode="&#xfb;" horiz-adv-x="1124" d="M133 481v570q0 16 6 21t23 5h92q16 0 22.5 -5t6.5 -21v-557q0 -100 12 -172t49 -118t103.5 -68.5t175.5 -22.5q25 0 85 3t132 17v918q0 16 6 21t22 5h95q14 0 21 -5t7 -21v-918q0 -115 -112 -135q-29 -4 -65 -8t-72.5 -6t-70.5 -3t-59 -1q-133 0 -224 26.5t-147.5 86 t-82 154.5t-25.5 234zM246 1266l256 258q37 37 73 37q25 0 41.5 -7.5t38.5 -29.5l244 -256q20 -20 2 -39l-29 -27q-16 -10 -36 2l-261 203l-260 -205q-18 -12 -36 4l-31 33q-14 12 -2 27z" />
<glyph unicode="&#xfc;" horiz-adv-x="1124" d="M133 481v570q0 16 6 21t23 5h92q16 0 22.5 -5t6.5 -21v-557q0 -100 12 -172t49 -118t103.5 -68.5t175.5 -22.5q25 0 85 3t132 17v918q0 16 6 21t22 5h95q14 0 21 -5t7 -21v-918q0 -115 -112 -135q-29 -4 -65 -8t-72.5 -6t-70.5 -3t-59 -1q-133 0 -224 26.5t-147.5 86 t-82 154.5t-25.5 234zM297 1372q0 37 29.5 65.5t68.5 28.5q37 0 67 -28.5t30 -65.5q0 -41 -30 -69.5t-67 -28.5q-39 0 -68.5 28.5t-29.5 69.5zM657 1372q0 37 29 65.5t70 28.5q37 0 66.5 -27.5t29.5 -66.5q0 -41 -29.5 -69.5t-66.5 -28.5q-41 0 -70 28.5t-29 69.5z" />
<glyph unicode="&#xfd;" horiz-adv-x="980" d="M25 1055q-6 20 14 20h113q14 0 18 -4t8 -14q14 -45 42 -129t58.5 -175t57 -175t43.5 -129q6 -16 19.5 -64.5t29.5 -104t30.5 -104.5t20.5 -65h10q12 37 30 92t35 109.5t30.5 97.5t17.5 53q6 14 25.5 72.5t48.5 142.5t63.5 182t69.5 195q4 10 8 15t19 5h106q23 0 16 -20 l-421 -1235q-47 -139 -116 -193.5t-177 -54.5q-29 0 -71 3t-93 19q-29 8 -23 31l21 76q4 14 11 16t20 -2q43 -10 64.5 -13t45.5 -3q33 0 59.5 5t48 20.5t40 43t32.5 72.5l62 168h-35q-23 0 -41 8.5t-33 51.5zM437.5 1235q-3.5 4 4.5 20l133 306q4 10 11.5 16t23.5 4l121 -31 q31 -6 12 -28l-206 -301q-14 -20 -37 -13l-49 19q-10 4 -13.5 8z" />
<glyph unicode="&#xfe;" horiz-adv-x="1128" d="M133 -391v1864q0 16 6 20t23 4h94q14 0 21.5 -4t7.5 -20v-408q70 18 142.5 25.5t139.5 7.5q121 0 210 -41t146.5 -115t85 -176t27.5 -225q0 -119 -28.5 -221.5t-88 -178t-148.5 -120t-208 -44.5q-59 0 -131 8.5t-149 30.5v-407q0 -16 -5.5 -20.5t-21.5 -4.5h-94 q-14 0 -21.5 4t-7.5 21zM283 150q86 -29 148.5 -36.5t109.5 -7.5q74 0 136 24t107 76t71 135t26 200q0 121 -25 202.5t-70 132t-106.5 72t-136.5 21.5q-55 0 -129 -11.5t-129 -33.5v-122v-149v-157.5v-148t-1 -121t-1 -76.5z" />
<glyph unicode="&#xff;" horiz-adv-x="980" d="M25 1055q-6 20 14 20h113q14 0 18 -4t8 -14q14 -45 42 -129t58.5 -175t57 -175t43.5 -129q6 -16 19.5 -64.5t29.5 -104t30.5 -104.5t20.5 -65h10q12 37 30 92t35 109.5t30.5 97.5t17.5 53q6 14 25.5 72.5t48.5 142.5t63.5 182t69.5 195q4 10 8 15t19 5h106q23 0 16 -20 l-421 -1235q-47 -139 -116 -193.5t-177 -54.5q-29 0 -71 3t-93 19q-29 8 -23 31l21 76q4 14 11 16t20 -2q43 -10 64.5 -13t45.5 -3q33 0 59.5 5t48 20.5t40 43t32.5 72.5l62 168h-35q-23 0 -41 8.5t-33 51.5zM209 1372q0 37 29.5 65.5t68.5 28.5q37 0 66.5 -28.5t29.5 -65.5 q0 -41 -29.5 -69.5t-66.5 -28.5q-39 0 -68.5 28.5t-29.5 69.5zM569 1372q0 37 29 65.5t70 28.5q37 0 66.5 -27.5t29.5 -66.5q0 -41 -29.5 -69.5t-66.5 -28.5q-41 0 -70 28.5t-29 69.5z" />
<glyph unicode="&#x152;" horiz-adv-x="1828" d="M145 717q0 170 41 306t118 232.5t186.5 148.5t248.5 52q156 0 275 -63q70 43 184 43h537q16 0 21 -7.5t5 -21.5v-88q0 -16 -5 -21.5t-21 -5.5h-525q-98 0 -142 -45t-44 -137v-279h643q16 0 20.5 -6t4.5 -22v-82q0 -14 -4.5 -21.5t-20.5 -7.5h-643v-366q0 -80 41 -130.5 t145 -50.5h535q16 0 20 -6t4 -22v-88q0 -14 -4 -21.5t-20 -7.5h-547q-113 0 -184 41q-123 -63 -275 -64q-168 0 -281.5 61.5t-183 164t-99.5 235.5t-30 279zM303 717q0 -125 22.5 -234.5t73 -190.5t134 -128t206.5 -47q100 0 168 33q-23 39 -31 86t-8 98v764q0 51 8.5 96 t30.5 84q-78 33 -168 33q-115 0 -196.5 -46t-135 -126t-79 -188.5t-25.5 -233.5z" />
<glyph unicode="&#x153;" horiz-adv-x="1886" d="M92 537q0 135 35 240.5t98.5 176t149.5 107.5t190 37q143 0 245.5 -62.5t156.5 -181.5q55 121 155.5 182.5t231.5 61.5q117 0 200.5 -34t138 -95.5t81 -145.5t26.5 -184q0 -86 -40 -113.5t-95 -27.5h-625q0 -106 27 -181t73 -121t106.5 -66.5t131.5 -20.5q70 0 134.5 16 t109.5 41q14 6 21.5 5t13.5 -13l37 -72q12 -27 -8 -35q-72 -43 -155 -58.5t-163 -15.5q-145 0 -249.5 56.5t-160.5 179.5q-55 -117 -156.5 -176.5t-242.5 -59.5q-227 0 -347 142.5t-120 417.5zM242 543q0 -96 16 -176t53 -139.5t98.5 -92.5t151.5 -33q92 0 154.5 38 t99.5 99.5t52.5 139.5t15.5 158q0 84 -14.5 162.5t-49.5 139t-97.5 96.5t-156.5 36q-86 0 -147.5 -35t-100 -93.5t-57 -136t-18.5 -163.5zM1044 621h613q0 70 -13.5 133t-48 111t-93 77t-148.5 29q-72 0 -127.5 -28t-94 -75t-61 -110.5t-27.5 -136.5z" />
<glyph unicode="&#x178;" horiz-adv-x="1118" d="M24 1428.5q3 7.5 15 7.5h127q25 0 35 -23l202 -379l158 -307h8l164 317l197 369q10 23 35 23h118q10 0 12.5 -8.5t0.5 -12.5l-455 -833v-555q0 -16 -5 -21.5t-22 -5.5h-98q-16 0 -22.5 5t-6.5 22v553l-462 835q-4 6 -1 13.5zM287 1659q0 37 29.5 65.5t68.5 28.5 q37 0 66.5 -28.5t29.5 -65.5q0 -41 -29.5 -69.5t-66.5 -28.5q-39 0 -68.5 28.5t-29.5 69.5zM647 1659q0 37 29 65.5t69 28.5q37 0 67 -27.5t30 -66.5q0 -41 -30 -69.5t-67 -28.5q-41 0 -69.5 28.5t-28.5 69.5z" />
<glyph unicode="&#x2c6;" horiz-adv-x="1146" d="M244 1257l256 259q37 37 73 36q25 0 41.5 -7t38.5 -29l244 -256q20 -20 2 -39l-29 -27q-16 -10 -36 2l-261 203l-260 -205q-18 -12 -37 4l-30 33q-14 12 -2 26z" />
<glyph unicode="&#x2da;" horiz-adv-x="1069" d="M387 1384q0 78 55.5 130.5t135.5 52.5q78 0 132 -51.5t54 -131.5q0 -78 -54.5 -128t-131.5 -50q-80 0 -135.5 50.5t-55.5 127.5zM467 1384q0 -47 31.5 -75.5t79.5 -28.5q47 0 76.5 28.5t29.5 75.5t-29.5 78t-76.5 31t-79 -30.5t-32 -78.5z" />
<glyph unicode="&#x2dc;" horiz-adv-x="1142" d="M231.5 1317q-4.5 6 1.5 18q37 61 90.5 96t118.5 35q35 0 71 -13t69.5 -28.5t64.5 -28t60 -12.5q70 0 102 62q6 14 11 16t20 -2l59 -18q29 -10 19 -27q-37 -72 -85 -107.5t-118 -35.5q-39 0 -75 12t-69.5 27.5t-66.5 28t-66 12.5q-31 0 -58.5 -16.5t-43.5 -45.5 q-6 -10 -13.5 -13t-21.5 5l-51 23q-14 6 -18.5 12z" />
<glyph unicode="&#x401;" horiz-adv-x="1161" d="M154 338v758q0 70 18 132t58 108t103.5 73t153.5 27h555q20 0 26.5 -9.5t6.5 -27.5v-72q0 -20 -6 -27.5t-27 -7.5h-553q-94 0 -136 -43t-42 -131v-287h666q18 0 24.5 -7t6.5 -27v-68q0 -16 -6.5 -25.5t-24.5 -9.5h-666v-377q0 -78 40 -125t138 -47h568q20 0 26.5 -8 t6.5 -28v-72q0 -18 -6.5 -27.5t-26.5 -9.5h-570q-96 0 -160.5 26.5t-102.5 72.5t-54 107.5t-16 131.5zM375 1653q0 37 29.5 65.5t68.5 28.5q37 0 66.5 -28.5t29.5 -65.5q0 -41 -29.5 -70t-66.5 -29q-39 0 -68.5 29t-29.5 70zM735 1653q0 37 29 65.5t70 28.5q37 0 66.5 -27.5 t29.5 -66.5q0 -41 -30 -70t-66 -29q-41 0 -70 29t-29 70z" />
<glyph unicode="&#x402;" horiz-adv-x="1591" d="M29 1319v86q0 16 4 22.5t20 6.5h1143q16 0 21.5 -6.5t5.5 -20.5v-88q0 -16 -5.5 -21.5t-21.5 -5.5h-571v-393q92 29 191 44t179 15q119 0 211 -34.5t155.5 -99t96.5 -155.5t33 -202q0 -76 -15.5 -159t-53.5 -162.5t-100 -152.5t-157 -128q-10 -4 -17 -4t-15 10l-52 78 q-10 18 9 28q121 70 182 199t61 289q0 174 -99 265t-261 91q-82 0 -173 -16.5t-175 -46.5v-731q0 -16 -5.5 -21.5t-21.5 -5.5h-106q-16 0 -22.5 5t-6.5 22v1265h-410q-16 0 -20 6.5t-4 20.5z" />
<glyph unicode="&#x403;" horiz-adv-x="1093" d="M154 33v1063q0 70 16 132t55 108t102.5 73t159.5 27h551q23 0 28 -9.5t5 -27.5v-72q0 -20 -5 -27.5t-28 -7.5h-549q-94 0 -136 -43t-42 -131v-1085q0 -20 -7 -26.5t-28 -6.5h-86q-18 0 -27 6t-9 27zM510 1585q-12 18 6 31l281 199q10 8 19 10t20 -13l73 -98 q16 -20 -4 -31l-325 -151q-16 -6 -23.5 -5t-15.5 11z" />
<glyph unicode="&#x404;" horiz-adv-x="1204" d="M113 702q0 174 44 313.5t124.5 237t193.5 149.5t250 52q86 0 180 -16.5t199 -69.5q16 -10 16 -20q0 -8 -6 -21l-41 -78q-10 -16 -18 -16q-2 0 -15 4q-78 37 -154.5 53.5t-156.5 16.5q-104 0 -184 -39t-136.5 -104.5t-88 -155.5t-39.5 -191h612q16 0 21.5 -6t5.5 -23v-79 q0 -16 -5.5 -22.5t-21.5 -6.5h-621v-2q2 -119 27 -220.5t80 -175t143 -115.5t215 -42q92 0 177 21.5t161 56.5q12 6 21 6q10 0 14 -6t6 -13l35 -73q6 -16 6 -23q0 -12 -14 -20q-104 -61 -221 -79t-211 -18q-281 0 -439.5 176.5t-158.5 548.5z" />
<glyph unicode="&#x405;" horiz-adv-x="1150" d="M72 123l41 90q8 20 30 10q51 -25 110.5 -44t119 -31.5t116 -19.5t103.5 -7q68 0 130 14.5t108.5 45t74 77.5t27.5 111q0 113 -91 181t-274 130q-113 37 -195.5 75t-137 84t-81 104t-26.5 138q0 82 30.5 152t90 120t144.5 77.5t196 27.5q100 0 204.5 -18.5t204.5 -65.5 q20 -8 13 -31l-39 -96q-10 -16 -25 -10q-104 43 -193 60.5t-169 17.5q-131 0 -213 -61.5t-82 -161.5q0 -57 22.5 -96.5t67.5 -71t112.5 -58t157.5 -59.5q94 -33 175 -70t140.5 -86t94.5 -115.5t35 -158.5q0 -98 -37 -172t-103.5 -125t-159 -77t-204.5 -26q-53 0 -117.5 5.5 t-131.5 18.5t-134.5 34.5t-126.5 52.5q-20 10 -8 35z" />
<glyph unicode="&#x406;" horiz-adv-x="530" d="M184 27v1380q0 16 6.5 21.5t22.5 5.5h102q16 0 22.5 -5.5t6.5 -21.5v-1380q0 -16 -6 -21.5t-23 -5.5h-102q-16 0 -22.5 5t-6.5 22z" />
<glyph unicode="&#x407;" horiz-adv-x="530" d="M-12 1645q0 37 29.5 65.5t68.5 28.5q37 0 66.5 -28.5t29.5 -65.5q0 -41 -29.5 -70t-66.5 -29q-39 0 -68.5 29t-29.5 70zM184 27v1380q0 16 6.5 21.5t22.5 5.5h102q16 0 22.5 -5.5t6.5 -21.5v-1380q0 -16 -6 -21.5t-23 -5.5h-102q-16 0 -22.5 5t-6.5 22zM348 1645 q0 37 29 65.5t69 28.5q37 0 67 -27.5t30 -66.5q0 -41 -30 -70t-67 -29q-41 0 -69.5 29t-28.5 70z" />
<glyph unicode="&#x408;" horiz-adv-x="1155" d="M14.5 105.5q-4.5 7.5 5.5 25.5l43 80q12 20 39 6q76 -47 172.5 -71.5t190.5 -24.5q199 0 281.5 109.5t82.5 324.5v852q0 16 7.5 21.5t21.5 5.5h100q16 0 22.5 -5.5t6.5 -21.5v-864q0 -272 -128 -419t-400 -147q-90 0 -208 23t-220 90q-12 8 -16.5 15.5z" />
<glyph unicode="&#x409;" horiz-adv-x="2033" d="M14 70q-6 23 1.5 28.5t17.5 10.5q102 43 157.5 110.5t84 178t41 273.5t28.5 396l18 254q8 115 109 115h506q109 0 108 -115v-440h385q166 0 262.5 -49.5t146.5 -118t64.5 -144t14.5 -131.5q0 -94 -35 -175t-96.5 -139t-146.5 -91t-185 -33h-475q-53 0 -74.5 21.5 t-21.5 72.5v1200h-412l-18 -250q-18 -238 -35 -418t-57 -311t-116.5 -215t-213.5 -127q-10 -4 -21.5 -1t-17.5 24zM1085 145h390q98 0 159.5 32t97 78t49 100.5t13.5 97.5q0 61 -20.5 113t-60.5 92t-99.5 62.5t-136.5 22.5h-392v-598z" />
<glyph unicode="&#x40a;" horiz-adv-x="2068" d="M154 27v1380q0 16 7 21.5t21 5.5h105q16 0 22 -5.5t6 -21.5v-551h654v553q0 16 7 21.5t23 5.5h103q16 0 22 -5.5t6 -21.5v-553h377q166 0 262.5 -46t146.5 -112.5t64.5 -140.5t14.5 -129q0 -94 -35 -173t-96.5 -135.5t-146.5 -88t-185 -31.5h-465q-53 0 -75.5 21.5 t-22.5 72.5v625h-654v-692q0 -16 -6 -21.5t-22 -5.5h-105q-14 0 -21 5t-7 22zM1130 145h381q98 0 160 30t96.5 75t48 97t13.5 95q0 123 -79 200t-237 77h-383v-574z" />
<glyph unicode="&#x40b;" horiz-adv-x="1597" d="M29 1321v84q0 16 4 22.5t20 6.5h1129q16 0 21 -6.5t5 -22.5v-84q0 -16 -5 -21.5t-21 -5.5h-557v-399q88 29 189 45t177 16q244 0 360.5 -125.5t116.5 -355.5v-448q0 -16 -6 -21.5t-22 -5.5h-101q-16 0 -22 5t-6 22v442q0 176 -88 264t-256 88q-35 0 -78 -5t-89 -13 t-91 -21.5t-84 -27.5v-727q0 -16 -5.5 -21.5t-19.5 -5.5h-106q-14 0 -21.5 5t-7.5 22v1267h-412q-16 0 -20 5.5t-4 21.5z" />
<glyph unicode="&#x40c;" horiz-adv-x="1234" d="M154 27v1380q0 16 7 21.5t21 5.5h101q16 0 22 -5.5t4 -21.5v-571h295q37 0 75 8t72.5 30.5t62.5 65.5t46 111l96 362q4 16 13.5 20.5t19.5 4.5h94q20 0 23.5 -12.5t-0.5 -22.5l-94 -367q-23 -92 -64 -157.5t-114 -100.5v-10q53 -16 87.5 -41t59.5 -57.5t40 -73.5t28 -88 l129 -475q4 -10 0 -21.5t-25 -11.5h-100q-10 0 -21.5 4t-15.5 21l-125 460q-16 61 -41 102.5t-56.5 64t-73.5 31.5t-93 9h-318v-665q0 -16 -6 -21.5t-22 -5.5h-99q-14 0 -21 5t-7 22zM485 1591q-12 18 7 31l280 199q10 8 19.5 10t19.5 -12l74 -99q16 -20 -4 -30l-326 -152 q-16 -6 -23.5 -5t-15.5 11z" />
<glyph unicode="&#x40e;" horiz-adv-x="1132" d="M39 1413q-10 23 18 23h117q18 0 24.5 -7.5t10.5 -17.5l229 -553l146 -360h14l137 364l213 551q8 23 37 23h105q14 0 18 -7.5t0 -17.5l-467 -1208q-27 -70 -56.5 -116t-67.5 -73.5t-85 -39t-106 -11.5q-27 0 -69 4t-91 19q-18 6 -22.5 11t-2.5 17l19 86q4 16 10 17.5 t20 -0.5q47 -8 79 -11.5t59 -1.5q57 2 97 27t71 105l61 157h-29q-27 0 -46 8.5t-36 51.5zM258 1731.5q-2 9.5 10 19.5l35 29q16 10 22.5 6t16.5 -14q55 -68 120.5 -104t125.5 -36q47 0 105.5 28t135.5 116q14 14 20.5 14t16.5 -6l35 -27q16 -14 12 -24.5t-10 -18.5 q-78 -111 -160.5 -158t-160.5 -47q-98 0 -180.5 59.5t-137.5 147.5q-4 6 -6 15.5z" />
<glyph unicode="&#x40f;" horiz-adv-x="1390" d="M154 113v1296q0 16 6 20.5t20 4.5h103q16 0 22 -4.5t6 -20.5v-1270h766v1270q0 16 7.5 20.5t21.5 4.5h100q16 0 22.5 -4.5t6.5 -20.5v-1296q0 -113 -107 -113h-346q-4 -74 -8 -146.5t-8 -148.5q0 -29 -23 -29h-92q-20 0 -20 29q-4 76 -7 148.5t-8 146.5h-356 q-106 0 -106 113z" />
<glyph unicode="&#x410;" horiz-adv-x="1239" d="M31 33l473 1333q16 43 32.5 56.5t57.5 15.5h53q47 0 63.5 -15.5t30.5 -56.5l467 -1333q4 -10 0 -21.5t-20 -11.5h-115q-16 0 -25.5 3t-15.5 24l-108 315h-609q-6 -14 -21 -60t-32.5 -98.5t-33 -97.5t-21.5 -59q-8 -27 -37 -27h-117q-16 0 -21 10t-1 23zM358 483h521 l-154 469l-100 312h-11l-98 -303z" />
<glyph unicode="&#x411;" horiz-adv-x="1265" d="M154 92v1229q0 113 108 113h748q18 0 23 -7.5t5 -23.5v-80q0 -16 -5 -22.5t-23 -6.5h-697v-413h387q166 0 262.5 -49.5t145.5 -118t63.5 -144t14.5 -131.5q0 -94 -35 -175t-96.5 -139t-146.5 -91t-185 -33h-473q-53 0 -74.5 21.5t-21.5 70.5zM313 145h392q98 0 159.5 32 t96 78t48 100.5t13.5 97.5q0 61 -19.5 113t-59.5 92t-99.5 62.5t-138.5 22.5h-392v-598z" />
<glyph unicode="&#x412;" horiz-adv-x="1296" d="M154 94v1245q0 47 20.5 72t75.5 25l459 2q88 0 164.5 -20.5t133 -62.5t88 -108.5t31.5 -159.5q0 -92 -47 -170.5t-141 -119.5v-13q70 -20 118 -59t77.5 -88t42 -104.5t12.5 -110.5q0 -94 -35 -172t-95.5 -133.5t-144.5 -86t-182 -30.5h-481q-51 0 -73.5 21.5t-22.5 72.5z M313 145h398q96 0 157.5 29t96 73t47 95t12.5 94q0 123 -81 200t-234 77h-396v-568zM313 844h392q37 0 81.5 10t82.5 35.5t65 71t27 116.5q0 94 -62.5 154.5t-173.5 60.5h-412v-448z" />
<glyph unicode="&#x413;" horiz-adv-x="1093" d="M154 33v1063q0 70 16 132t55 108t102.5 73t159.5 27h551q23 0 28 -9.5t5 -27.5v-72q0 -20 -5 -27.5t-28 -7.5h-549q-94 0 -136 -43t-42 -131v-1085q0 -20 -7 -26.5t-28 -6.5h-86q-18 0 -27 6t-9 27z" />
<glyph unicode="&#x414;" horiz-adv-x="1447" d="M18 59q-4 37 11.5 57.5t62.5 24.5l55 4q59 70 92 156t50 215l98 772q8 66 31.5 107t95.5 41h631q61 0 86.5 -29t25.5 -86v-1180l68 -4q47 -4 58.5 -22.5t9.5 -46.5l-23 -373q-2 -29 -24 -29h-84q-18 0 -19 27l-10 307h-1045l-18 -305q0 -16 -7 -22.5t-18 -6.5h-79 q-23 0 -25 29zM326 143h774v1149h-561l-95 -760q-10 -82 -22 -141t-26.5 -103t-32 -79t-37.5 -66z" />
<glyph unicode="&#x415;" horiz-adv-x="1161" d="M154 338v758q0 70 18 132t58 108t103.5 73t153.5 27h555q20 0 26.5 -9.5t6.5 -27.5v-72q0 -20 -6 -27.5t-27 -7.5h-553q-94 0 -136 -43t-42 -131v-287h666q18 0 24.5 -7t6.5 -27v-68q0 -16 -6.5 -25.5t-24.5 -9.5h-666v-377q0 -78 40 -125t138 -47h568q20 0 26.5 -8 t6.5 -28v-72q0 -18 -6.5 -27.5t-26.5 -9.5h-570q-96 0 -160.5 26.5t-102.5 72.5t-54 107.5t-16 131.5z" />
<glyph unicode="&#x416;" horiz-adv-x="1945" d="M66 11.5q-3 11.5 2 21.5l129 475q12 47 27.5 88t40 73.5t59 57.5t88.5 41v8q-74 33 -116 100.5t-65 159.5l-90 367q-4 10 -1 22.5t22 12.5h94q10 0 19.5 -4t13.5 -21l96 -362q18 -68 46 -111t62.5 -65.5t72.5 -30.5t77 -8h252v571q-2 16 4 21.5t23 5.5h100 q16 0 22.5 -5.5t6.5 -21.5v-571h254q37 0 75.5 8t72.5 30.5t61.5 65.5t46.5 111l96 362q4 16 13 20.5t20 4.5h96q18 0 21 -12.5t-1 -22.5l-92 -367q-23 -92 -64.5 -159.5t-115.5 -100.5v-8q53 -16 88 -41t59.5 -57.5t40 -73.5t27.5 -88l129 -475q4 -10 1 -21.5t-24 -11.5 h-104q-10 0 -19.5 4t-13.5 21l-127 460q-16 61 -40.5 102.5t-57.5 64t-75 31.5t-93 9h-274v-665q0 -16 -6.5 -21.5t-22.5 -5.5h-98q-16 0 -23.5 5t-7.5 22l2 665h-274q-51 0 -93.5 -9t-75 -31.5t-57 -63.5t-41.5 -103l-127 -460q-4 -16 -13 -20.5t-19 -4.5h-103 q-23 0 -26 11.5z" />
<glyph unicode="&#x417;" horiz-adv-x="1173" d="M42 92q-3 8 7 27l33 67q6 10 15 15.5t28 -2.5q78 -35 176 -57.5t193 -22.5q223 0 321 84t98 221q0 115 -94 190.5t-268 75.5h-113q-63 0 -63 53v39q0 57 57 58h111q141 0 232 68.5t91 185.5q0 61 -26.5 104t-71.5 69.5t-103.5 38t-121.5 11.5q-94 0 -185.5 -21.5 t-171.5 -58.5q-33 -14 -41 12l-28 70q-10 20 -7 27.5t15 15.5q98 57 209.5 77.5t216.5 20.5q104 0 192 -22.5t151.5 -67.5t98.5 -111.5t35 -154.5q0 -115 -69.5 -203t-186.5 -129v-10q70 -12 127 -44t97 -78t61.5 -104.5t21.5 -121.5q0 -94 -35.5 -174t-107.5 -138.5 t-177.5 -91.5t-242.5 -33q-47 0 -105.5 4.5t-119 14.5t-120.5 28.5t-114 49.5q-12 10 -15 18z" />
<glyph unicode="&#x418;" horiz-adv-x="1404" d="M154 90v1319q0 16 7 21.5t21 5.5h101q16 0 22 -5.5t6 -21.5v-1192h6l162 270l537 875q25 41 42 57.5t58 16.5h49q51 0 68.5 -22.5t17.5 -67.5v-1319q0 -16 -6 -21.5t-22 -5.5h-101q-16 0 -22 5t-6 22v1196h-9l-176 -299l-520 -848q-25 -41 -43 -58.5t-57 -17.5h-47 q-51 0 -69.5 23.5t-18.5 66.5z" />
<glyph unicode="&#x419;" horiz-adv-x="1404" d="M154 90v1319q0 16 7 21.5t21 5.5h101q16 0 22 -5.5t6 -21.5v-1192h6l162 270l537 875q25 41 42 57.5t58 16.5h49q51 0 68.5 -22.5t17.5 -67.5v-1319q0 -16 -6 -21.5t-22 -5.5h-101q-16 0 -22 5t-6 22v1196h-9l-176 -299l-520 -848q-25 -41 -43 -58.5t-57 -17.5h-47 q-51 0 -69.5 23.5t-18.5 66.5zM362.5 1731.5q-2.5 9.5 10.5 19.5l35 29q16 10 22 6t16 -14q55 -68 121 -104t125 -36q47 0 105.5 28t136.5 116q14 14 20.5 14t16.5 -6l35 -27q16 -14 12 -24.5t-10 -18.5q-78 -111 -161 -158t-161 -47q-98 0 -180 59.5t-137 147.5 q-4 6 -6.5 15.5z" />
<glyph unicode="&#x41a;" horiz-adv-x="1234" d="M154 27v1380q0 16 7 21.5t21 5.5h101q16 0 22 -5.5t4 -21.5v-571h295q37 0 75 8t72.5 30.5t62.5 65.5t46 111l96 362q4 16 13.5 20.5t19.5 4.5h94q20 0 23.5 -12.5t-0.5 -22.5l-94 -367q-23 -92 -64 -157.5t-114 -100.5v-10q53 -16 87.5 -41t59.5 -57.5t40 -73.5t28 -88 l129 -475q4 -10 0 -21.5t-25 -11.5h-100q-10 0 -21.5 4t-15.5 21l-125 460q-16 61 -41 102.5t-56.5 64t-73.5 31.5t-93 9h-318v-665q0 -16 -6 -21.5t-22 -5.5h-99q-14 0 -21 5t-7 22z" />
<glyph unicode="&#x41b;" horiz-adv-x="1368" d="M14 70q-6 23 1.5 28.5t17.5 10.5q102 43 157.5 110.5t84 178t41 273.5t28.5 396l18 254q8 115 109 115h641q109 0 109 -115v-1294q0 -16 -6.5 -21.5t-22.5 -5.5h-102q-16 0 -22.5 5t-6.5 22v1267h-549l-18 -250q-18 -238 -35 -418t-57 -311t-116.5 -215t-213.5 -127 q-10 -4 -21.5 -1t-17.5 24z" />
<glyph unicode="&#x41c;" horiz-adv-x="1640" d="M154 27v1319q0 41 16 65.5t70 24.5h47q41 0 60.5 -13.5t37.5 -60.5q4 -10 26.5 -62.5t53.5 -127t66.5 -161.5t68.5 -167t57.5 -141.5t34.5 -84.5q8 -18 25.5 -61t37 -90t36 -90t24.5 -62h8q8 18 24.5 59.5t36 88.5t36 88t24.5 59q18 43 44 107.5t56.5 137.5t62.5 150.5 t59.5 146.5t51 124t35.5 86q18 47 39 60.5t60 13.5h47q53 0 70.5 -25t17.5 -65v-1319q0 -16 -7 -21.5t-22 -5.5h-96q-16 0 -22.5 5t-6.5 22v1132h-10l-102 -252q-23 -53 -61 -144t-79 -190.5t-79.5 -191.5t-61.5 -143q-16 -41 -33.5 -56.5t-58.5 -15.5h-55q-41 0 -59.5 15.5 t-35.5 56.5q-23 53 -61.5 145t-80.5 192.5t-81 192.5t-63 145l-95 230h-12v-1116q0 -16 -6 -21.5t-23 -5.5h-94q-16 0 -22 5t-6 22z" />
<glyph unicode="&#x41d;" horiz-adv-x="1392" d="M154 27v1380q0 16 7 21.5t21 5.5h105q16 0 22 -5.5t6 -21.5v-580h766v580q0 16 6.5 21.5t22.5 5.5h100q16 0 22.5 -5.5t6.5 -21.5v-1380q0 -16 -6 -21.5t-23 -5.5h-100q-16 0 -22.5 5t-6.5 22v661h-766v-661q0 -16 -6 -21.5t-22 -5.5h-105q-14 0 -21 5t-7 22z" />
<glyph unicode="&#x41e;" horiz-adv-x="1425" d="M113 715q0 178 44 316t122.5 232.5t189.5 143.5t244 49q297 0 448.5 -194.5t151.5 -540.5q0 -358 -152.5 -551t-451.5 -193q-152 0 -263.5 50.5t-185.5 145.5t-110.5 232.5t-36.5 309.5zM270 721q0 -129 21.5 -238.5t73 -190.5t135.5 -127t211 -46q125 0 210 49t136 132 t72.5 190.5t21.5 224.5t-19.5 225.5t-68.5 191t-133 133t-213 50.5q-117 0 -202 -48t-139 -129t-80 -189.5t-26 -227.5z" />
<glyph unicode="&#x41f;" horiz-adv-x="1390" d="M154 27v1294q0 57 28.5 86t79.5 29h866q109 0 109 -115v-1294q0 -16 -6 -21.5t-23 -5.5h-102q-14 0 -21.5 5t-7.5 22v1267h-764v-1267q0 -16 -6 -21.5t-22 -5.5h-103q-14 0 -21 5t-7 22z" />
<glyph unicode="&#x420;" horiz-adv-x="1218" d="M154 25v1316q0 47 19.5 71t74.5 24h473q94 0 173 -31t136 -86t88 -132t31 -169q0 -57 -18.5 -131t-68.5 -140.5t-137 -111.5t-223 -45h-393v-565q0 -16 -6 -20.5t-22 -4.5h-101q-14 0 -20 4t-6 21zM309 729h375q141 0 221 72.5t80 208.5q0 45 -14.5 95t-49 91t-93 67.5 t-146.5 26.5h-373v-561z" />
<glyph unicode="&#x421;" horiz-adv-x="1204" d="M113 696q0 174 44 314.5t124.5 239t193.5 151.5t250 53q88 0 182 -16.5t199 -69.5q10 -4 14 -13t-6 -28l-39 -78q-6 -10 -12 -14t-21 2q-78 37 -155.5 53.5t-155.5 16.5q-121 0 -207 -51.5t-141 -135.5t-82 -194.5t-27 -229.5q0 -123 24 -227t79 -181t144 -120t218 -43 q92 0 176 21.5t162 58.5q20 8 28.5 2t12.5 -17l33 -71q10 -20 7 -28.5t-15 -16.5q-51 -31 -107.5 -49.5t-113 -29.5t-110.5 -14.5t-99 -3.5q-141 0 -252 43t-188.5 131.5t-118.5 223.5t-41 321z" />
<glyph unicode="&#x422;" horiz-adv-x="1101" d="M29 1321v84q0 16 4 22.5t20 6.5h996q16 0 21 -6.5t5 -22.5v-84q0 -16 -5 -21.5t-21 -5.5h-424v-1267q0 -16 -5.5 -21.5t-19.5 -5.5h-108q-16 0 -22.5 5t-6.5 22v1267h-410q-16 0 -20 5.5t-4 21.5z" />
<glyph unicode="&#x423;" horiz-adv-x="1132" d="M39 1413q-10 23 18 23h117q18 0 24.5 -7.5t10.5 -17.5l229 -553l146 -360h14l137 364l213 551q8 23 37 23h105q14 0 18 -7.5t0 -17.5l-467 -1208q-27 -70 -56.5 -116t-67.5 -73.5t-85 -39t-106 -11.5q-27 0 -69 4t-91 19q-18 6 -22.5 11t-2.5 17l19 86q4 16 10 17.5 t20 -0.5q47 -8 79 -11.5t59 -1.5q57 2 97 27t71 105l61 157h-29q-27 0 -46 8.5t-36 51.5z" />
<glyph unicode="&#x424;" horiz-adv-x="1685" d="M113 737q0 131 46 239.5t131 188.5t202.5 129t263.5 62v51q0 16 7 21.5t21 5.5h105q16 0 21 -5.5t5 -21.5v-51q156 -10 278 -58.5t207 -128t129 -189.5t44 -243t-47 -240.5t-133 -187.5t-208 -128t-270 -60v-94q0 -16 -5 -21.5t-21 -5.5h-105q-14 0 -21 5t-7 22v94 q-154 12 -274 60t-201.5 128t-124.5 188.5t-43 239.5zM264 737q0 -96 29 -179t89 -147.5t153.5 -106.5t220.5 -52v973q-119 -10 -210 -51t-153.5 -107t-95.5 -151t-33 -179zM915 250q129 8 224.5 49t158 106.5t93 150.5t30.5 181t-30.5 181.5t-93 152t-158 107.5t-224.5 47 v-975z" />
<glyph unicode="&#x425;" horiz-adv-x="1122" d="M21.5 7q-3.5 7 3.5 18l444 718l-410 670q-4 6 -1 14.5t16 8.5h119q23 0 30.5 -4.5t16.5 -20.5l323 -537l322 537q14 25 49 25h110q27 0 13 -27l-406 -661l447 -723q4 -8 1 -16.5t-16 -8.5h-122q-20 0 -29.5 6t-18.5 19l-354 593l-354 -593q-14 -25 -47 -25h-119 q-14 0 -17.5 7z" />
<glyph unicode="&#x426;" horiz-adv-x="1427" d="M154 113v1296q0 16 6 20.5t22 4.5h101q16 0 22 -4.5t6 -20.5v-1270h766v1270q0 16 7.5 21.5t21.5 5.5h100q16 0 22.5 -5.5t6.5 -21.5v-1264l72 -4q49 -2 57 -26.5t6 -46.5l-22 -375q0 -29 -23 -29h-82q-20 0 -22 29l-13 307h-946q-51 0 -79.5 27.5t-28.5 85.5z" />
<glyph unicode="&#x427;" horiz-adv-x="1267" d="M82 1026v383q0 16 6 21.5t23 5.5h100q16 0 22.5 -5.5t6.5 -21.5v-360q0 -98 24.5 -167t77.5 -112t139 -62.5t207 -19.5q53 0 128 6t140 23v692q0 16 6.5 21.5t22.5 5.5h100q14 0 21.5 -5.5t7.5 -21.5v-1382q0 -16 -7 -21.5t-22 -5.5h-100q-16 0 -22.5 5t-6.5 22v548 q-63 -12 -140 -18t-138 -6q-295 0 -445.5 108.5t-150.5 366.5z" />
<glyph unicode="&#x428;" horiz-adv-x="1964" d="M154 113v1296q0 16 6 20.5t20 4.5h107q16 0 22 -4.5t6 -20.5v-1270h594v1270q0 16 6.5 21.5t22.5 5.5h98q16 0 22.5 -5.5t6.5 -21.5v-1270h586v1270q0 16 6 20.5t22 4.5h101q16 0 22 -4.5t6 -20.5v-1296q0 -57 -27.5 -85t-74.5 -28h-1454q-98 0 -98 113z" />
<glyph unicode="&#x429;" horiz-adv-x="2000" d="M154 113v1296q0 16 6 20.5t22 4.5h105q16 0 22 -4.5t6 -20.5v-1270h594v1270q0 16 6.5 21.5t22.5 5.5h98q16 0 22.5 -5.5t6.5 -21.5v-1270h586v1270q0 16 6 21.5t22 5.5h101q16 0 22 -5.5t6 -21.5v-1262l72 -2q49 -4 57.5 -28.5t6.5 -44.5l-23 -379q0 -29 -23 -29h-81 q-20 0 -23 29l-12 307h-1528q-100 0 -100 113z" />
<glyph unicode="&#x42a;" horiz-adv-x="1644" d="M10 1321v84q0 16 5 22.5t22 6.5h555q109 0 108 -115v-438h383q166 0 262.5 -49.5t146.5 -118t64.5 -144t14.5 -131.5q0 -94 -35 -175t-96.5 -139t-146.5 -91t-185 -33h-471q-53 0 -75.5 21.5t-22.5 72.5v1200h-502q-16 0 -21.5 5.5t-5.5 21.5zM700 145h387q98 0 160 32 t96.5 78t48 100.5t13.5 97.5q0 61 -19.5 113t-59.5 92t-99.5 62.5t-136.5 22.5h-390v-598z" />
<glyph unicode="&#x42b;" horiz-adv-x="1644" d="M154 94v1315q0 16 7 21.5t21 5.5h103q16 0 22 -5.5t6 -21.5v-528h387q166 0 262.5 -49.5t145.5 -118t63.5 -144t14.5 -131.5q0 -94 -35 -175t-96.5 -139t-145.5 -91t-184 -33h-475q-51 0 -73.5 21.5t-22.5 72.5zM313 145h392q98 0 159.5 32t96 78t48 100.5t13.5 97.5 q0 61 -19.5 113t-59.5 92t-99.5 62.5t-136.5 22.5h-394v-598zM1331 27v1380q0 16 6 21.5t23 5.5h102q16 0 22.5 -5.5t6.5 -21.5v-1380q0 -16 -6 -21.5t-23 -5.5h-102q-16 0 -22.5 5t-6.5 22z" />
<glyph unicode="&#x42c;" horiz-adv-x="1261" d="M154 94v1315q0 16 7 21.5t21 5.5h103q16 0 22 -5.5t6 -21.5v-528h387q166 0 262.5 -49.5t145.5 -118t63.5 -144t14.5 -131.5q0 -94 -35 -175t-96.5 -139t-145.5 -91t-184 -33h-475q-51 0 -73.5 21.5t-22.5 72.5zM313 145h392q98 0 159.5 32t96 78t48 100.5t13.5 97.5 q0 61 -19.5 113t-59.5 92t-99.5 62.5t-136.5 22.5h-394v-598z" />
<glyph unicode="&#x42d;" horiz-adv-x="1220" d="M58.5 90q-3.5 8 7.5 29l34 71q4 10 13.5 15.5t27.5 -2.5q76 -35 161 -56.5t177 -21.5q127 0 214 42t141.5 117.5t80 179t29.5 226.5h-618q-16 0 -21.5 6t-5.5 23v80q0 16 5 22t22 6h616q-8 102 -35.5 190.5t-81 152t-132.5 99.5t-187 36q-78 0 -162 -16.5t-162 -51.5 q-25 -10 -32 10l-37 80q-8 18 -5 26.5t15 14.5q104 53 205.5 69.5t187.5 16.5q137 0 246.5 -44t186.5 -132t118 -220t41 -310q0 -385 -158.5 -578t-443.5 -193q-47 0 -101.5 3.5t-110.5 14.5t-112.5 29.5t-107.5 49.5q-12 8 -15.5 16z" />
<glyph unicode="&#x42e;" horiz-adv-x="1835" d="M154 27v1380q0 16 6 21.5t22 5.5h99q16 0 22 -5.5t6 -21.5v-580h266q12 145 56.5 262t118 198t175 125t228.5 44q141 0 247.5 -52t178.5 -148.5t107.5 -232.5t35.5 -306q0 -174 -37.5 -311.5t-111.5 -232.5t-181.5 -145.5t-246.5 -50.5q-160 0 -267.5 58.5t-174 157 t-96 226.5t-34.5 267h-264v-659q0 -16 -6 -21.5t-22 -5.5h-99q-16 0 -22 5t-6 22zM729 717q0 -125 22.5 -234.5t71.5 -190.5t128 -127t194 -46t194.5 47t129 128t71 189.5t21.5 233.5t-20.5 234.5t-68 189.5t-125 126t-194.5 46q-115 0 -194.5 -46t-131 -127t-75 -189.5 t-23.5 -233.5z" />
<glyph unicode="&#x42f;" horiz-adv-x="1282" d="M74 18v13q29 104 57.5 207.5t56.5 210.5q23 78 66 134t129 89q-121 45 -180.5 141t-59.5 221q0 86 30 159t84 127t132 85t176 31h465q55 0 75.5 -23.5t20.5 -71.5v-1316q0 -16 -6 -20.5t-22 -4.5h-105q-16 0 -22 4t-6 21v604h-322q-53 0 -98 -9.5t-83 -33t-66.5 -63.5 t-47.5 -103l-108 -397q-6 -16 -15.5 -19.5t-19.5 -3.5h-111q-12 0 -16 6t-4 12zM301 1028q0 -117 71.5 -189.5t223.5 -72.5h369v524h-381q-78 0 -131.5 -22.5t-87 -59.5t-49 -84t-15.5 -96z" />
<glyph unicode="&#x430;" horiz-adv-x="1085" d="M90 313q0 76 26.5 142.5t81 116t136.5 77t194 27.5h273v55q0 51 -10.5 95t-39 75t-79.5 48.5t-133 17.5q-68 0 -149 -13.5t-138 -31.5q-14 -4 -22.5 -3t-12.5 15l-20 74q-6 23 16 30q37 14 80 25.5t89 20t93 11.5t88 3q199 0 294 -88t95 -258v-658q0 -37 -28 -49 q-92 -39 -196.5 -53.5t-201.5 -14.5q-131 0 -215 29t-133 75t-68.5 106.5t-19.5 125.5zM240 313q0 -61 23.5 -102t63.5 -65.5t91 -34t106 -9.5q18 0 50 2t71 6.5t79 13.5t75 21v400h-264q-37 0 -88.5 -6.5t-97.5 -30t-77.5 -69.5t-31.5 -126z" />
<glyph unicode="&#x431;" horiz-adv-x="1122" d="M88 496q0 184 12.5 335.5t56.5 267t130 196.5t231 124q39 12 84 22.5t91 19.5t90 17.5t81 16.5q14 4 23.5 1t13.5 -19l21 -68q8 -27 -23 -39q-184 -39 -302 -70.5t-188.5 -80t-102.5 -124t-46 -202.5q2 0 4 -2q78 57 173 85t175 28q123 0 204 -44.5t129 -116t66.5 -162.5 t18.5 -183q0 -86 -22.5 -178.5t-79 -168t-151.5 -125t-240 -49.5q-141 0 -229.5 46.5t-137.5 120t-65.5 166.5t-16.5 186zM233 485q0 -80 14.5 -149.5t50.5 -121.5t96.5 -82t150.5 -30q98 0 161.5 36t101.5 92.5t53.5 125t15.5 133.5q0 70 -11.5 139.5t-43 126t-87 91.5 t-143.5 35q-82 0 -175 -34t-171 -93q-8 -100 -10.5 -159.5t-2.5 -109.5z" />
<glyph unicode="&#x432;" horiz-adv-x="1116" d="M133 76v923q0 76 82 76h438q141 0 232.5 -64.5t91.5 -201.5q0 -68 -36 -130.5t-107 -90.5l-3 -10q55 -16 92.5 -44t60 -64t31.5 -77t9 -80q0 -70 -26.5 -127t-73.5 -99t-111.5 -64.5t-142.5 -22.5h-455q-82 0 -82 76zM283 119h354q74 0 120 20.5t70.5 51t33.5 66.5t9 67 q0 86 -58 138t-175 52h-354v-395zM283 635h360q25 0 56.5 7t59 25.5t46 49.5t18.5 78q0 63 -44 107t-122 44h-374v-311z" />
<glyph unicode="&#x433;" horiz-adv-x="929" d="M139 33v739q0 61 13.5 116.5t48.5 97.5t94 65.5t151 23.5h433q20 0 25 -9t5 -26v-65q0 -16 -5 -23.5t-25 -7.5h-430q-86 0 -123 -36t-37 -109v-766q0 -20 -6.5 -26.5t-26.5 -6.5h-82q-18 0 -26.5 6t-8.5 27z" />
<glyph unicode="&#x434;" horiz-adv-x="1232" d="M14 49q-2 23 9.5 43.5t50.5 24.5l49 6q53 57 78.5 138t42.5 192l82 534q6 47 32.5 67.5t79.5 20.5h514q59 0 74.5 -24.5t15.5 -63.5v-864l56 -4q41 -4 50 -25.5t7 -40.5l-20 -344q0 -25 -21 -24h-92q-16 0 -18 24l-11 291h-813l-20 -293q0 -12 -7.5 -17t-15.5 -5h-84 q-16 0 -18 22zM287 123h606v819h-434l-62 -416q-14 -92 -25.5 -155.5t-23.5 -109.5t-26.5 -77.5t-34.5 -60.5z" />
<glyph unicode="&#x435;" horiz-adv-x="1091" d="M92 532q0 137 35 243t97.5 177.5t147.5 108.5t187 37q117 0 201 -34t138 -95.5t81 -145.5t27 -184q0 -86 -40 -113.5t-98 -27.5h-624q0 -106 26.5 -181t72.5 -121t108.5 -66.5t134.5 -20.5q68 0 132 16t109 41q25 12 35 -8l37 -72q12 -25 -10 -35q-72 -43 -154 -58.5 t-160 -15.5q-225 0 -354 132.5t-129 422.5zM250 621h612q0 70 -14 133t-48 111t-93.5 77t-147.5 29q-72 0 -128 -28t-95 -75t-60.5 -110.5t-25.5 -136.5z" />
<glyph unicode="&#x436;" horiz-adv-x="1570" d="M55 31l105 354q20 68 54 119t112 74l-2 4q-55 25 -85 77t-49 117l-77 271q-2 10 2 19t20 9h90q8 0 16.5 -3t12.5 -19l80 -265q14 -47 34.5 -77.5t47 -47t56.5 -22.5t63 -6h176v414q0 16 6 21t22 5h92q16 0 22.5 -5t6.5 -21v-414h176q33 0 62.5 6t56.5 22.5t47.5 47 t34.5 77.5l80 265q4 16 12 19t17 3h90q16 0 19 -9t1 -19l-76 -271q-18 -66 -49 -118t-86 -76l-2 -4q39 -12 66.5 -31t46 -43.5t32 -55t23.5 -63.5l102 -354q2 -10 1 -20.5t-21 -10.5h-98q-8 0 -16.5 3t-12.5 17l-100 342q-25 84 -84.5 118t-122.5 34h-199v-487 q0 -16 -6 -21.5t-23 -5.5h-92q-16 0 -22 5t-6 22v487h-199q-66 0 -124 -34t-83 -118l-100 -342q-4 -14 -12.5 -17t-16.5 -3h-98q-20 0 -22.5 10t-0.5 21z" />
<glyph unicode="&#x437;" horiz-adv-x="962" d="M43 86l33 70q10 16 18 16q6 0 19 -6q53 -23 136 -44.5t167 -21.5q168 0 242.5 62.5t74.5 154.5q0 84 -75.5 136.5t-247.5 52.5q-29 0 -43.5 9t-14.5 36v33q0 47 56 47q154 0 217 48t63 126q0 82 -67.5 122t-184.5 40q-72 0 -146.5 -18.5t-127.5 -41.5q-12 -4 -17 -4 q-14 0 -20 15l-27 65q-6 12 -6 21q0 8 14 16q152 76 347 76q176 0 279.5 -71t103.5 -206q0 -78 -46.5 -144.5t-138.5 -101.5l2 -6q113 -23 168.5 -93.5t55.5 -162.5q0 -68 -27 -128t-82 -105t-138 -71.5t-194 -26.5q-47 0 -99 4t-104.5 13t-99.5 23.5t-84 34.5q-14 8 -6 31z " />
<glyph unicode="&#x438;" horiz-adv-x="1159" d="M133 72v977q0 29 29 28h92q29 0 29 -28v-836l6 -2q8 12 27.5 42t41 63.5t41 64.5t27.5 41q14 23 45 69t69 104t81 122.5t81.5 123t70.5 106.5t50 73q18 31 33.5 43t52.5 12h45q70 0 70 -71v-977q0 -16 -6 -21.5t-23 -5.5h-92q-16 0 -22.5 5t-6.5 22v829h-10 q-6 -8 -22.5 -34.5t-36 -57.5t-36.5 -57.5t-24 -34.5l-413 -617q-20 -33 -39 -44t-47 -11h-39q-74 0 -74 72z" />
<glyph unicode="&#x439;" horiz-adv-x="1159" d="M133 72v977q0 29 29 28h92q29 0 29 -28v-836l6 -2q8 12 27.5 42t41 63.5t41 64.5t27.5 41q14 23 45 69t69 104t81 122.5t81.5 123t70.5 106.5t50 73q18 31 33.5 43t52.5 12h45q70 0 70 -71v-977q0 -16 -6 -21.5t-23 -5.5h-92q-16 0 -22.5 5t-6.5 22v829h-10 q-6 -8 -22.5 -34.5t-36 -57.5t-36.5 -57.5t-24 -34.5l-413 -617q-20 -33 -39 -44t-47 -11h-39q-74 0 -74 72zM248 1428.5q-2 9.5 10 19.5l35 29q16 10 22.5 6t16.5 -15q55 -68 120.5 -103.5t125.5 -35.5q47 0 105 27.5t136 116.5q14 14 20.5 14t16.5 -6l35 -27 q16 -14 12 -24.5t-10 -18.5q-78 -111 -161 -158t-161 -47q-98 0 -180 59.5t-137 147.5q-4 6 -6 15.5z" />
<glyph unicode="&#x43a;" horiz-adv-x="1026" d="M131 27v1022q0 16 7 21t24 5h90q16 0 22.5 -5t6.5 -21v-414h213q33 0 62.5 6t55 22.5t46 47t34.5 77.5l82 265q4 16 11.5 19t17.5 3h92q16 0 19.5 -9t0.5 -19l-77 -271q-18 -66 -48 -118t-85 -76l-3 -4q78 -23 112 -74t54 -119l105 -354q2 -10 0 -20.5t-21 -10.5h-100 q-8 0 -16.5 3t-12.5 17l-100 342q-27 86 -84 119t-123 33h-235v-487q0 -16 -6.5 -21.5t-22.5 -5.5h-90q-16 0 -23.5 5t-7.5 22z" />
<glyph unicode="&#x43b;" horiz-adv-x="1134" d="M14 55q-4 16 0 23.5t21 15.5q63 27 103 68t65.5 112.5t40 186t26.5 291.5l17 231q2 49 26.5 70.5t65.5 21.5h534q53 0 70.5 -23.5t17.5 -68.5v-956q0 -16 -7 -21.5t-25 -5.5h-82q-16 0 -24.5 5t-8.5 22v917h-434l-12 -166q-16 -203 -33 -341t-49.5 -230t-91 -145.5 t-156.5 -86.5q-12 -4 -23.5 -5t-17.5 16z" />
<glyph unicode="&#x43c;" horiz-adv-x="1404" d="M133 27v981q0 25 15.5 46t56.5 21h55q31 0 48.5 -10t33.5 -45t49 -102.5t69 -141.5t68.5 -141.5t49.5 -102.5l120 -260h7q12 25 33.5 72t46 98.5t46 98.5t33.5 69q14 27 42 84.5t58.5 121t58.5 120.5t42 84q16 35 31.5 45t50.5 10h53q41 0 56.5 -21.5t15.5 -45.5v-981 q0 -16 -6 -21.5t-23 -5.5h-88q-16 0 -22.5 5t-6.5 22v817h-8l-92 -197q-6 -14 -26.5 -57t-51 -105.5t-68.5 -141.5t-81 -167q-14 -29 -28.5 -41t-47.5 -12h-41q-33 0 -48.5 11t-29.5 42l-221 453q-6 10 -19.5 38.5t-29 62.5t-29.5 62.5t-18 38.5h-8v-804q0 -16 -7.5 -21.5 t-23.5 -5.5h-86q-16 0 -22.5 5t-6.5 22z" />
<glyph unicode="&#x43d;" horiz-adv-x="1148" d="M139 31v1013q0 18 9.5 24.5t25.5 6.5h84q16 0 24.5 -6t8.5 -25v-403h569v403q0 18 8.5 24.5t24.5 6.5h84q18 0 24.5 -6t6.5 -25v-1013q0 -18 -6.5 -24.5t-24.5 -6.5h-84q-16 0 -24.5 6t-8.5 25v481h-569v-481q0 -18 -8.5 -24.5t-24.5 -6.5h-84q-16 0 -25.5 6t-9.5 25z " />
<glyph unicode="&#x43e;" horiz-adv-x="1126" d="M92 537q0 135 35 240.5t98.5 176t149.5 107.5t190 37q229 0 349 -146.5t120 -408.5q0 -274 -123 -420t-352 -146q-227 0 -347 142.5t-120 417.5zM242 543q0 -96 16 -176t53 -139.5t98.5 -92.5t151.5 -33q92 0 154.5 38t99.5 99.5t52.5 139.5t15.5 158q0 84 -14.5 162.5 t-49.5 139t-97.5 96.5t-156.5 36q-86 0 -147.5 -35t-100 -93.5t-57 -136t-18.5 -163.5z" />
<glyph unicode="&#x43f;" horiz-adv-x="1161" d="M133 27v970q0 23 16.5 50.5t63.5 27.5h735q47 0 63.5 -27.5t16.5 -50.5v-970q0 -16 -6 -21.5t-23 -5.5h-94q-16 0 -22 5t-6 22v917h-594v-917q0 -16 -6.5 -21.5t-22.5 -5.5h-92q-14 0 -21.5 5t-7.5 22z" />
<glyph unicode="&#x440;" horiz-adv-x="1128" d="M133 -391v1382q0 25 23 33q98 43 205.5 58.5t205.5 15.5q121 0 210 -41t146.5 -115t85 -176t27.5 -225q0 -119 -28.5 -221.5t-88 -178t-148.5 -120t-208 -44.5q-59 0 -131 8.5t-149 30.5v-407q0 -16 -5.5 -20.5t-21.5 -4.5h-94q-14 0 -21.5 4t-7.5 21zM283 150 q86 -29 148.5 -36.5t109.5 -7.5q74 0 136 24t107 76t71 135t26 200q0 121 -25 202.5t-70 132t-106.5 72t-136.5 21.5q-55 0 -130 -11.5t-130 -33.5v-774z" />
<glyph unicode="&#x441;" horiz-adv-x="968" d="M92 526q0 133 34 238.5t96.5 179.5t152.5 114t200 40q80 0 154 -16.5t145 -55.5q25 -14 11 -37l-37 -69q-4 -10 -11.5 -14.5t-23.5 3.5q-51 23 -109.5 39.5t-128.5 16.5q-90 0 -152.5 -36t-103 -97.5t-59 -140.5t-18.5 -165q0 -88 16 -164.5t55 -133t104 -89.5t161 -33 q72 0 140 18.5t116 45.5q16 8 23 4t13 -14l33 -72q10 -12 6 -20.5t-14 -16.5q-78 -41 -166 -57.5t-172 -16.5q-229 0 -347 137.5t-118 411.5z" />
<glyph unicode="&#x442;" horiz-adv-x="925" d="M20 975v67q0 16 6.5 24.5t26.5 8.5h821q20 0 25.5 -8t5.5 -25v-67q0 -14 -5 -21.5t-26 -7.5h-346v-913q0 -20 -7 -26.5t-23 -6.5h-84q-18 0 -25.5 6t-7.5 27v913h-328q-20 0 -26.5 7.5t-6.5 21.5z" />
<glyph unicode="&#x443;" horiz-adv-x="980" d="M25 1055q-6 20 14 20h113q14 0 18 -4t8 -14q14 -45 42 -129t58.5 -175t57 -175t43.5 -129q6 -16 19.5 -64.5t29.5 -104t30.5 -104.5t20.5 -65h10q12 37 30 92t35 109.5t30.5 97.5t17.5 53q6 14 25.5 72.5t48.5 142.5t63.5 182t69.5 195q4 10 8 15t19 5h106q23 0 16 -20 l-421 -1235q-47 -139 -116 -193.5t-177 -54.5q-29 0 -71 3t-93 19q-29 8 -23 31l21 76q4 14 11 16t20 -2q43 -10 64.5 -13t45.5 -3q33 0 59.5 5t48 20.5t40 43t32.5 72.5l62 168h-35q-23 0 -41 8.5t-33 51.5z" />
<glyph unicode="&#x444;" horiz-adv-x="1429" d="M92 539q0 129 40 230t111.5 171t172 107.5t221.5 42.5v380q0 16 6 21.5t23 5.5h96q16 0 22.5 -5t6.5 -22v-380q123 -4 224 -42t173 -109t110.5 -171t38.5 -229q0 -117 -33.5 -217.5t-102 -174t-171 -117.5t-239.5 -53v-366q0 -16 -6.5 -21.5t-22.5 -5.5h-96 q-16 0 -22.5 5t-6.5 22v366q-135 8 -237.5 53.5t-171 119t-102.5 173t-34 216.5zM236 535q0 -82 23.5 -157t72.5 -134.5t124.5 -97t180.5 -46.5v863q-205 -10 -303 -126t-98 -302zM791 100q111 8 186.5 46t123.5 97.5t69.5 134.5t21.5 157q0 186 -98.5 301.5t-302.5 126.5 v-863z" />
<glyph unicode="&#x445;" horiz-adv-x="929" d="M20 27l359 544l-309 478q-4 6 -4 16t16 10h115q16 0 24 -5t15 -15l233 -377l236 377q6 10 13 15t23 5h111q16 0 17 -9t-3 -13l-315 -475l360 -553q4 -6 4 -15.5t-16 -9.5h-125q-20 0 -26.5 5t-12.5 15l-272 445l-281 -442q-6 -10 -14 -16.5t-25 -6.5h-110q-27 0 -13 27z " />
<glyph unicode="&#x446;" horiz-adv-x="1187" d="M133 98v946q0 18 8.5 24.5t24.5 6.5h84q20 0 26.5 -6t6.5 -25v-921h579v921q0 18 8.5 24.5t26.5 6.5h84q16 0 24.5 -6t8.5 -25v-917l53 -4q43 -4 51 -25.5t8 -40.5l-20 -354q-2 -23 -21 -22h-94q-16 0 -18 22l-10 297h-742q-43 0 -65.5 26.5t-22.5 71.5z" />
<glyph unicode="&#x447;" horiz-adv-x="1054" d="M72 807v242q0 16 7 21t21 5h95q16 0 22 -5t6 -21v-246q0 -154 65.5 -212.5t219.5 -58.5q55 0 130 8.5t134 30.5v478q0 16 5 21t22 5h94q16 0 22.5 -5t6.5 -21v-1022q0 -16 -6.5 -21.5t-22.5 -5.5h-92q-16 0 -22.5 5t-6.5 22v415q-35 -10 -74 -18t-76.5 -13t-73.5 -8.5 t-63 -3.5q-221 0 -317 101.5t-96 306.5z" />
<glyph unicode="&#x448;" horiz-adv-x="1695" d="M133 98v946q0 18 8.5 24.5t24.5 6.5h84q20 0 26.5 -6t6.5 -25v-921h491v921q0 18 7 24.5t28 6.5h80q16 0 24.5 -6t8.5 -25v-921h491v921q0 18 8.5 24.5t24.5 6.5h86q16 0 23.5 -6t7.5 -25v-946q0 -45 -21.5 -71.5t-66.5 -26.5h-1254q-43 0 -65.5 26.5t-22.5 71.5z" />
<glyph unicode="&#x449;" horiz-adv-x="1736" d="M133 98v946q0 18 8.5 24.5t24.5 6.5h84q20 0 26.5 -6t6.5 -25v-921h491v921q0 18 7 24.5t28 6.5h80q16 0 24.5 -6t8.5 -25v-921h491v921q0 18 8.5 24.5t24.5 6.5h84q16 0 24.5 -6t8.5 -25v-917l53 -4q43 -4 51 -25.5t8 -40.5l-22 -354q-2 -23 -21 -22h-92q-16 0 -18 22 l-11 297h-1290q-43 0 -65.5 26.5t-22.5 71.5z" />
<glyph unicode="&#x44a;" horiz-adv-x="1376" d="M20 973v74q0 14 5.5 21t21.5 7h440q35 0 56.5 -19.5t21.5 -60.5l-2 -288h344q125 0 202 -39t119 -94.5t56 -116t14 -103.5q0 -72 -27.5 -136t-75.5 -112.5t-114.5 -77t-144.5 -28.5h-434q-51 0 -70.5 28.5t-19.5 67.5v848h-365q-16 0 -21.5 6t-5.5 23zM563 125h342 q76 0 124 24.5t76 60.5t37 75.5t9 70.5q0 43 -14.5 84t-45 73t-76.5 50.5t-110 18.5h-342v-457z" />
<glyph unicode="&#x44b;" horiz-adv-x="1427" d="M133 94v950q0 18 6 24.5t23 6.5h86q18 0 25.5 -6t7.5 -25v-339h344q125 0 201.5 -39t118.5 -93.5t56.5 -115t14.5 -103.5q0 -72 -27.5 -136t-76 -112.5t-114 -77t-143.5 -28.5h-434q-51 0 -69.5 27.5t-18.5 66.5zM281 123h344q76 0 124 24.5t75.5 61.5t36.5 77t9 70 q0 43 -14 84t-45 73t-77 50.5t-109 18.5h-344v-459zM1145 29v1015q0 18 7 24.5t24 6.5h84q16 0 24 -6t8 -25v-1015q0 -18 -8 -23.5t-24 -5.5h-84q-16 0 -23.5 5t-7.5 24z" />
<glyph unicode="&#x44c;" horiz-adv-x="1097" d="M133 94v950q0 18 6 24.5t23 6.5h86q18 0 25.5 -6t7.5 -25v-339h344q125 0 201.5 -39t118.5 -93.5t56.5 -115t14.5 -103.5q0 -72 -27.5 -136t-76 -112.5t-114 -77t-143.5 -28.5h-434q-51 0 -69.5 27.5t-18.5 66.5zM281 123h344q76 0 124 24.5t75.5 61.5t36.5 77t9 70 q0 43 -14 84t-45 73t-77 50.5t-109 18.5h-344v-459z" />
<glyph unicode="&#x44d;" horiz-adv-x="968" d="M59 86l35 74q10 23 35 10q49 -23 116.5 -43.5t139.5 -20.5q92 0 156.5 31t106.5 85t61.5 128t19.5 162h-442q-10 0 -15.5 4t-5.5 21v79q0 20 19 21h438q-10 147 -82 236.5t-231 89.5q-72 0 -134.5 -16.5t-115.5 -39.5q-16 -6 -23.5 -3t-11.5 14l-29 69q-6 16 -5 22.5 t11 14.5q72 39 153 56.5t161 17.5q223 0 344 -134.5t121 -402.5q0 -287 -122 -435.5t-364 -148.5q-82 0 -168 15.5t-157 56.5q-23 12 -11 37z" />
<glyph unicode="&#x44e;" horiz-adv-x="1470" d="M133 33v1011q0 18 8.5 24.5t24.5 6.5h82q23 0 29 -6t6 -25v-413h192q25 223 143.5 345t309.5 122q223 0 336.5 -146.5t113.5 -408.5q0 -272 -118.5 -419t-335.5 -147q-219 0 -331 139.5t-120 387.5h-190v-471q0 -20 -6.5 -26.5t-28.5 -6.5h-82q-16 0 -24.5 6t-8.5 27z M621 543q0 -96 15 -177t51 -139.5t94.5 -91.5t146.5 -33q86 0 143 37t92 97.5t50.5 138.5t15.5 162q0 88 -14.5 166.5t-49.5 138t-93 94.5t-144 35q-78 0 -135.5 -33t-96.5 -90t-57 -135t-18 -170z" />
<glyph unicode="&#x44f;" horiz-adv-x="1101" d="M55 18q0 4 1 5.5t1 5.5l95 301q16 57 46.5 101t102.5 63q-2 0 -2 4q-100 27 -143 102.5t-43 165.5q0 63 22.5 119.5t66.5 98.5t107.5 66.5t145.5 24.5h432q37 0 58.5 -19.5t21.5 -58.5v-974q0 -16 -7.5 -19.5t-23.5 -3.5h-90q-16 0 -22.5 4t-6.5 21v430h-289 q-41 0 -76.5 -5.5t-65.5 -20.5t-52.5 -45t-38.5 -81q-23 -70 -43.5 -139.5t-40.5 -140.5q-4 -14 -14.5 -18.5t-18.5 -4.5h-100q-23 0 -23 18zM260 764q0 -84 50 -136.5t167 -52.5h340v371h-352q-53 0 -92 -15.5t-63.5 -41t-37 -58t-12.5 -67.5z" />
<glyph unicode="&#x451;" horiz-adv-x="1091" d="M92 532q0 137 35 243t97.5 177.5t147.5 108.5t187 37q117 0 201 -34t138 -95.5t81 -145.5t27 -184q0 -86 -40 -113.5t-98 -27.5h-624q0 -106 26.5 -181t72.5 -121t108.5 -66.5t134.5 -20.5q68 0 132 16t109 41q25 12 35 -8l37 -72q12 -25 -10 -35q-72 -43 -154 -58.5 t-160 -15.5q-225 0 -354 132.5t-129 422.5zM250 621h612q0 70 -14 133t-48 111t-93.5 77t-147.5 29q-72 0 -128 -28t-95 -75t-60.5 -110.5t-25.5 -136.5zM283 1386q0 37 29.5 66t68.5 29q37 0 66.5 -29t29.5 -66q0 -41 -29.5 -69.5t-66.5 -28.5q-39 0 -68.5 29t-29.5 69z M643 1386q0 37 28.5 66t69.5 29q37 0 67 -28t30 -67q0 -41 -30 -69.5t-67 -28.5q-41 0 -69.5 29t-28.5 69z" />
<glyph unicode="&#x452;" horiz-adv-x="1120" d="M39 1249v47q0 12 3 18.5t17 6.5h88v149q0 16 7.5 21.5t21.5 5.5h92q16 0 22.5 -5t6.5 -22v-149h451q16 0 19 -6t3 -19v-47q0 -14 -3 -19t-19 -5h-451v-238q74 29 151.5 39t137.5 10q129 0 216 -44t140 -117.5t75.5 -169t22.5 -195.5q0 -96 -23.5 -187.5t-67.5 -173 t-106.5 -148.5t-140.5 -112q-10 -4 -17 -4t-15 11l-47 65q-12 14 8 29q115 76 186.5 204t71.5 306q0 94 -17.5 169.5t-57.5 128t-103.5 81t-153.5 28.5q-49 0 -120.5 -11t-139.5 -40v-829q0 -16 -6 -21.5t-23 -5.5h-92q-14 0 -21.5 5t-7.5 22v1198h-88q-14 0 -17 5t-3 19z " />
<glyph unicode="&#x453;" horiz-adv-x="929" d="M139 33v739q0 61 13.5 116.5t48.5 97.5t94 65.5t151 23.5h433q20 0 25 -9t5 -26v-65q0 -16 -5 -23.5t-25 -7.5h-430q-86 0 -123 -36t-37 -109v-766q0 -20 -6.5 -26.5t-26.5 -6.5h-82q-18 0 -26.5 6t-8.5 27zM415 1265.5q-3 4.5 5 20.5l133 305q4 10 11 16.5t24 4.5 l121 -31q31 -6 12 -29l-207 -301q-14 -20 -37 -12l-49 18q-10 4 -13 8.5z" />
<glyph unicode="&#x454;" horiz-adv-x="968" d="M92 526q0 268 130 418t353 154q162 4 299 -72q25 -14 11 -37l-37 -69q-4 -10 -11.5 -14.5t-23.5 3.5q-51 23 -109.5 39.5t-128.5 16.5q-78 -2 -136 -30t-98 -74t-63.5 -107.5t-29.5 -130.5h440q12 0 14.5 -6.5t2.5 -14.5v-80q0 -27 -17 -26h-444q2 -84 19.5 -155t56 -123 t102.5 -82t156 -30q72 0 140 18.5t116 45.5q16 8 23 4t13 -14l33 -72q10 -12 6 -20.5t-14 -16.5q-78 -41 -166 -57.5t-172 -16.5q-229 0 -347 137.5t-118 411.5z" />
<glyph unicode="&#x455;" horiz-adv-x="929" d="M71 70.5q-5 9.5 3 23.5l32 70q10 25 39 14q82 -39 169 -56.5t159 -17.5q104 0 170 43t66 129q0 82 -70 129.5t-197 94.5q-88 31 -149.5 61.5t-100 66.5t-56 79t-17.5 102q0 125 92 207t266 82q84 0 162 -13.5t156 -46.5q23 -10 14 -34l-33 -80q-6 -10 -12 -11.5t-16 2.5 q-78 31 -141.5 43.5t-133.5 12.5q-94 0 -150.5 -43t-56.5 -111q0 -39 14.5 -66.5t45 -50t80 -44t118.5 -46.5q68 -25 127.5 -53.5t104.5 -66t71.5 -87.5t26.5 -120q0 -76 -28.5 -133.5t-80 -95.5t-121 -57.5t-151.5 -19.5q-94 0 -199.5 18.5t-187.5 61.5q-10 4 -15 13.5z " />
<glyph unicode="&#x456;" horiz-adv-x="503" d="M150 1370q0 43 30.5 74t71.5 31q43 0 72.5 -31t29.5 -74t-29.5 -71.5t-72.5 -28.5q-41 0 -71.5 28.5t-30.5 71.5zM176 27v1022q0 16 7 21t22 5h92q16 0 22.5 -5t6.5 -21v-1022q0 -16 -6.5 -21.5t-22.5 -5.5h-92q-14 0 -21.5 5t-7.5 22z" />
<glyph unicode="&#x457;" horiz-adv-x="528" d="M-12 1372q0 37 29.5 65.5t68.5 28.5q37 0 66.5 -28.5t29.5 -65.5q0 -41 -29.5 -69.5t-66.5 -28.5q-39 0 -68.5 28.5t-29.5 69.5zM188 27v1022q0 16 6.5 21t22.5 5h94q14 0 20.5 -5t6.5 -21v-1022q0 -16 -6 -21.5t-21 -5.5h-94q-16 0 -22.5 5t-6.5 22zM348 1372 q0 37 29 65.5t69 28.5q37 0 67 -27.5t30 -66.5q0 -41 -30 -69.5t-67 -28.5q-41 0 -69.5 28.5t-28.5 69.5z" />
<glyph unicode="&#x458;" horiz-adv-x="532" d="M-55 -346q-8 18 16 29q76 33 122 77.5t71.5 99t35 116t9.5 128.5v945q0 16 7 21t21 5h97q16 0 21 -5t5 -21v-924q0 -137 -27.5 -234.5t-74.5 -165t-110.5 -108.5t-133.5 -68q-12 -4 -19.5 0.5t-9.5 14.5zM172 1370q0 43 29.5 74t72.5 31q41 0 72 -31t31 -74t-31 -71.5 t-72 -28.5q-43 0 -72.5 28.5t-29.5 71.5z" />
<glyph unicode="&#x459;" horiz-adv-x="1695" d="M14 55q-4 16 0 23.5t21 15.5q63 27 103 68t65.5 112.5t40 186t26.5 291.5l17 231q2 49 26.5 70.5t65.5 21.5h424q47 0 63.5 -23.5t16.5 -52.5v-292h344q125 0 202.5 -39t118.5 -94.5t55.5 -116t14.5 -103.5q0 -72 -26.5 -136t-75 -112.5t-115 -77t-146.5 -28.5h-434 q-51 0 -70.5 28.5t-19.5 67.5v848h-311l-12 -166q-16 -203 -33 -341t-49.5 -230t-91 -145.5t-156.5 -86.5q-12 -4 -23.5 -5t-17.5 16zM883 125h342q76 0 124 24.5t75.5 59.5t36.5 75.5t9 71.5q0 45 -14 86t-45 72t-77 49.5t-109 18.5h-342v-457z" />
<glyph unicode="&#x45a;" horiz-adv-x="1722" d="M133 29v1015q0 18 8.5 23.5t24.5 5.5h84q16 0 24.5 -5t8.5 -24v-395h497v395q0 18 7.5 24.5t23.5 6.5h86q16 0 23.5 -6t7.5 -25v-395h336q119 0 193.5 -33.5t115.5 -83t55 -104.5t14 -98q0 -72 -25.5 -132.5t-71.5 -104.5t-110.5 -68.5t-140.5 -24.5h-424 q-53 0 -71.5 27.5t-18.5 66.5v432h-497v-497q0 -18 -8.5 -23.5t-24.5 -5.5h-84q-16 0 -24.5 5t-8.5 24zM928 123h338q74 0 119 21.5t69.5 52t32.5 67.5t8 68q0 88 -58.5 141t-174.5 53h-334v-403z" />
<glyph unicode="&#x45b;" horiz-adv-x="1136" d="M25 1249v49q0 12 3 18.5t19 6.5h86v147q0 16 7 21.5t22 5.5h92q16 0 22.5 -5t6.5 -22v-147h456q14 0 17.5 -6t3.5 -19v-49q0 -12 -3 -17t-18 -5h-456v-242q74 29 155.5 39t141.5 10q117 0 197.5 -32.5t130.5 -94t74 -149.5t24 -197l-2 -534q0 -16 -6.5 -21.5t-20.5 -5.5 h-96q-16 0 -22.5 5t-6.5 22v536q0 174 -69.5 257t-227.5 83q-59 0 -137 -10t-135 -39v-827q0 -16 -6.5 -21.5t-22.5 -5.5h-92q-14 0 -21.5 5t-7.5 22v1200h-86q-16 0 -19 5t-3 17z" />
<glyph unicode="&#x45c;" horiz-adv-x="1026" d="M131 27v1022q0 16 7 21t24 5h90q16 0 22.5 -5t6.5 -21v-414h213q33 0 62.5 6t55 22.5t46 47t34.5 77.5l82 265q4 16 11.5 19t17.5 3h92q16 0 19.5 -9t0.5 -19l-77 -271q-18 -66 -48 -118t-85 -76l-3 -4q78 -23 112 -74t54 -119l105 -354q2 -10 0 -20.5t-21 -10.5h-100 q-8 0 -16.5 3t-12.5 17l-100 342q-27 86 -84 119t-123 33h-235v-487q0 -16 -6.5 -21.5t-22.5 -5.5h-90q-16 0 -23.5 5t-7.5 22zM409 1235q-3 4 5 20l133 306q4 10 11 16t24 4l120 -31q31 -6 13 -28l-207 -301q-14 -20 -37 -13l-49 19q-10 4 -13 8z" />
<glyph unicode="&#x45e;" horiz-adv-x="980" d="M25 1055q-6 20 14 20h113q14 0 18 -4t8 -14q14 -45 42 -129t58.5 -175t57 -175t43.5 -129q6 -16 19.5 -64.5t29.5 -104t30.5 -104.5t20.5 -65h10q12 37 30 92t35 109.5t30.5 97.5t17.5 53q6 14 25.5 72.5t48.5 142.5t63.5 182t69.5 195q4 10 8 15t19 5h106q23 0 16 -20 l-421 -1235q-47 -139 -116 -193.5t-177 -54.5q-29 0 -71 3t-93 19q-29 8 -23 31l21 76q4 14 11 16t20 -2q43 -10 64.5 -13t45.5 -3q33 0 59.5 5t48 20.5t40 43t32.5 72.5l62 168h-35q-23 0 -41 8.5t-33 51.5zM180 1432.5q-2 9.5 10 19.5l35 29q16 10 22.5 6t16.5 -14 q55 -68 121 -104t125 -36q47 0 105.5 28t136.5 116q14 14 20 14t16 -6l35 -27q16 -14 12 -24.5t-10 -18.5q-78 -111 -160.5 -158t-160.5 -47q-98 0 -180 59.5t-138 147.5q-4 6 -6 15.5z" />
<glyph unicode="&#x45f;" horiz-adv-x="1159" d="M133 98v946q0 18 8.5 24.5t24.5 6.5h84q20 0 26.5 -6t6.5 -25v-921h591v921q0 18 8.5 24.5t26.5 6.5h84q16 0 24.5 -6t8.5 -25v-946q0 -45 -22.5 -71.5t-67.5 -26.5h-272l-15 -297q0 -29 -20 -29h-94q-20 0 -21 29l-14 297h-279q-43 0 -65.5 26.5t-22.5 71.5z" />
<glyph unicode="&#x490;" horiz-adv-x="1107" d="M154 33v1063q0 70 16 132t55 108t102.5 73t159.5 27l441 2v254q0 16 6 20t20 4h88q14 0 21.5 -4t7.5 -20v-291q0 -51 -26.5 -80t-88.5 -29h-467q-94 0 -136 -43t-42 -131v-1085q0 -20 -7 -26.5t-28 -6.5h-86q-18 0 -27 6t-9 27z" />
<glyph unicode="&#x491;" horiz-adv-x="954" d="M139 33v739q0 61 15.5 116.5t50.5 97.5t94 65.5t147 23.5l351 2v246q0 23 26 23h84q27 0 27 -23v-279q0 -43 -24.5 -71.5t-80.5 -28.5h-380q-86 0 -123 -36t-37 -109v-766q0 -20 -6.5 -26.5t-26.5 -6.5h-82q-18 0 -26.5 6t-8.5 27z" />
<glyph unicode="&#x4d9;" horiz-adv-x="1091" d="M90 438q0 86 39 114t94 28h627q-2 106 -28.5 181t-73 121t-107.5 66.5t-133 20.5q-68 0 -132.5 -16.5t-109.5 -41.5q-25 -12 -35 9l-36 71q-12 27 8 35q72 43 154.5 58.5t162.5 15.5q225 0 353 -132t128 -423q0 -137 -34.5 -242.5t-96 -177.5t-147.5 -108.5t-186 -36.5 q-117 0 -201 33.5t-139.5 95t-81 145.5t-25.5 184zM231 457q0 -70 13.5 -133.5t48.5 -111.5t94 -77t150 -29q72 0 127 28t94 75t60.5 110.5t25.5 137.5h-613z" />
<glyph unicode="&#x2000;" horiz-adv-x="921" />
<glyph unicode="&#x2001;" horiz-adv-x="1843" />
<glyph unicode="&#x2002;" horiz-adv-x="921" />
<glyph unicode="&#x2003;" horiz-adv-x="1843" />
<glyph unicode="&#x2004;" horiz-adv-x="614" />
<glyph unicode="&#x2005;" horiz-adv-x="460" />
<glyph unicode="&#x2006;" horiz-adv-x="307" />
<glyph unicode="&#x2007;" horiz-adv-x="307" />
<glyph unicode="&#x2008;" horiz-adv-x="230" />
<glyph unicode="&#x2009;" horiz-adv-x="368" />
<glyph unicode="&#x200a;" horiz-adv-x="102" />
<glyph unicode="&#x2010;" horiz-adv-x="727" d="M102 522v119q0 14 5.5 20.5t21.5 6.5h471q16 0 20.5 -6.5t4.5 -20.5v-119q0 -16 -4.5 -21t-20.5 -5h-471q-16 0 -21.5 5t-5.5 21z" />
<glyph unicode="&#x2011;" horiz-adv-x="727" d="M102 522v119q0 14 5.5 20.5t21.5 6.5h471q16 0 20.5 -6.5t4.5 -20.5v-119q0 -16 -4.5 -21t-20.5 -5h-471q-16 0 -21.5 5t-5.5 21z" />
<glyph unicode="&#x2012;" horiz-adv-x="727" d="M102 522v119q0 14 5.5 20.5t21.5 6.5h471q16 0 20.5 -6.5t4.5 -20.5v-119q0 -16 -4.5 -21t-20.5 -5h-471q-16 0 -21.5 5t-5.5 21z" />
<glyph unicode="&#x2013;" horiz-adv-x="1024" d="M59 567v82q0 14 5.5 21.5t21.5 7.5h852q16 0 21.5 -7t5.5 -22v-82q0 -16 -5.5 -22t-21.5 -6h-852q-16 0 -21.5 6t-5.5 22z" />
<glyph unicode="&#x2014;" horiz-adv-x="2048" d="M55 567v82q0 14 5.5 21.5t21.5 7.5h1886q16 0 20.5 -7t4.5 -22v-82q0 -16 -4 -22t-21 -6h-1886q-16 0 -21.5 6t-5.5 22z" />
<glyph unicode="&#x2015;" horiz-adv-x="2048" d="M55 567v82q0 14 5.5 21.5t21.5 7.5h1886q16 0 20.5 -7t4.5 -22v-82q0 -16 -4 -22t-21 -6h-1886q-16 0 -21.5 6t-5.5 22z" />
<glyph unicode="&#x2018;" horiz-adv-x="565" d="M129 1001v9l121 415q4 16 11 24.5t26 8.5h49q33 0 33 -26l-33 -420q-2 -14 -9.5 -24.5t-25.5 -10.5h-139q-16 0 -24.5 7t-8.5 17z" />
<glyph unicode="&#x2019;" horiz-adv-x="565" d="M162 1004q10 106 17 210.5t16 208.5q2 14 9 24.5t25 10.5h140q20 0 27 -9t7 -19q0 -2 -1 -2.5t-1 -2.5l-120 -415q-4 -16 -11.5 -24.5t-25.5 -8.5h-49q-33 0 -33 27z" />
<glyph unicode="&#x201a;" horiz-adv-x="456" d="M119 -225l33 420q2 12 9 22t25 10h142q31 0 30 -26v-6q-29 -104 -60.5 -207t-59.5 -207q-6 -16 -12.5 -23.5t-24.5 -7.5h-49q-33 0 -33 25z" />
<glyph unicode="&#x201c;" horiz-adv-x="811" d="M129 1001v9l121 415q4 16 11 24.5t26 8.5h49q33 0 33 -26l-33 -420q-2 -14 -9.5 -24.5t-25.5 -10.5h-139q-16 0 -24.5 7t-8.5 17zM440 1004v6l123 415q4 16 10.5 24.5t24.5 8.5h51q31 0 31 -22v-4q-8 -104 -15.5 -210t-17.5 -210q-2 -14 -8 -24.5t-25 -10.5h-141 q-33 0 -33 27z" />
<glyph unicode="&#x201d;" horiz-adv-x="811" d="M131 999v5q8 104 15.5 209.5t17.5 209.5q2 14 8 24.5t25 10.5h141q16 0 24.5 -7t8.5 -17v-9l-123 -415q-4 -16 -10.5 -24.5t-24.5 -8.5h-51q-31 0 -31 22zM442 1004l33 419q2 14 9.5 24.5t25.5 10.5h139q20 0 26.5 -9t6.5 -19v-5l-121 -415q-4 -16 -11 -24.5t-26 -8.5 h-49q-33 0 -33 27z" />
<glyph unicode="&#x201e;" horiz-adv-x="759" d="M119 -225l33 420q2 12 9 22t25 10h142q31 0 30 -26v-6q-29 -104 -60.5 -207t-59.5 -207q-6 -16 -12.5 -23.5t-24.5 -7.5h-49q-33 0 -33 25zM426 -225l33 420q2 12 9 22t26 10h141q31 0 31 -26v-6q-29 -104 -60 -207t-61 -207q-4 -16 -10.5 -23.5t-24.5 -7.5h-51 q-33 0 -33 23v2z" />
<glyph unicode="&#x2020;" horiz-adv-x="1132" d="M111 868v82q0 16 5 22.5t23 6.5h363v432q0 16 7 21.5t21 5.5h103q16 0 20 -5.5t4 -21.5v-432h371q16 0 21.5 -6t5.5 -23v-82q0 -16 -5.5 -21t-21.5 -5h-371v-1035q0 -16 -4 -21t-20 -5h-103q-14 0 -21 5t-7 21v1035h-363q-18 0 -23 5t-5 21z" />
<glyph unicode="&#x2021;" horiz-adv-x="1132" d="M111 895v82q0 16 5 22.5t23 6.5h363v405q0 16 7 21.5t21 5.5h103q16 0 20 -5.5t4 -21.5v-405h371q16 0 21.5 -6.5t5.5 -22.5v-82q0 -14 -5.5 -20.5t-21.5 -6.5h-371v-321h373q16 0 20.5 -6t4.5 -21v-82q0 -14 -4 -21t-21 -7h-373v-603q0 -16 -4 -21t-20 -5h-103 q-14 0 -21 5t-7 21v603h-363q-16 0 -21 7t-5 21v82q0 14 5 20.5t21 6.5h363v321h-363q-18 0 -23 6.5t-5 20.5z" />
<glyph unicode="&#x2022;" horiz-adv-x="784" d="M172 606q0 47 17.5 88t48 71t70.5 47t87 17t88 -17t71 -47t47 -71t17 -88t-17 -88t-47 -70.5t-71 -47t-88 -17.5t-87 17.5t-70.5 47t-48 70.5t-17.5 88z" />
<glyph unicode="&#x2023;" horiz-adv-x="901" d="M145 139v733l701 -356z" />
<glyph unicode="&#x2026;" horiz-adv-x="1423" d="M115 100q0 53 36.5 88t90.5 35q53 0 88 -35t35 -88t-35 -89t-88 -36t-90 36t-37 89zM586 100q0 53 35.5 88t89.5 35q53 0 88 -35t35 -88t-35 -89t-88 -36t-89 36t-36 89zM1059 100q0 53 37 88t90 35t87 -35t34 -88t-34 -89t-87 -36t-90 36t-37 89z" />
<glyph unicode="&#x202f;" horiz-adv-x="368" />
<glyph unicode="&#x2030;" horiz-adv-x="2598" d="M88 961q0 195 89 311.5t267 116.5q186 0 269.5 -114.5t83.5 -311.5t-87 -311.5t-270 -114.5q-178 0 -265 112.5t-87 311.5zM217 963q0 -57 9.5 -116t35 -105t69.5 -74.5t113 -28.5q68 0 111 29.5t67.5 76t35 104t10.5 112.5q0 57 -10.5 114.5t-36 103.5t-69.5 74.5 t-112 28.5q-66 0 -108.5 -28.5t-68 -74.5t-36 -102.5t-10.5 -113.5zM426 -42q-6 5 2 19l838 1430q10 14 15 19.5t19 5.5h62q10 0 16 -5.5t-2 -19.5l-841 -1430q-14 -25 -37 -24h-54q-12 0 -18 5zM1004 412q0 195 89 310.5t267 115.5q186 0 269 -113.5t83 -310.5t-87 -311.5 t-269 -114.5q-178 0 -265 112.5t-87 311.5zM1133 414q0 -57 9 -115.5t34.5 -105t69.5 -75t114 -28.5q68 0 110.5 30t67.5 76t35 103.5t10 112.5q0 57 -10 114.5t-36 103.5t-70 74.5t-111 28.5q-66 0 -109 -28.5t-68.5 -74.5t-35.5 -102.5t-10 -113.5zM1800 412 q0 195 89 310.5t268 115.5q186 0 269 -113.5t83 -310.5t-87 -311.5t-270 -114.5q-178 0 -265 112.5t-87 311.5zM1929 414q0 -57 9.5 -115.5t35 -105t69.5 -75t114 -28.5q68 0 110.5 30t67 76t35 103.5t10.5 112.5q0 57 -10.5 114.5t-36 103.5t-69.5 74.5t-112 28.5 q-66 0 -108.5 -28.5t-68 -74.5t-36 -102.5t-10.5 -113.5z" />
<glyph unicode="&#x2039;" horiz-adv-x="647" d="M131 500q0 23 9.5 41t19.5 34l202 328q10 14 20.5 22.5t37.5 8.5h86q16 0 22.5 -10.5t-2.5 -24.5l-245 -401l254 -394q10 -16 2.5 -24t-23.5 -8h-88q-29 0 -39 7t-18 23l-213 330q-8 14 -16.5 33.5t-8.5 34.5z" />
<glyph unicode="&#x203a;" horiz-adv-x="647" d="M106.5 80q-6.5 8 4.5 24l251 394l-243 401q-10 14 -4 24.5t22 10.5h88q27 0 37 -8t21 -23l202 -328q10 -16 19.5 -34.5t9.5 -40.5q0 -14 -8 -34t-19 -34l-211 -330q-8 -16 -19 -23t-36 -7h-92q-16 0 -22.5 8z" />
<glyph unicode="&#x2044;" horiz-adv-x="335" d="M-329.5 -42q-6.5 5 1.5 19l838 1430q10 14 15 19.5t20 5.5h61q10 0 16.5 -5.5t-1.5 -19.5l-842 -1430q-14 -25 -37 -24h-53q-12 0 -18.5 5z" />
<glyph unicode="&#x205f;" horiz-adv-x="460" />
<glyph unicode="&#x20ac;" d="M76 557v47q0 16 5 22.5t21 6.5h826q16 0 20 -6t4 -23v-47q0 -16 -4 -22.5t-20 -6.5h-576q8 -92 36 -167.5t80 -130t129 -84t183 -29.5q66 0 142.5 18.5t140.5 46.5q16 8 24.5 2t12.5 -16l30 -68q10 -23 5 -30t-15 -13q-80 -47 -179 -63.5t-185 -16.5q-246 0 -387.5 136.5 t-165.5 414.5h-101q-16 0 -21 6.5t-5 22.5zM76 793v47q0 16 5 22t21 6h107q16 119 62 217.5t119 169t167 108.5t207 38q74 0 158 -14.5t170 -59.5q8 -4 13 -11t-5 -26l-33 -76q-8 -12 -15.5 -13t-19.5 3q-55 25 -124.5 39t-135.5 14q-90 0 -159.5 -30.5t-121 -82.5t-82 -123 t-44.5 -153h563q16 0 20 -6t4 -22v-47q0 -16 -4 -22.5t-20 -6.5h-826q-16 0 -21 6t-5 23z" />
<glyph unicode="&#x2122;" horiz-adv-x="1665" d="M57 1364v49q0 23 19 23h592q20 0 20 -23v-49q0 -23 -20 -23h-248v-690q0 -20 -23 -20h-61q-23 0 -23 20v690h-237q-18 0 -19 23zM770 649v733q0 23 9 38.5t42 15.5h35q27 0 43 -10.5t27 -39.5q4 -8 28.5 -66t54 -128t54 -128t29.5 -67q16 -41 31.5 -76.5t33.5 -76.5h8 q16 41 32.5 82t31.5 78l166 382q10 29 25.5 39.5t43.5 10.5h37q31 0 41 -15.5t10 -38.5v-733q0 -12 -6 -15t-16 -3h-60q-12 0 -16 3t-4 15v619h-6l-49 -123l-162 -375q-10 -23 -19.5 -33t-33.5 -10h-37q-25 0 -35 10.5t-21 32.5q-39 90 -77.5 180t-79.5 180q-4 8 -11.5 28 t-15.5 41.5t-15 41t-11 27.5h-5v-619q0 -12 -5 -15t-17 -3h-59q-10 0 -15.5 3t-5.5 15z" />
<glyph unicode="&#x25fc;" horiz-adv-x="1075" d="M0 0v1075h1075v-1075h-1075z" />
</font>
</defs>
</svg>
